<svg xmlns="http://www.w3.org/2000/svg" viewBox="0 0 1543.6 720.4" width="1543.6" height="720.4">
<g id="garment" fill="#d8d8d9">
  <path d="M 1056,660.4 L 1045.3,717 C 1045,719 1042.6,720.4 1039.7,720.4 L 504.3,720.4 C 501.5,720.4 499.1,719 498.7,717 L 488,660.4 L 1056,660.4" stroke="#010303" stroke-width="1" stroke-linecap="round" stroke-linejoin="round"/>
  <path d="M 494.3,660.4 L 505.5,720.4" fill="none" stroke="#858688" stroke-width="0.71" stroke-linecap="round" stroke-linejoin="round"/>
  <path d="M 500.5,660.4 L 511.5,720.4" fill="none" stroke="#858688" stroke-width="0.71" stroke-linecap="round" stroke-linejoin="round"/>
  <path d="M 506.7,660.4 L 517.5,720.4" fill="none" stroke="#858688" stroke-width="0.71" stroke-linecap="round" stroke-linejoin="round"/>
  <path d="M 513,660.4 L 523.5,720.4" fill="none" stroke="#858688" stroke-width="0.71" stroke-linecap="round" stroke-linejoin="round"/>
  <path d="M 519.2,660.4 L 529.5,720.4" fill="none" stroke="#858688" stroke-width="0.71" stroke-linecap="round" stroke-linejoin="round"/>
  <path d="M 525.5,660.4 L 535.5,720.4" fill="none" stroke="#858688" stroke-width="0.71" stroke-linecap="round" stroke-linejoin="round"/>
  <path d="M 531.7,660.4 L 541.5,720.4" fill="none" stroke="#858688" stroke-width="0.71" stroke-linecap="round" stroke-linejoin="round"/>
  <path d="M 537.9,660.4 L 547.5,720.4" fill="none" stroke="#858688" stroke-width="0.71" stroke-linecap="round" stroke-linejoin="round"/>
  <path d="M 544.2,660.4 L 553.5,720.4" fill="none" stroke="#858688" stroke-width="0.71" stroke-linecap="round" stroke-linejoin="round"/>
  <path d="M 550.4,660.4 L 559.5,720.4" fill="none" stroke="#858688" stroke-width="0.71" stroke-linecap="round" stroke-linejoin="round"/>
  <path d="M 556.7,660.4 L 565.5,720.4" fill="none" stroke="#858688" stroke-width="0.71" stroke-linecap="round" stroke-linejoin="round"/>
  <path d="M 562.9,660.4 L 571.4,720.4" fill="none" stroke="#858688" stroke-width="0.71" stroke-linecap="round" stroke-linejoin="round"/>
  <path d="M 569.2,660.4 L 577.4,720.4" fill="none" stroke="#858688" stroke-width="0.71" stroke-linecap="round" stroke-linejoin="round"/>
  <path d="M 575.4,660.4 L 583.4,720.4" fill="none" stroke="#858688" stroke-width="0.71" stroke-linecap="round" stroke-linejoin="round"/>
  <path d="M 581.6,660.4 L 589.4,720.4" fill="none" stroke="#858688" stroke-width="0.71" stroke-linecap="round" stroke-linejoin="round"/>
  <path d="M 587.9,660.4 L 595.4,720.4" fill="none" stroke="#858688" stroke-width="0.71" stroke-linecap="round" stroke-linejoin="round"/>
  <path d="M 594.1,660.4 L 601.4,720.4" fill="none" stroke="#858688" stroke-width="0.71" stroke-linecap="round" stroke-linejoin="round"/>
  <path d="M 600.4,660.4 L 607.4,720.4" fill="none" stroke="#858688" stroke-width="0.71" stroke-linecap="round" stroke-linejoin="round"/>
  <path d="M 606.6,660.4 L 613.4,720.4" fill="none" stroke="#858688" stroke-width="0.71" stroke-linecap="round" stroke-linejoin="round"/>
  <path d="M 612.9,660.4 L 619.4,720.4" fill="none" stroke="#858688" stroke-width="0.71" stroke-linecap="round" stroke-linejoin="round"/>
  <path d="M 619.1,660.4 L 625.4,720.4" fill="none" stroke="#858688" stroke-width="0.71" stroke-linecap="round" stroke-linejoin="round"/>
  <path d="M 625.3,660.4 L 631.4,720.4" fill="none" stroke="#858688" stroke-width="0.71" stroke-linecap="round" stroke-linejoin="round"/>
  <path d="M 631.6,660.4 L 637.4,720.4" fill="none" stroke="#858688" stroke-width="0.71" stroke-linecap="round" stroke-linejoin="round"/>
  <path d="M 637.8,660.4 L 643.3,720.4" fill="none" stroke="#858688" stroke-width="0.71" stroke-linecap="round" stroke-linejoin="round"/>
  <path d="M 644.1,660.4 L 649.3,720.4" fill="none" stroke="#858688" stroke-width="0.71" stroke-linecap="round" stroke-linejoin="round"/>
  <path d="M 650.3,660.4 L 655.3,720.4" fill="none" stroke="#858688" stroke-width="0.71" stroke-linecap="round" stroke-linejoin="round"/>
  <path d="M 656.5,660.4 L 661.3,720.4" fill="none" stroke="#858688" stroke-width="0.71" stroke-linecap="round" stroke-linejoin="round"/>
  <path d="M 662.8,660.4 L 667.3,720.4" fill="none" stroke="#858688" stroke-width="0.71" stroke-linecap="round" stroke-linejoin="round"/>
  <path d="M 669,660.4 L 673.3,720.4" fill="none" stroke="#858688" stroke-width="0.71" stroke-linecap="round" stroke-linejoin="round"/>
  <path d="M 675.3,660.4 L 679.3,720.4" fill="none" stroke="#858688" stroke-width="0.71" stroke-linecap="round" stroke-linejoin="round"/>
  <path d="M 681.5,660.4 L 685.3,720.4" fill="none" stroke="#858688" stroke-width="0.71" stroke-linecap="round" stroke-linejoin="round"/>
  <path d="M 687.8,660.4 L 691.3,720.4" fill="none" stroke="#858688" stroke-width="0.71" stroke-linecap="round" stroke-linejoin="round"/>
  <path d="M 694,660.4 L 697.3,720.4" fill="none" stroke="#858688" stroke-width="0.71" stroke-linecap="round" stroke-linejoin="round"/>
  <path d="M 700.2,660.4 L 703.3,720.4" fill="none" stroke="#858688" stroke-width="0.71" stroke-linecap="round" stroke-linejoin="round"/>
  <path d="M 706.5,660.4 L 709.3,720.4" fill="none" stroke="#858688" stroke-width="0.71" stroke-linecap="round" stroke-linejoin="round"/>
  <path d="M 712.7,660.4 L 715.2,720.4" fill="none" stroke="#858688" stroke-width="0.71" stroke-linecap="round" stroke-linejoin="round"/>
  <path d="M 719,660.4 L 721.2,720.4" fill="none" stroke="#858688" stroke-width="0.71" stroke-linecap="round" stroke-linejoin="round"/>
  <path d="M 725.2,660.4 L 727.2,720.4" fill="none" stroke="#858688" stroke-width="0.71" stroke-linecap="round" stroke-linejoin="round"/>
  <path d="M 731.5,660.4 L 733.2,720.4" fill="none" stroke="#858688" stroke-width="0.71" stroke-linecap="round" stroke-linejoin="round"/>
  <path d="M 737.7,660.4 L 739.2,720.4" fill="none" stroke="#858688" stroke-width="0.71" stroke-linecap="round" stroke-linejoin="round"/>
  <path d="M 743.9,660.4 L 745.2,720.4" fill="none" stroke="#858688" stroke-width="0.71" stroke-linecap="round" stroke-linejoin="round"/>
  <path d="M 750.2,660.4 L 751.2,720.4" fill="none" stroke="#858688" stroke-width="0.71" stroke-linecap="round" stroke-linejoin="round"/>
  <path d="M 756.4,660.4 L 757.2,720.4" fill="none" stroke="#858688" stroke-width="0.71" stroke-linecap="round" stroke-linejoin="round"/>
  <path d="M 762.7,660.4 L 763.2,720.4" fill="none" stroke="#858688" stroke-width="0.71" stroke-linecap="round" stroke-linejoin="round"/>
  <path d="M 768.9,660.4 L 769.2,720.4" fill="none" stroke="#858688" stroke-width="0.71" stroke-linecap="round" stroke-linejoin="round"/>
  <path d="M 775.1,660.4 L 775.2,720.4" fill="none" stroke="#858688" stroke-width="0.71" stroke-linecap="round" stroke-linejoin="round"/>
  <path d="M 781.4,660.4 L 781.2,720.4" fill="none" stroke="#858688" stroke-width="0.71" stroke-linecap="round" stroke-linejoin="round"/>
  <path d="M 787.6,660.4 L 787.1,720.4" fill="none" stroke="#858688" stroke-width="0.71" stroke-linecap="round" stroke-linejoin="round"/>
  <path d="M 793.9,660.4 L 793.1,720.4" fill="none" stroke="#858688" stroke-width="0.71" stroke-linecap="round" stroke-linejoin="round"/>
  <path d="M 800.1,660.4 L 799.1,720.4" fill="none" stroke="#858688" stroke-width="0.71" stroke-linecap="round" stroke-linejoin="round"/>
  <path d="M 806.4,660.4 L 805.1,720.4" fill="none" stroke="#858688" stroke-width="0.71" stroke-linecap="round" stroke-linejoin="round"/>
  <path d="M 812.6,660.4 L 811.1,720.4" fill="none" stroke="#858688" stroke-width="0.71" stroke-linecap="round" stroke-linejoin="round"/>
  <path d="M 818.8,660.4 L 817.1,720.4" fill="none" stroke="#858688" stroke-width="0.71" stroke-linecap="round" stroke-linejoin="round"/>
  <path d="M 825.1,660.4 L 823.1,720.4" fill="none" stroke="#858688" stroke-width="0.71" stroke-linecap="round" stroke-linejoin="round"/>
  <path d="M 831.3,660.4 L 829.1,720.4" fill="none" stroke="#858688" stroke-width="0.71" stroke-linecap="round" stroke-linejoin="round"/>
  <path d="M 837.6,660.4 L 835.1,720.4" fill="none" stroke="#858688" stroke-width="0.71" stroke-linecap="round" stroke-linejoin="round"/>
  <path d="M 843.8,660.4 L 841.1,720.4" fill="none" stroke="#858688" stroke-width="0.71" stroke-linecap="round" stroke-linejoin="round"/>
  <path d="M 850.1,660.4 L 847.1,720.4" fill="none" stroke="#858688" stroke-width="0.71" stroke-linecap="round" stroke-linejoin="round"/>
  <path d="M 856.3,660.4 L 853.1,720.4" fill="none" stroke="#858688" stroke-width="0.71" stroke-linecap="round" stroke-linejoin="round"/>
  <path d="M 862.5,660.4 L 859,720.4" fill="none" stroke="#858688" stroke-width="0.71" stroke-linecap="round" stroke-linejoin="round"/>
  <path d="M 868.8,660.4 L 865,720.4" fill="none" stroke="#858688" stroke-width="0.71" stroke-linecap="round" stroke-linejoin="round"/>
  <path d="M 875,660.4 L 871,720.4" fill="none" stroke="#858688" stroke-width="0.71" stroke-linecap="round" stroke-linejoin="round"/>
  <path d="M 881.3,660.4 L 877,720.4" fill="none" stroke="#858688" stroke-width="0.71" stroke-linecap="round" stroke-linejoin="round"/>
  <path d="M 887.5,660.4 L 883,720.4" fill="none" stroke="#858688" stroke-width="0.71" stroke-linecap="round" stroke-linejoin="round"/>
  <path d="M 893.7,660.4 L 889,720.4" fill="none" stroke="#858688" stroke-width="0.71" stroke-linecap="round" stroke-linejoin="round"/>
  <path d="M 900,660.4 L 895,720.4" fill="none" stroke="#858688" stroke-width="0.71" stroke-linecap="round" stroke-linejoin="round"/>
  <path d="M 906.2,660.4 L 901,720.4" fill="none" stroke="#858688" stroke-width="0.71" stroke-linecap="round" stroke-linejoin="round"/>
  <path d="M 912.5,660.4 L 907,720.4" fill="none" stroke="#858688" stroke-width="0.71" stroke-linecap="round" stroke-linejoin="round"/>
  <path d="M 918.7,660.4 L 913,720.4" fill="none" stroke="#858688" stroke-width="0.71" stroke-linecap="round" stroke-linejoin="round"/>
  <path d="M 925,660.4 L 919,720.4" fill="none" stroke="#858688" stroke-width="0.71" stroke-linecap="round" stroke-linejoin="round"/>
  <path d="M 931.2,660.4 L 925,720.4" fill="none" stroke="#858688" stroke-width="0.71" stroke-linecap="round" stroke-linejoin="round"/>
  <path d="M 937.4,660.4 L 930.9,720.4" fill="none" stroke="#858688" stroke-width="0.71" stroke-linecap="round" stroke-linejoin="round"/>
  <path d="M 943.7,660.4 L 936.9,720.4" fill="none" stroke="#858688" stroke-width="0.71" stroke-linecap="round" stroke-linejoin="round"/>
  <path d="M 949.9,660.4 L 942.9,720.4" fill="none" stroke="#858688" stroke-width="0.71" stroke-linecap="round" stroke-linejoin="round"/>
  <path d="M 956.2,660.4 L 948.9,720.4" fill="none" stroke="#858688" stroke-width="0.71" stroke-linecap="round" stroke-linejoin="round"/>
  <path d="M 962.4,660.4 L 954.9,720.4" fill="none" stroke="#858688" stroke-width="0.71" stroke-linecap="round" stroke-linejoin="round"/>
  <path d="M 968.7,660.4 L 960.9,720.4" fill="none" stroke="#858688" stroke-width="0.71" stroke-linecap="round" stroke-linejoin="round"/>
  <path d="M 974.9,660.4 L 966.9,720.4" fill="none" stroke="#858688" stroke-width="0.71" stroke-linecap="round" stroke-linejoin="round"/>
  <path d="M 981.1,660.4 L 972.9,720.4" fill="none" stroke="#858688" stroke-width="0.71" stroke-linecap="round" stroke-linejoin="round"/>
  <path d="M 987.4,660.4 L 978.9,720.4" fill="none" stroke="#858688" stroke-width="0.71" stroke-linecap="round" stroke-linejoin="round"/>
  <path d="M 993.6,660.4 L 984.9,720.4" fill="none" stroke="#858688" stroke-width="0.71" stroke-linecap="round" stroke-linejoin="round"/>
  <path d="M 999.9,660.4 L 990.9,720.4" fill="none" stroke="#858688" stroke-width="0.71" stroke-linecap="round" stroke-linejoin="round"/>
  <path d="M 1006.1,660.4 L 996.9,720.4" fill="none" stroke="#858688" stroke-width="0.71" stroke-linecap="round" stroke-linejoin="round"/>
  <path d="M 1012.3,660.4 L 1002.9,720.4" fill="none" stroke="#858688" stroke-width="0.71" stroke-linecap="round" stroke-linejoin="round"/>
  <path d="M 1018.6,660.4 L 1008.8,720.4" fill="none" stroke="#858688" stroke-width="0.71" stroke-linecap="round" stroke-linejoin="round"/>
  <path d="M 1024.8,660.4 L 1014.8,720.4" fill="none" stroke="#858688" stroke-width="0.71" stroke-linecap="round" stroke-linejoin="round"/>
  <path d="M 1031.1,660.4 L 1020.8,720.4" fill="none" stroke="#858688" stroke-width="0.71" stroke-linecap="round" stroke-linejoin="round"/>
  <path d="M 1037.3,660.4 L 1026.8,720.4" fill="none" stroke="#858688" stroke-width="0.71" stroke-linecap="round" stroke-linejoin="round"/>
  <path d="M 1043.6,660.4 L 1032.8,720.4" fill="none" stroke="#858688" stroke-width="0.71" stroke-linecap="round" stroke-linejoin="round"/>
  <path d="M 1049.8,660.4 L 1038.8,720.4" fill="none" stroke="#858688" stroke-width="0.71" stroke-linecap="round" stroke-linejoin="round"/>
  <path d="M 1454.3,562.6 C 1454.2,562.6 1454.2,562.6 1454.2,562.6 L 1389.3,544.4 C 1389.2,544.4 1389,544.3 1389,544.1 C 1388.9,544 1388.9,543.8 1389,543.7 L 1482.7,415.9 C 1482.8,415.8 1482.9,415.7 1483.1,415.7 C 1483.1,415.7 1483.1,415.7 1483.1,415.7 C 1483.3,415.7 1483.4,415.8 1483.5,415.9 L 1519.8,469 C 1519.9,469.1 1519.9,469.4 1519.8,469.5 L 1454.7,562.4 C 1454.6,562.6 1454.4,562.6 1454.3,562.6" />
  <path d="M 1483.1,415.2 C 1482.8,415.2 1482.5,415.3 1482.3,415.6 L 1388.6,543.4 C 1388.4,543.6 1388.4,544 1388.5,544.3 C 1388.6,544.6 1388.9,544.8 1389.2,544.9 L 1454,563.1 C 1454.1,563.1 1454.2,563.1 1454.3,563.1 C 1454.6,563.1 1454.9,563 1455.1,562.7 L 1520.2,469.8 C 1520.5,469.5 1520.5,469 1520.2,468.7 L 1483.9,415.6 C 1483.7,415.3 1483.4,415.2 1483.1,415.2 C 1483.1,415.2 1483.1,415.2 1483.1,415.2 M 1483.1,416.2 L 1519.4,469.2 L 1454.3,562.1 L 1389.4,544 L 1483.1,416.2" fill="#010303"/>
  <path d="M 1474.5,407.5 L 1543.6,477.4" fill="none" stroke="#858688" stroke-width="0.71" stroke-linecap="round" stroke-linejoin="round"/>
  <path d="M 1468.8,415.7 L 1539.9,483.2" fill="none" stroke="#858688" stroke-width="0.71" stroke-linecap="round" stroke-linejoin="round"/>
  <path d="M 1463,423.9 L 1536.1,489" fill="none" stroke="#858688" stroke-width="0.71" stroke-linecap="round" stroke-linejoin="round"/>
  <path d="M 1457.3,432.2 L 1532.3,494.8" fill="none" stroke="#858688" stroke-width="0.71" stroke-linecap="round" stroke-linejoin="round"/>
  <path d="M 1451.6,440.4 L 1528.5,500.6" fill="none" stroke="#858688" stroke-width="0.71" stroke-linecap="round" stroke-linejoin="round"/>
  <path d="M 1445.8,448.6 L 1524.7,506.4" fill="none" stroke="#858688" stroke-width="0.71" stroke-linecap="round" stroke-linejoin="round"/>
  <path d="M 1440.1,456.8 L 1520.9,512.2" fill="none" stroke="#858688" stroke-width="0.71" stroke-linecap="round" stroke-linejoin="round"/>
  <path d="M 1434.4,465.1 L 1517.1,518" fill="none" stroke="#858688" stroke-width="0.71" stroke-linecap="round" stroke-linejoin="round"/>
  <path d="M 1428.6,473.3 L 1513.3,523.8" fill="none" stroke="#858688" stroke-width="0.71" stroke-linecap="round" stroke-linejoin="round"/>
  <path d="M 1422.9,481.5 L 1509.5,529.6" fill="none" stroke="#858688" stroke-width="0.71" stroke-linecap="round" stroke-linejoin="round"/>
  <path d="M 1417.2,489.8 L 1505.7,535.4" fill="none" stroke="#858688" stroke-width="0.71" stroke-linecap="round" stroke-linejoin="round"/>
  <path d="M 1411.4,498 L 1501.9,541.2" fill="none" stroke="#858688" stroke-width="0.71" stroke-linecap="round" stroke-linejoin="round"/>
  <path d="M 1405.7,506.2 L 1498.1,547" fill="none" stroke="#858688" stroke-width="0.71" stroke-linecap="round" stroke-linejoin="round"/>
  <path d="M 1399.9,514.4 L 1494.3,552.8" fill="none" stroke="#858688" stroke-width="0.71" stroke-linecap="round" stroke-linejoin="round"/>
  <path d="M 1394.2,522.7 L 1490.5,558.6" fill="none" stroke="#858688" stroke-width="0.71" stroke-linecap="round" stroke-linejoin="round"/>
  <path d="M 1388.5,530.9 L 1486.7,564.4" fill="none" stroke="#858688" stroke-width="0.71" stroke-linecap="round" stroke-linejoin="round"/>
  <path d="M 1382.7,539.1 L 1482.9,570.2" fill="none" stroke="#858688" stroke-width="0.71" stroke-linecap="round" stroke-linejoin="round"/>
  <path d="M 1096.5,110.1 C 1094.7,112.3 1093,114.7 1091.3,116.9 C 1086,124.2 1080.8,131.8 1075.7,139.3 C 1070.7,146.9 1065.7,154.5 1061,162.2 C 1056.2,170 1051.5,177.8 1047,185.8 C 1042.3,193.6 1037.8,201.6 1033.4,209.6 C 1029.2,217.8 1024.9,225.9 1020.6,234.2 C 1016.5,242.3 1012.3,250.6 1008.3,258.8 C 1004.4,267.1 1000.4,275.5 996.4,283.8 C 992.5,292.3 988.7,300.8 984.7,309.2 C 981,317.7 977.2,326.2 973.5,334.7 C 969.6,343.2 966,351.7 962.3,360.2 C 958.5,368.8 954.9,377.3 951.2,385.9 C 960.9,388.3 970.5,390.5 980.2,392.8 C 989.8,395.1 999.5,397.5 1009.1,399.7 C 1018.8,402.1 1028.4,404.6 1038,406.9 C 1047.7,409.3 1057.3,411.8 1066.8,414.3 C 1076.3,416.8 1086,419.3 1095.3,422 C 1104.8,424.6 1114.4,427.3 1123.8,430.1 C 1133.2,432.9 1142.5,435.7 1151.9,438.6 C 1161.2,441.7 1170.4,444.6 1179.7,447.8 C 1188.9,450.9 1198,454.2 1207.2,457.5 C 1216.2,460.9 1225.3,464.4 1234.3,468.1 C 1243.2,471.6 1252.1,475.4 1260.9,479.4 C 1269.7,483.3 1278.4,487.2 1287.1,491.4 C 1295.6,495.7 1304.2,500 1312.7,504.6 C 1321.2,509.1 1329.5,513.9 1337.8,518.7 C 1346.1,523.7 1354.2,528.7 1362.3,534 C 1366.6,536.8 1373.3,541.5 1378.7,545.3 C 1383.5,548.6 1390.2,547.5 1393.6,542.8 L 1482.6,420.6 C 1487.6,413.8 1486.2,404.3 1479.4,399.2 L 1096.5,110.1" stroke="#010303" stroke-width="1" stroke-linecap="round" stroke-linejoin="round"/>
  <path d="M 89.4,562.7 C 89.2,562.7 89,562.6 89,562.5 L 23.8,469.6 C 23.7,469.4 23.7,469.2 23.8,469 L 60.1,415.9 C 60.2,415.8 60.4,415.7 60.5,415.7 L 60.5,415.7 C 60.7,415.7 60.9,415.8 60.9,415.9 L 154.6,543.7 C 154.7,543.8 154.7,544 154.7,544.2 C 154.6,544.3 154.5,544.4 154.3,544.5 L 89.5,562.7 C 89.5,562.7 89.4,562.7 89.4,562.7" />
  <path d="M 60.5,415.2 C 60.5,415.2 60.5,415.2 60.5,415.2 C 60.2,415.2 59.9,415.4 59.7,415.6 L 23.4,468.7 C 23.2,469.1 23.2,469.5 23.4,469.9 L 88.5,562.8 C 88.7,563 89,563.2 89.4,563.2 C 89.5,563.2 89.5,563.2 89.6,563.1 L 154.5,545 C 154.8,544.9 155,544.6 155.2,544.3 C 155.3,544 155.2,543.7 155,543.4 L 61.3,415.6 C 61.2,415.4 60.9,415.2 60.5,415.2 M 60.5,416.2 L 154.2,544 L 89.4,562.2 L 24.3,469.3 L 60.5,416.2" fill="#010303"/>
  <path d="M 69.2,407.5 L 0,477.4" fill="none" stroke="#858688" stroke-width="0.71" stroke-linecap="round" stroke-linejoin="round"/>
  <path d="M 74.9,415.7 L 3.8,483.2" fill="none" stroke="#858688" stroke-width="0.71" stroke-linecap="round" stroke-linejoin="round"/>
  <path d="M 80.6,424 L 7.6,489" fill="none" stroke="#858688" stroke-width="0.71" stroke-linecap="round" stroke-linejoin="round"/>
  <path d="M 86.4,432.2 L 11.4,494.8" fill="none" stroke="#858688" stroke-width="0.71" stroke-linecap="round" stroke-linejoin="round"/>
  <path d="M 92.1,440.4 L 15.2,500.6" fill="none" stroke="#858688" stroke-width="0.71" stroke-linecap="round" stroke-linejoin="round"/>
  <path d="M 97.8,448.7 L 19,506.4" fill="none" stroke="#858688" stroke-width="0.71" stroke-linecap="round" stroke-linejoin="round"/>
  <path d="M 103.6,456.9 L 22.8,512.2" fill="none" stroke="#858688" stroke-width="0.71" stroke-linecap="round" stroke-linejoin="round"/>
  <path d="M 109.3,465.1 L 26.6,518" fill="none" stroke="#858688" stroke-width="0.71" stroke-linecap="round" stroke-linejoin="round"/>
  <path d="M 115,473.3 L 30.4,523.8" fill="none" stroke="#858688" stroke-width="0.71" stroke-linecap="round" stroke-linejoin="round"/>
  <path d="M 120.8,481.6 L 34.2,529.6" fill="none" stroke="#858688" stroke-width="0.71" stroke-linecap="round" stroke-linejoin="round"/>
  <path d="M 126.5,489.8 L 37.9,535.4" fill="none" stroke="#858688" stroke-width="0.71" stroke-linecap="round" stroke-linejoin="round"/>
  <path d="M 132.2,498 L 41.7,541.2" fill="none" stroke="#858688" stroke-width="0.71" stroke-linecap="round" stroke-linejoin="round"/>
  <path d="M 138,506.3 L 45.5,547" fill="none" stroke="#858688" stroke-width="0.71" stroke-linecap="round" stroke-linejoin="round"/>
  <path d="M 143.7,514.5 L 49.3,552.8" fill="none" stroke="#858688" stroke-width="0.71" stroke-linecap="round" stroke-linejoin="round"/>
  <path d="M 149.4,522.7 L 53.1,558.6" fill="none" stroke="#858688" stroke-width="0.71" stroke-linecap="round" stroke-linejoin="round"/>
  <path d="M 155.2,530.9 L 56.9,564.4" fill="none" stroke="#858688" stroke-width="0.71" stroke-linecap="round" stroke-linejoin="round"/>
  <path d="M 160.9,539.2 L 60.7,570.2" fill="none" stroke="#858688" stroke-width="0.71" stroke-linecap="round" stroke-linejoin="round"/>
  <path d="M 447.1,110.1 C 448.9,112.3 450.7,114.7 452.3,116.9 C 457.6,124.3 462.8,131.8 467.9,139.3 C 473,146.9 477.9,154.5 482.6,162.2 C 487.5,170 492.1,177.8 496.7,185.8 C 501.3,193.6 505.8,201.7 510.2,209.7 C 514.5,217.9 518.8,226 523,234.2 C 527.2,242.4 531.3,250.6 535.3,258.9 C 539.3,267.2 543.3,275.6 547.3,283.9 C 551.1,292.4 555,300.8 558.9,309.2 C 562.7,317.7 566.5,326.2 570.2,334.8 C 574,343.2 577.6,351.7 581.3,360.3 C 585.1,368.8 588.7,377.4 592.5,386 C 582.8,388.3 573.1,390.5 563.4,392.8 C 553.8,395.2 544.1,397.5 534.5,399.8 C 524.9,402.2 515.2,404.6 505.6,406.9 C 495.9,409.3 486.4,411.9 476.9,414.3 C 467.3,416.9 457.7,419.4 448.3,422 C 438.8,424.6 429.3,427.4 419.9,430.1 C 410.5,432.9 401.1,435.7 391.8,438.7 C 382.4,441.7 373.2,444.6 364,447.8 C 354.8,450.9 345.6,454.3 336.5,457.6 C 327.4,460.9 318.4,464.5 309.4,468.1 C 300.4,471.7 291.6,475.4 282.7,479.4 C 274,483.3 265.2,487.3 256.5,491.5 C 248,495.7 239.4,500.1 230.9,504.6 C 222.5,509.2 214.1,513.9 205.9,518.7 C 197.6,523.7 189.4,528.7 181.3,534 C 177.1,536.9 170.4,541.5 165,545.3 C 160.1,548.7 153.5,547.6 150,542.8 L 61,420.6 C 56.1,413.8 57.5,404.3 64.2,399.2 L 447.1,110.1" stroke="#010303" stroke-width="1" stroke-linecap="round" stroke-linejoin="round"/>
  <path d="M 998.5,70.2 C 1031.3,83.5 1064,96.9 1096.8,110.2 C 1096.5,110.8 1096.3,111.2 1096.1,111.6 C 1091.7,120.6 1088.1,130 1084.5,139.4 C 1081,148.6 1077.4,157.7 1074.6,167.1 C 1071.7,176.5 1069.5,186.2 1067.1,195.8 C 1064.6,205.6 1061.9,215.3 1059.6,225.1 C 1057.2,235 1055.2,245 1053.3,255 C 1051.6,264.3 1049.8,273.7 1048.5,283 C 1046.8,294.5 1045.7,306.2 1045,317.7 C 1044.2,331.1 1043.8,344.1 1045.5,358.3 C 1047.4,374.4 1051.9,391.8 1064.3,400.7 C 1066.8,402.3 1069.7,403.7 1072.5,405.1 L 1072.5,641.5 C 1072.5,653.4 1063,662.9 1051.1,662.9 L 772,662.9 L 492.9,662.9 C 481.1,662.9 471.5,653.3 471.5,641.5 L 471.5,405.1 C 474.3,403.7 477.3,402.3 479.7,400.7 C 492.2,391.8 496.6,374.4 498.5,358.3 C 500.2,344.1 499.9,331.1 499,317.7 C 498.3,306.2 497.2,294.5 495.5,283 C 494.2,273.7 492.5,264.3 490.7,255 C 488.9,245 486.8,235 484.5,225.1 C 482.1,215.3 479.5,205.6 476.9,195.8 C 474.5,186.2 472.3,176.5 469.4,167.1 C 466.6,157.7 463,148.6 459.6,139.4 C 455.9,130 452.4,120.6 448,111.6 C 447.7,111.2 447.5,110.8 447.2,110.2 C 480,96.9 512.8,83.5 545.6,70.2 L 545,70.2 C 589.3,52.2 633.6,34.1 677.8,16.1 C 678.1,16.5 678.4,16.9 678.7,17.3 C 683.5,24 690.2,29.3 697.6,33.3 C 705.3,37.3 713.6,40 722.2,41.7 C 730.8,43.6 739.6,44.6 748.5,44.9 C 756.3,45.3 764.2,45.1 772,44.9 C 779.9,45.1 787.7,45.3 795.5,44.9 C 804.4,44.6 813.2,43.6 821.9,41.7 C 830.4,40 838.7,37.3 846.4,33.3 C 853.9,29.3 860.5,24 865.3,17.3 C 865.6,16.9 865.9,16.5 866.2,16.1 C 910.5,34.1 954.7,52.2 999.1,70.2" stroke="#010303" stroke-width="1" stroke-linecap="round" stroke-linejoin="round"/>
  <path d="M 868.9,17.3 C 867.9,20.1 852.9,34.5 845.5,39.4 C 837.8,44.4 829.6,47.8 821.2,50.3 C 812.7,52.6 804,54 795.3,54.6 C 787.5,55 779.7,54.9 771.8,54.6 C 763.9,54.9 756.1,55 748.3,54.6 C 739.6,54 730.9,52.6 722.4,50.3 C 714,47.8 705.8,44.4 698.1,39.4 C 690.8,34.5 675.8,21.5 674.7,17.3 L 686.3,5.1 C 702.1,14.2 732.1,28.4 771.3,27.8 C 807.9,27.2 836,14 851.4,5.1 C 856.3,9.7 863.4,13.9 868.9,17.3" stroke="#010303" stroke-width="1" stroke-linecap="round" stroke-linejoin="round"/>
  <path d="M 538.1,0 L 549.4,60" fill="none" stroke="#858688" stroke-width="0.71" stroke-linecap="round" stroke-linejoin="round"/>
  <path d="M 544.4,0 L 555.4,60" fill="none" stroke="#858688" stroke-width="0.71" stroke-linecap="round" stroke-linejoin="round"/>
  <path d="M 550.6,0 L 561.4,60" fill="none" stroke="#858688" stroke-width="0.71" stroke-linecap="round" stroke-linejoin="round"/>
  <path d="M 556.9,0 L 567.4,60" fill="none" stroke="#858688" stroke-width="0.71" stroke-linecap="round" stroke-linejoin="round"/>
  <path d="M 563.1,0 L 573.4,60" fill="none" stroke="#858688" stroke-width="0.71" stroke-linecap="round" stroke-linejoin="round"/>
  <path d="M 569.4,0 L 579.4,60" fill="none" stroke="#858688" stroke-width="0.71" stroke-linecap="round" stroke-linejoin="round"/>
  <path d="M 575.6,0 L 585.4,60" fill="none" stroke="#858688" stroke-width="0.71" stroke-linecap="round" stroke-linejoin="round"/>
  <path d="M 581.8,0 L 591.4,60" fill="none" stroke="#858688" stroke-width="0.71" stroke-linecap="round" stroke-linejoin="round"/>
  <path d="M 588.1,0 L 597.4,60" fill="none" stroke="#858688" stroke-width="0.71" stroke-linecap="round" stroke-linejoin="round"/>
  <path d="M 594.3,0 L 603.4,60" fill="none" stroke="#858688" stroke-width="0.71" stroke-linecap="round" stroke-linejoin="round"/>
  <path d="M 600.6,0 L 609.3,60" fill="none" stroke="#858688" stroke-width="0.71" stroke-linecap="round" stroke-linejoin="round"/>
  <path d="M 606.8,0 L 615.3,60" fill="none" stroke="#858688" stroke-width="0.71" stroke-linecap="round" stroke-linejoin="round"/>
  <path d="M 613.1,0 L 621.3,60" fill="none" stroke="#858688" stroke-width="0.71" stroke-linecap="round" stroke-linejoin="round"/>
  <path d="M 619.3,0 L 627.3,60" fill="none" stroke="#858688" stroke-width="0.71" stroke-linecap="round" stroke-linejoin="round"/>
  <path d="M 625.5,0 L 633.3,60" fill="none" stroke="#858688" stroke-width="0.71" stroke-linecap="round" stroke-linejoin="round"/>
  <path d="M 631.8,0 L 639.3,60" fill="none" stroke="#858688" stroke-width="0.71" stroke-linecap="round" stroke-linejoin="round"/>
  <path d="M 638,0 L 645.3,60" fill="none" stroke="#858688" stroke-width="0.71" stroke-linecap="round" stroke-linejoin="round"/>
  <path d="M 644.3,0 L 651.3,60" fill="none" stroke="#858688" stroke-width="0.71" stroke-linecap="round" stroke-linejoin="round"/>
  <path d="M 650.5,0 L 657.3,60" fill="none" stroke="#858688" stroke-width="0.71" stroke-linecap="round" stroke-linejoin="round"/>
  <path d="M 656.7,0 L 663.3,60" fill="none" stroke="#858688" stroke-width="0.71" stroke-linecap="round" stroke-linejoin="round"/>
  <path d="M 663,0 L 669.3,60" fill="none" stroke="#858688" stroke-width="0.71" stroke-linecap="round" stroke-linejoin="round"/>
  <path d="M 669.2,0 L 675.3,60" fill="none" stroke="#858688" stroke-width="0.71" stroke-linecap="round" stroke-linejoin="round"/>
  <path d="M 675.5,0 L 681.2,60" fill="none" stroke="#858688" stroke-width="0.71" stroke-linecap="round" stroke-linejoin="round"/>
  <path d="M 681.7,0 L 687.2,60" fill="none" stroke="#858688" stroke-width="0.71" stroke-linecap="round" stroke-linejoin="round"/>
  <path d="M 688,0 L 693.2,60" fill="none" stroke="#858688" stroke-width="0.71" stroke-linecap="round" stroke-linejoin="round"/>
  <path d="M 694.2,0 L 699.2,60" fill="none" stroke="#858688" stroke-width="0.71" stroke-linecap="round" stroke-linejoin="round"/>
  <path d="M 700.4,0 L 705.2,60" fill="none" stroke="#858688" stroke-width="0.71" stroke-linecap="round" stroke-linejoin="round"/>
  <path d="M 706.7,0 L 711.2,60" fill="none" stroke="#858688" stroke-width="0.71" stroke-linecap="round" stroke-linejoin="round"/>
  <path d="M 712.9,0 L 717.2,60" fill="none" stroke="#858688" stroke-width="0.71" stroke-linecap="round" stroke-linejoin="round"/>
  <path d="M 719.2,0 L 723.2,60" fill="none" stroke="#858688" stroke-width="0.71" stroke-linecap="round" stroke-linejoin="round"/>
  <path d="M 725.4,0 L 729.2,60" fill="none" stroke="#858688" stroke-width="0.71" stroke-linecap="round" stroke-linejoin="round"/>
  <path d="M 731.7,0 L 735.2,60" fill="none" stroke="#858688" stroke-width="0.71" stroke-linecap="round" stroke-linejoin="round"/>
  <path d="M 737.9,0 L 741.2,60" fill="none" stroke="#858688" stroke-width="0.71" stroke-linecap="round" stroke-linejoin="round"/>
  <path d="M 744.1,0 L 747.2,60" fill="none" stroke="#858688" stroke-width="0.71" stroke-linecap="round" stroke-linejoin="round"/>
  <path d="M 750.4,0 L 753.1,60" fill="none" stroke="#858688" stroke-width="0.71" stroke-linecap="round" stroke-linejoin="round"/>
  <path d="M 756.6,0 L 759.1,60" fill="none" stroke="#858688" stroke-width="0.71" stroke-linecap="round" stroke-linejoin="round"/>
  <path d="M 762.9,0 L 765.1,60" fill="none" stroke="#858688" stroke-width="0.71" stroke-linecap="round" stroke-linejoin="round"/>
  <path d="M 769.1,0 L 771.1,60" fill="none" stroke="#858688" stroke-width="0.71" stroke-linecap="round" stroke-linejoin="round"/>
  <path d="M 775.3,0 L 777.1,60" fill="none" stroke="#858688" stroke-width="0.71" stroke-linecap="round" stroke-linejoin="round"/>
  <path d="M 781.6,0 L 783.1,60" fill="none" stroke="#858688" stroke-width="0.71" stroke-linecap="round" stroke-linejoin="round"/>
  <path d="M 787.8,0 L 789.1,60" fill="none" stroke="#858688" stroke-width="0.71" stroke-linecap="round" stroke-linejoin="round"/>
  <path d="M 794.1,0 L 795.1,60" fill="none" stroke="#858688" stroke-width="0.71" stroke-linecap="round" stroke-linejoin="round"/>
  <path d="M 800.3,0 L 801.1,60" fill="none" stroke="#858688" stroke-width="0.71" stroke-linecap="round" stroke-linejoin="round"/>
  <path d="M 806.6,0 L 807.1,60" fill="none" stroke="#858688" stroke-width="0.71" stroke-linecap="round" stroke-linejoin="round"/>
  <path d="M 812.8,0 L 813.1,60" fill="none" stroke="#858688" stroke-width="0.71" stroke-linecap="round" stroke-linejoin="round"/>
  <path d="M 819,0 L 819.1,60" fill="none" stroke="#858688" stroke-width="0.71" stroke-linecap="round" stroke-linejoin="round"/>
  <path d="M 825.3,0 L 825.1,60" fill="none" stroke="#858688" stroke-width="0.71" stroke-linecap="round" stroke-linejoin="round"/>
  <path d="M 831.5,0 L 831,60" fill="none" stroke="#858688" stroke-width="0.71" stroke-linecap="round" stroke-linejoin="round"/>
  <path d="M 837.8,0 L 837,60" fill="none" stroke="#858688" stroke-width="0.71" stroke-linecap="round" stroke-linejoin="round"/>
  <path d="M 844,0 L 843,60" fill="none" stroke="#858688" stroke-width="0.71" stroke-linecap="round" stroke-linejoin="round"/>
  <path d="M 850.3,0 L 849,60" fill="none" stroke="#858688" stroke-width="0.71" stroke-linecap="round" stroke-linejoin="round"/>
  <path d="M 856.5,0 L 855,60" fill="none" stroke="#858688" stroke-width="0.71" stroke-linecap="round" stroke-linejoin="round"/>
  <path d="M 862.7,0 L 861,60" fill="none" stroke="#858688" stroke-width="0.71" stroke-linecap="round" stroke-linejoin="round"/>
  <path d="M 869,0 L 867,60" fill="none" stroke="#858688" stroke-width="0.71" stroke-linecap="round" stroke-linejoin="round"/>
  <path d="M 875.2,0 L 873,60" fill="none" stroke="#858688" stroke-width="0.71" stroke-linecap="round" stroke-linejoin="round"/>
  <path d="M 881.5,0 L 879,60" fill="none" stroke="#858688" stroke-width="0.71" stroke-linecap="round" stroke-linejoin="round"/>
  <path d="M 887.7,0 L 885,60" fill="none" stroke="#858688" stroke-width="0.71" stroke-linecap="round" stroke-linejoin="round"/>
  <path d="M 893.9,0 L 891,60" fill="none" stroke="#858688" stroke-width="0.71" stroke-linecap="round" stroke-linejoin="round"/>
  <path d="M 900.2,0 L 897,60" fill="none" stroke="#858688" stroke-width="0.71" stroke-linecap="round" stroke-linejoin="round"/>
  <path d="M 906.4,0 L 902.9,60" fill="none" stroke="#858688" stroke-width="0.71" stroke-linecap="round" stroke-linejoin="round"/>
  <path d="M 912.7,0 L 908.9,60" fill="none" stroke="#858688" stroke-width="0.71" stroke-linecap="round" stroke-linejoin="round"/>
  <path d="M 918.9,0 L 914.9,60" fill="none" stroke="#858688" stroke-width="0.71" stroke-linecap="round" stroke-linejoin="round"/>
  <path d="M 925.2,0 L 920.9,60" fill="none" stroke="#858688" stroke-width="0.71" stroke-linecap="round" stroke-linejoin="round"/>
  <path d="M 931.4,0 L 926.9,60" fill="none" stroke="#858688" stroke-width="0.71" stroke-linecap="round" stroke-linejoin="round"/>
  <path d="M 937.6,0 L 932.9,60" fill="none" stroke="#858688" stroke-width="0.71" stroke-linecap="round" stroke-linejoin="round"/>
  <path d="M 943.9,0 L 938.9,60" fill="none" stroke="#858688" stroke-width="0.71" stroke-linecap="round" stroke-linejoin="round"/>
  <path d="M 950.1,0 L 944.9,60" fill="none" stroke="#858688" stroke-width="0.71" stroke-linecap="round" stroke-linejoin="round"/>
  <path d="M 956.4,0 L 950.9,60" fill="none" stroke="#858688" stroke-width="0.71" stroke-linecap="round" stroke-linejoin="round"/>
  <path d="M 962.6,0 L 956.9,60" fill="none" stroke="#858688" stroke-width="0.71" stroke-linecap="round" stroke-linejoin="round"/>
  <path d="M 968.9,0 L 962.9,60" fill="none" stroke="#858688" stroke-width="0.71" stroke-linecap="round" stroke-linejoin="round"/>
  <path d="M 975.1,0 L 968.9,60" fill="none" stroke="#858688" stroke-width="0.71" stroke-linecap="round" stroke-linejoin="round"/>
  <path d="M 981.3,0 L 974.8,60" fill="none" stroke="#858688" stroke-width="0.71" stroke-linecap="round" stroke-linejoin="round"/>
  <path d="M 987.6,0 L 980.8,60" fill="none" stroke="#858688" stroke-width="0.71" stroke-linecap="round" stroke-linejoin="round"/>
  <path d="M 993.8,0 L 986.8,60" fill="none" stroke="#858688" stroke-width="0.71" stroke-linecap="round" stroke-linejoin="round"/>
  <path d="M 1000.1,0 L 992.8,60" fill="none" stroke="#858688" stroke-width="0.71" stroke-linecap="round" stroke-linejoin="round"/>
  <path d="M 1006.3,0 L 998.8,60" fill="none" stroke="#858688" stroke-width="0.71" stroke-linecap="round" stroke-linejoin="round"/>
  <path d="M 1012.5,0 L 1004.8,60" fill="none" stroke="#858688" stroke-width="0.71" stroke-linecap="round" stroke-linejoin="round"/>
  <path d="M 1018.8,0 L 1010.8,60" fill="none" stroke="#858688" stroke-width="0.71" stroke-linecap="round" stroke-linejoin="round"/>
  <path d="M 1025,0 L 1016.8,60" fill="none" stroke="#858688" stroke-width="0.71" stroke-linecap="round" stroke-linejoin="round"/>
  <path d="M 1031.3,0 L 1022.8,60" fill="none" stroke="#858688" stroke-width="0.71" stroke-linecap="round" stroke-linejoin="round"/>
  <path d="M 1037.5,0 L 1028.8,60" fill="none" stroke="#858688" stroke-width="0.71" stroke-linecap="round" stroke-linejoin="round"/>
  <path d="M 1043.8,0 L 1034.8,60" fill="none" stroke="#858688" stroke-width="0.71" stroke-linecap="round" stroke-linejoin="round"/>
  <path d="M 1050,0 L 1040.8,60" fill="none" stroke="#858688" stroke-width="0.71" stroke-linecap="round" stroke-linejoin="round"/>
  <path d="M 1056.2,0 L 1046.7,60" fill="none" stroke="#858688" stroke-width="0.71" stroke-linecap="round" stroke-linejoin="round"/>
  <path d="M 1062.5,0 L 1052.7,60" fill="none" stroke="#858688" stroke-width="0.71" stroke-linecap="round" stroke-linejoin="round"/>
  <path d="M 1068.7,0 L 1058.7,60" fill="none" stroke="#858688" stroke-width="0.71" stroke-linecap="round" stroke-linejoin="round"/>
  <path d="M 1075,0 L 1064.7,60" fill="none" stroke="#858688" stroke-width="0.71" stroke-linecap="round" stroke-linejoin="round"/>
  <path d="M 1081.2,0 L 1070.7,60" fill="none" stroke="#858688" stroke-width="0.71" stroke-linecap="round" stroke-linejoin="round"/>
  <path d="M 1087.5,0 L 1076.7,60" fill="none" stroke="#858688" stroke-width="0.71" stroke-linecap="round" stroke-linejoin="round"/>
  <path d="M 1093.7,0 L 1082.7,60" fill="none" stroke="#858688" stroke-width="0.71" stroke-linecap="round" stroke-linejoin="round"/>
</g>
</svg>
