<svg xmlns="http://www.w3.org/2000/svg" viewBox="0 0 637 768" width="637" height="768">
  <path id="garment" d="M 604.7,75.0 L 603.3,74.3 L 598.1,71.7 L 590.4,67.9 L 581.3,63.4 L 572.2,59.1 L 563.0,54.8 L 553.8,50.6 L 544.6,46.5 L 535.3,42.5 L 526.0,38.5 L 516.7,34.7 L 512.0,32.8 L 507.3,30.9 L 497.9,27.2 L 488.5,23.6 L 479.0,20.1 L 469.5,16.6 L 460.0,13.3 L 450.5,10.0 L 440.9,6.8 L 431.2,3.7 L 423.0,1.1 L 421.6,0.6 L 419.5,0.0 L 419.1,1.4 L 417.4,7.3 L 417.0,8.8 L 406.5,39.3 L 392.3,69.7 L 372.2,94.7 L 348.0,111.5 L 320.0,115.8 L 318.5,115.7 L 317.0,115.8 L 289.0,111.5 L 264.8,94.7 L 244.7,69.7 L 230.5,39.3 L 220.0,8.8 L 219.6,7.3 L 217.9,1.4 L 217.5,0.0 L 215.4,0.6 L 214.0,1.1 L 205.8,3.7 L 196.1,6.8 L 186.5,10.0 L 177.0,13.3 L 167.5,16.6 L 158.0,20.1 L 148.5,23.6 L 139.1,27.2 L 129.7,30.9 L 125.0,32.8 L 120.3,34.7 L 111.0,38.5 L 101.7,42.5 L 92.4,46.5 L 83.2,50.6 L 74.0,54.8 L 64.8,59.1 L 55.7,63.4 L 46.6,67.9 L 38.9,71.7 L 33.7,74.3 L 32.3,75.0 L 32.8,76.5 L 34.0,80.6 L 34.4,82.1 L 42.2,110.3 L 48.9,151.1 L 51.3,180.1 L 51.6,215.7 L 49.4,248.8 L 45.6,269.7 L 45.2,271.2 L 44.7,272.6 L 37.9,286.5 L 27.5,298.2 L 17.4,302.3 L 10.8,302.3 L 9.3,302.4 L 1.5,303.2 L 0.0,303.4 L 0.0,763.3 L 1.5,763.3 L 11.5,763.3 L 39.1,763.4 L 66.8,763.8 L 94.4,764.2 L 122.1,764.8 L 149.9,765.5 L 177.7,766.2 L 205.5,766.8 L 233.3,767.4 L 261.2,767.9 L 289.1,768.2 L 317.0,768.3 L 318.5,768.3 L 320.0,768.3 L 347.9,768.2 L 375.8,767.9 L 403.7,767.4 L 431.5,766.8 L 459.3,766.2 L 487.1,765.5 L 514.9,764.8 L 542.6,764.2 L 570.2,763.8 L 597.9,763.4 L 625.5,763.3 L 635.5,763.3 L 637.0,763.3 L 637.0,303.4 L 635.5,303.2 L 627.7,302.4 L 626.2,302.3 L 619.6,302.3 L 609.5,298.2 L 599.1,286.5 L 592.3,272.6 L 591.8,271.2 L 591.4,269.7 L 587.6,248.8 L 585.4,215.7 L 585.7,180.1 L 588.1,151.1 L 594.8,110.3 L 602.6,82.1 L 603.0,80.6 L 604.2,76.5 L 604.7,75.0 Z" fill="#1b1f24" stroke="#5b6470" stroke-width="3" stroke-linejoin="round"/>
  <line id="center-axis" x1="318.5" y1="0" x2="318.5" y2="768" stroke="#3b4350" stroke-width="1.5" stroke-dasharray="6 8"/>
  <circle id="neckline-point" cx="318.5" cy="115.8" r="6" fill="#ff5a5f"/>
</svg>
