<svg xmlns="http://www.w3.org/2000/svg" viewBox="0 0 659 786" width="659" height="786">
  <path id="garment" d="M 622.5,82.4 L 621.1,81.7 L 616.2,79.0 L 608.9,75.1 L 600.2,70.5 L 591.4,66.0 L 582.6,61.6 L 573.8,57.2 L 565.0,53.0 L 556.1,48.7 L 547.2,44.6 L 538.3,40.5 L 529.3,36.6 L 520.3,32.7 L 511.2,28.8 L 502.2,25.0 L 493.1,21.4 L 483.9,17.7 L 474.8,14.2 L 465.6,10.7 L 456.3,7.3 L 447.1,4.0 L 439.2,1.2 L 437.8,0.8 L 435.6,0.0 L 435.2,1.4 L 433.4,7.3 L 432.9,8.9 L 421.7,40.2 L 406.5,71.2 L 385.4,96.7 L 360.2,113.7 L 331.0,117.6 L 329.5,117.5 L 328.0,117.6 L 298.8,113.7 L 273.6,96.7 L 252.5,71.2 L 237.3,40.2 L 226.1,8.9 L 225.6,7.3 L 223.8,1.4 L 223.4,0.0 L 221.2,0.8 L 219.8,1.2 L 211.9,4.0 L 202.7,7.3 L 193.4,10.7 L 184.2,14.2 L 175.1,17.7 L 165.9,21.4 L 156.8,25.0 L 147.8,28.8 L 138.7,32.7 L 129.7,36.6 L 120.7,40.5 L 111.8,44.6 L 102.9,48.7 L 94.0,53.0 L 85.2,57.2 L 76.4,61.6 L 67.6,66.0 L 58.8,70.5 L 50.1,75.1 L 42.8,79.0 L 37.9,81.7 L 36.5,82.4 L 36.9,83.8 L 38.0,87.8 L 38.5,89.3 L 45.9,117.9 L 51.9,159.2 L 53.9,188.5 L 53.6,224.5 L 50.9,257.9 L 46.6,279.5 L 46.1,281.0 L 45.6,282.4 L 38.7,295.8 L 27.9,307.4 L 17.7,311.4 L 10.8,311.3 L 9.3,311.5 L 1.5,312.3 L 0.0,312.4 L 0.0,781.4 L 1.5,781.4 L 11.5,781.4 L 40.1,781.5 L 68.8,781.8 L 97.4,782.3 L 126.2,782.9 L 154.9,783.5 L 183.7,784.2 L 212.5,784.9 L 241.3,785.4 L 270.2,785.9 L 299.1,786.2 L 328.0,786.4 L 329.5,786.4 L 331.0,786.4 L 359.9,786.2 L 388.8,785.9 L 417.7,785.4 L 446.5,784.9 L 475.3,784.2 L 504.1,783.5 L 532.8,782.9 L 561.6,782.3 L 590.2,781.8 L 618.9,781.5 L 647.5,781.4 L 657.5,781.4 L 659.0,781.4 L 659.0,312.4 L 657.5,312.3 L 649.7,311.5 L 648.2,311.3 L 641.3,311.4 L 631.1,307.4 L 620.3,295.8 L 613.4,282.4 L 612.9,281.0 L 612.4,279.5 L 608.1,257.9 L 605.4,224.5 L 605.1,188.5 L 607.1,159.2 L 613.1,117.9 L 620.5,89.3 L 621.0,87.8 L 622.1,83.8 L 622.5,82.4 Z" fill="#ffffff" stroke="#5b6470" stroke-width="3" stroke-linejoin="round"/>
  <line id="center-axis" x1="329.5" y1="0" x2="329.5" y2="786" stroke="#3b4350" stroke-width="1.5" stroke-dasharray="6 8"/>
  <circle id="neckline-point" cx="329.5" cy="117.6" r="6" fill="#ff5a5f"/>
</svg>
