<svg xmlns="http://www.w3.org/2000/svg" viewBox="0 0 510 335" width="510" height="335">
  <path id="garment" d="M 509.7,131.4 L 508.3,131.0 L 500.9,128.8 L 467.1,117.6 L 438.4,103.1 L 407.4,82.5 L 383.9,63.3 L 361.0,45.0 L 338.2,27.5 L 312.0,13.2 L 285.2,3.6 L 256.5,0.0 L 255.0,0.0 L 253.7,0.0 L 219.4,3.9 L 197.9,12.7 L 176.1,24.7 L 150.1,43.4 L 126.2,63.8 L 103.1,81.3 L 71.0,102.8 L 63.9,107.3 L 62.7,108.2 L 61.4,109.0 L 33.9,122.9 L 9.6,128.7 L 1.5,130.2 L 0.0,130.5 L 27.7,304.3 L 21.7,324.0 L 23.2,324.1 L 36.6,325.0 L 63.7,326.9 L 90.9,328.7 L 118.1,330.4 L 145.4,331.9 L 172.7,333.2 L 200.1,334.2 L 227.5,334.8 L 253.4,335.0 L 254.9,335.0 L 256.4,335.0 L 282.4,334.8 L 309.8,334.2 L 337.2,333.2 L 364.5,331.9 L 391.7,330.4 L 419.0,328.7 L 446.2,326.9 L 473.3,325.0 L 486.7,324.1 L 488.2,324.0 L 482.2,304.3 L 509.7,131.4 Z" fill="#1b1f24" stroke="#5b6470" stroke-width="3" stroke-linejoin="round"/>
  <line id="center-axis" x1="254.9" y1="0" x2="254.9" y2="335" stroke="#3b4350" stroke-width="1.5" stroke-dasharray="6 8"/>
  <line id="sleeve-bottom" x1="0" y1="335" x2="510" y2="335" stroke="#ff5a5f" stroke-width="3"/>
</svg>
