<svg xmlns="http://www.w3.org/2000/svg" viewBox="0 0 549 696" width="549" height="696">
  <path id="garment" d="M 533.9,44.2 L 532.5,43.7 L 525.7,41.3 L 517.3,38.5 L 507.4,35.3 L 497.5,32.2 L 487.6,29.2 L 477.7,26.3 L 467.8,23.6 L 457.8,20.9 L 447.8,18.4 L 442.8,17.1 L 437.7,15.9 L 427.7,13.6 L 417.6,11.3 L 407.5,9.2 L 397.3,7.2 L 387.2,5.3 L 377.0,3.5 L 366.8,1.8 L 358.0,0.5 L 356.5,0.2 L 354.9,0.0 L 354.6,1.5 L 353.5,6.9 L 353.2,8.3 L 346.0,35.9 L 335.5,63.5 L 319.5,86.7 L 299.5,103.0 L 276.0,108.5 L 274.5,108.5 L 273.0,108.5 L 249.5,103.0 L 229.5,86.7 L 213.5,63.5 L 203.0,35.9 L 195.8,8.3 L 195.5,6.9 L 194.4,1.5 L 194.1,0.0 L 192.5,0.2 L 191.0,0.5 L 182.2,1.8 L 172.0,3.5 L 161.8,5.3 L 151.7,7.2 L 141.5,9.2 L 131.4,11.3 L 121.3,13.6 L 111.3,15.9 L 106.2,17.1 L 101.2,18.4 L 91.2,20.9 L 81.2,23.6 L 71.3,26.3 L 61.4,29.2 L 51.5,32.2 L 41.6,35.3 L 31.7,38.5 L 23.3,41.3 L 16.5,43.7 L 15.1,44.2 L 15.6,45.6 L 17.6,50.9 L 18.1,52.3 L 27.5,79.0 L 36.7,117.9 L 41.0,145.7 L 43.6,180.1 L 43.6,212.2 L 41.8,230.7 L 41.5,232.1 L 41.2,233.6 L 35.1,249.2 L 25.9,261.0 L 16.4,265.7 L 10.9,266.1 L 9.4,266.2 L 1.5,266.9 L 0.0,267.1 L 0.0,691.2 L 1.5,691.2 L 11.5,691.2 L 40.3,691.3 L 69.2,691.8 L 98.2,692.5 L 127.2,693.2 L 156.2,694.1 L 185.3,694.9 L 214.5,695.5 L 243.7,696.0 L 273.0,696.2 L 274.5,696.2 L 276.0,696.2 L 305.3,696.0 L 334.5,695.5 L 363.7,694.9 L 392.8,694.1 L 421.8,693.2 L 450.8,692.5 L 479.8,691.8 L 508.7,691.3 L 537.5,691.2 L 547.5,691.2 L 549.0,691.2 L 549.0,267.1 L 547.5,266.9 L 539.6,266.2 L 538.1,266.1 L 532.6,265.7 L 523.1,261.0 L 513.9,249.2 L 507.8,233.6 L 507.5,232.1 L 507.2,230.7 L 505.4,212.2 L 505.4,180.1 L 508.0,145.7 L 512.3,117.9 L 521.5,79.0 L 530.9,52.3 L 531.4,50.9 L 533.4,45.6 L 533.9,44.2 Z" fill="#ffffff" stroke="#5b6470" stroke-width="3" stroke-linejoin="round"/>
  <line id="center-axis" x1="274.5" y1="0" x2="274.5" y2="696" stroke="#3b4350" stroke-width="1.5" stroke-dasharray="6 8"/>
  <circle id="neckline-point" cx="274.5" cy="108.5" r="6" fill="#ff5a5f"/>
</svg>
