<svg xmlns="http://www.w3.org/2000/svg" viewBox="0 0 681 804" width="681" height="804">
  <path id="garment" d="M 640.3,89.7 L 639.0,88.9 L 634.4,86.3 L 626.9,82.0 L 618.1,77.1 L 609.3,72.2 L 600.4,67.4 L 591.5,62.7 L 582.6,58.1 L 573.6,53.5 L 564.6,49.1 L 555.6,44.6 L 546.5,40.3 L 537.4,36.0 L 528.3,31.8 L 519.1,27.7 L 509.9,23.6 L 500.7,19.7 L 491.4,15.8 L 482.1,11.9 L 472.8,8.2 L 463.4,4.5 L 455.4,1.4 L 454.0,0.9 L 451.7,0.0 L 451.3,1.4 L 449.4,7.4 L 448.8,9.0 L 436.8,41.0 L 420.7,72.8 L 398.6,98.7 L 372.3,115.8 L 342.0,119.4 L 340.5,119.3 L 339.0,119.4 L 308.7,115.8 L 282.4,98.7 L 260.3,72.8 L 244.2,41.0 L 232.2,9.0 L 231.6,7.4 L 229.7,1.4 L 229.3,0.0 L 227.0,0.9 L 225.6,1.4 L 217.6,4.5 L 208.2,8.2 L 198.9,11.9 L 189.6,15.8 L 180.3,19.7 L 171.1,23.6 L 161.9,27.7 L 152.7,31.8 L 143.6,36.0 L 134.5,40.3 L 125.4,44.6 L 116.4,49.1 L 107.4,53.5 L 98.4,58.1 L 89.5,62.7 L 80.6,67.4 L 71.7,72.2 L 62.9,77.1 L 54.1,82.0 L 46.6,86.3 L 42.0,88.9 L 40.7,89.7 L 41.1,91.1 L 42.1,94.9 L 42.5,96.4 L 49.5,125.4 L 55.0,167.2 L 56.6,196.9 L 55.7,233.3 L 52.3,267.0 L 47.5,289.4 L 47.0,290.8 L 46.4,292.2 L 39.4,305.1 L 28.4,316.7 L 18.0,320.6 L 10.7,320.4 L 9.3,320.5 L 1.5,321.4 L 0.0,321.5 L 0.0,799.4 L 1.5,799.4 L 11.5,799.4 L 41.1,799.5 L 70.8,799.8 L 100.5,800.3 L 130.2,800.9 L 159.9,801.6 L 189.7,802.2 L 219.5,802.9 L 249.3,803.5 L 279.2,804.0 L 309.1,804.3 L 339.0,804.4 L 340.5,804.4 L 342.0,804.4 L 371.9,804.3 L 401.8,804.0 L 431.7,803.5 L 461.5,802.9 L 491.3,802.2 L 521.1,801.6 L 550.8,800.9 L 580.5,800.3 L 610.2,799.8 L 639.9,799.5 L 669.5,799.4 L 679.5,799.4 L 681.0,799.4 L 681.0,321.5 L 679.5,321.4 L 671.7,320.5 L 670.3,320.4 L 663.0,320.6 L 652.6,316.7 L 641.6,305.1 L 634.6,292.2 L 634.0,290.8 L 633.5,289.4 L 628.7,267.0 L 625.3,233.3 L 624.4,196.9 L 626.0,167.2 L 631.5,125.4 L 638.5,96.4 L 638.9,94.9 L 639.9,91.1 L 640.3,89.7 Z" fill="#ffffff" stroke="#5b6470" stroke-width="3" stroke-linejoin="round"/>
  <line id="center-axis" x1="340.5" y1="0" x2="340.5" y2="804" stroke="#3b4350" stroke-width="1.5" stroke-dasharray="6 8"/>
  <circle id="neckline-point" cx="340.5" cy="119.4" r="6" fill="#ff5a5f"/>
</svg>
