<svg xmlns="http://www.w3.org/2000/svg" viewBox="0 0 427 251" width="427" height="251">
  <path id="garment" d="M 427.0,118.9 L 425.6,118.4 L 417.8,115.9 L 389.7,105.5 L 366.2,92.4 L 340.7,74.3 L 321.4,57.4 L 302.7,41.3 L 283.9,25.8 L 262.0,12.9 L 239.5,3.9 L 215.2,0.0 L 213.7,0.0 L 212.3,0.0 L 183.2,4.4 L 165.1,12.5 L 147.1,23.3 L 125.6,39.9 L 106.0,57.8 L 87.1,73.2 L 62.7,90.8 L 61.4,91.7 L 60.2,92.6 L 30.2,110.2 L 10.1,115.7 L 1.5,117.6 L 0.0,117.9 L 28.0,220.1 L 19.0,239.4 L 20.5,239.5 L 36.9,240.9 L 66.1,243.4 L 95.4,245.8 L 124.8,247.8 L 154.3,249.5 L 183.9,250.6 L 212.1,251.0 L 213.6,251.0 L 215.1,251.0 L 243.3,250.6 L 272.9,249.5 L 302.4,247.8 L 331.8,245.8 L 361.1,243.4 L 390.3,240.9 L 406.8,239.5 L 408.3,239.4 L 399.2,220.1 L 427.0,118.9 Z" fill="#ffffff" stroke="#5b6470" stroke-width="3" stroke-linejoin="round"/>
  <line id="center-axis" x1="213.6" y1="0" x2="213.6" y2="251" stroke="#3b4350" stroke-width="1.5" stroke-dasharray="6 8"/>
  <line id="sleeve-bottom" x1="0" y1="251" x2="427" y2="251" stroke="#ff5a5f" stroke-width="3"/>
</svg>
