<svg xmlns="http://www.w3.org/2000/svg" viewBox="0 0 693 821" width="693" height="821">
  <path id="garment" d="M 654.5,78.8 L 653.1,78.1 L 647.9,75.6 L 640.1,71.9 L 631.0,67.7 L 621.8,63.5 L 612.7,59.4 L 603.5,55.4 L 594.2,51.4 L 585.0,47.5 L 575.7,43.7 L 566.4,40.0 L 557.0,36.3 L 552.3,34.4 L 547.7,32.6 L 538.3,29.1 L 528.9,25.6 L 519.4,22.2 L 509.9,18.8 L 500.4,15.5 L 490.9,12.3 L 481.4,9.2 L 471.8,6.1 L 462.2,3.1 L 453.5,0.4 L 452.1,0.0 L 451.4,1.3 L 449.1,5.2 L 448.4,6.4 L 435.6,20.6 L 434.4,21.5 L 433.2,22.3 L 431.2,23.7 L 406.7,34.6 L 380.3,38.3 L 378.8,38.3 L 377.3,38.3 L 348.0,38.3 L 346.5,38.3 L 345.0,38.3 L 315.7,38.3 L 314.2,38.3 L 312.7,38.3 L 286.3,34.6 L 261.8,23.7 L 244.6,6.4 L 243.9,5.2 L 241.6,1.3 L 240.9,0.0 L 239.5,0.4 L 230.8,3.1 L 221.2,6.1 L 211.6,9.2 L 202.1,12.3 L 192.6,15.5 L 183.1,18.8 L 173.6,22.2 L 164.1,25.6 L 154.7,29.1 L 145.3,32.6 L 140.7,34.4 L 136.0,36.3 L 126.6,40.0 L 117.3,43.7 L 108.0,47.5 L 98.8,51.4 L 89.5,55.4 L 80.3,59.4 L 71.2,63.5 L 62.0,67.7 L 52.9,71.9 L 45.1,75.6 L 39.9,78.1 L 38.5,78.8 L 38.9,80.2 L 40.0,84.4 L 40.4,85.9 L 49.9,124.9 L 55.6,165.8 L 57.4,200.4 L 56.0,237.5 L 53.4,267.6 L 48.4,289.6 L 40.0,309.3 L 29.4,320.6 L 12.3,324.8 L 10.8,324.6 L 1.5,323.4 L 0.0,323.2 L 0.0,821.3 L 346.5,821.3 L 693.0,821.3 L 693.0,323.2 L 691.5,323.4 L 682.2,324.6 L 680.7,324.8 L 663.6,320.6 L 653.0,309.3 L 644.6,289.6 L 639.6,267.6 L 637.0,237.5 L 635.6,200.4 L 637.4,165.8 L 643.1,124.9 L 652.6,85.9 L 653.0,84.4 L 654.1,80.2 L 654.5,78.8 Z" fill="#1b1f24" stroke="#5b6470" stroke-width="3" stroke-linejoin="round"/>
  <line id="center-axis" x1="346.5" y1="0" x2="346.5" y2="821" stroke="#3b4350" stroke-width="1.5" stroke-dasharray="6 8"/>
  <circle id="neckline-point" cx="346.5" cy="38.3" r="6" fill="#ff5a5f"/>
</svg>
