<svg xmlns="http://www.w3.org/2000/svg" viewBox="0 0 615 750" width="615" height="750">
  <path id="garment" d="M 586.9,67.5 L 585.6,66.9 L 580.0,64.3 L 572.4,60.8 L 563.3,56.7 L 554.3,52.7 L 545.2,48.9 L 536.1,45.0 L 527.0,41.3 L 517.8,37.7 L 508.6,34.1 L 499.4,30.7 L 494.7,28.9 L 490.1,27.3 L 480.8,24.0 L 471.5,20.7 L 462.1,17.6 L 452.7,14.5 L 443.3,11.6 L 433.9,8.7 L 424.4,5.9 L 414.9,3.2 L 406.8,0.9 L 405.3,0.5 L 403.4,0.0 L 403.0,1.4 L 401.4,7.2 L 401.0,8.7 L 391.4,38.5 L 378.1,68.1 L 359.1,92.7 L 335.9,109.4 L 309.0,114.0 L 307.5,113.9 L 306.0,114.0 L 279.1,109.4 L 255.9,92.7 L 236.9,68.1 L 223.6,38.5 L 214.0,8.7 L 213.6,7.2 L 212.0,1.4 L 211.6,0.0 L 209.7,0.5 L 208.2,0.9 L 200.1,3.2 L 190.6,5.9 L 181.1,8.7 L 171.7,11.6 L 162.3,14.5 L 152.9,17.6 L 143.5,20.7 L 134.2,24.0 L 124.9,27.3 L 120.3,28.9 L 115.6,30.7 L 106.4,34.1 L 97.2,37.7 L 88.0,41.3 L 78.9,45.0 L 69.8,48.9 L 60.7,52.7 L 51.7,56.7 L 42.6,60.8 L 35.0,64.3 L 29.4,66.9 L 28.1,67.5 L 28.5,68.9 L 29.9,73.4 L 30.4,74.8 L 38.5,102.6 L 45.8,142.9 L 48.7,171.6 L 49.6,206.9 L 47.9,239.7 L 44.7,259.9 L 44.3,261.4 L 43.8,262.8 L 37.2,277.2 L 27.1,288.9 L 17.1,293.1 L 10.8,293.2 L 9.3,293.4 L 1.5,294.1 L 0.0,294.3 L 0.0,745.3 L 1.5,745.3 L 11.5,745.3 L 40.8,745.4 L 70.1,745.8 L 99.4,746.4 L 128.8,747.0 L 158.2,747.8 L 187.7,748.5 L 217.2,749.2 L 246.8,749.8 L 276.4,750.1 L 306.0,750.3 L 307.5,750.3 L 309.0,750.3 L 338.6,750.1 L 368.2,749.8 L 397.8,749.2 L 427.3,748.5 L 456.8,747.8 L 486.2,747.0 L 515.6,746.4 L 544.9,745.8 L 574.2,745.4 L 603.5,745.3 L 613.5,745.3 L 615.0,745.3 L 615.0,294.3 L 613.5,294.1 L 605.7,293.4 L 604.2,293.2 L 597.9,293.1 L 587.9,288.9 L 577.8,277.2 L 571.2,262.8 L 570.7,261.4 L 570.3,259.9 L 567.1,239.7 L 565.4,206.9 L 566.3,171.6 L 569.2,142.9 L 576.5,102.6 L 584.6,74.8 L 585.1,73.4 L 586.5,68.9 L 586.9,67.5 Z" fill="#ffffff" stroke="#5b6470" stroke-width="3" stroke-linejoin="round"/>
  <line id="center-axis" x1="307.5" y1="0" x2="307.5" y2="750" stroke="#3b4350" stroke-width="1.5" stroke-dasharray="6 8"/>
  <circle id="neckline-point" cx="307.5" cy="114.0" r="6" fill="#ff5a5f"/>
</svg>
