<svg xmlns="http://www.w3.org/2000/svg" viewBox="0 0 703 822" width="703" height="822">
  <path id="garment" d="M 658.2,96.8 L 656.9,96.1 L 652.5,93.4 L 645.0,88.8 L 636.1,83.6 L 627.2,78.4 L 618.2,73.2 L 609.3,68.2 L 600.2,63.2 L 591.2,58.3 L 582.1,53.5 L 573.0,48.7 L 563.8,44.0 L 554.6,39.4 L 545.4,34.8 L 536.1,30.3 L 526.8,25.9 L 517.4,21.6 L 508.1,17.3 L 498.6,13.1 L 489.2,9.0 L 479.7,4.9 L 471.6,1.5 L 470.2,1.0 L 467.8,0.0 L 467.4,1.4 L 465.3,7.5 L 464.8,9.1 L 451.9,41.9 L 434.9,74.3 L 411.8,100.6 L 384.4,118.0 L 353.0,121.2 L 351.5,121.1 L 350.0,121.2 L 318.6,118.0 L 291.2,100.6 L 268.1,74.3 L 251.1,41.9 L 238.2,9.1 L 237.7,7.5 L 235.6,1.4 L 235.2,0.0 L 232.8,1.0 L 231.4,1.5 L 223.3,4.9 L 213.8,9.0 L 204.4,13.1 L 194.9,17.3 L 185.6,21.6 L 176.2,25.9 L 166.9,30.3 L 157.6,34.8 L 148.4,39.4 L 139.2,44.0 L 130.0,48.7 L 120.9,53.5 L 111.8,58.3 L 102.8,63.2 L 93.7,68.2 L 84.8,73.2 L 75.8,78.4 L 66.9,83.6 L 58.0,88.8 L 50.5,93.4 L 46.1,96.1 L 44.8,96.8 L 45.2,98.3 L 46.0,101.8 L 46.4,103.4 L 53.1,132.8 L 58.0,175.2 L 59.2,205.2 L 57.7,242.0 L 53.9,276.0 L 48.3,299.2 L 47.8,300.6 L 47.2,302.0 L 40.2,314.3 L 28.9,325.9 L 18.3,329.7 L 10.7,329.4 L 9.2,329.6 L 1.5,330.4 L 0.0,330.6 L 0.0,817.4 L 1.5,817.4 L 11.5,817.4 L 39.6,817.5 L 67.7,817.8 L 95.8,818.2 L 123.9,818.7 L 152.1,819.3 L 180.3,819.9 L 208.5,820.6 L 236.8,821.1 L 265.0,821.7 L 293.3,822.1 L 321.7,822.3 L 350.0,822.4 L 351.5,822.4 L 353.0,822.4 L 381.3,822.3 L 409.7,822.1 L 438.0,821.7 L 466.2,821.1 L 494.5,820.6 L 522.7,819.9 L 550.9,819.3 L 579.1,818.7 L 607.2,818.2 L 635.3,817.8 L 663.4,817.5 L 691.5,817.4 L 701.5,817.4 L 703.0,817.4 L 703.0,330.6 L 701.5,330.4 L 693.8,329.6 L 692.3,329.4 L 684.7,329.7 L 674.1,325.9 L 662.8,314.3 L 655.8,302.0 L 655.2,300.6 L 654.7,299.2 L 649.1,276.0 L 645.3,242.0 L 643.8,205.2 L 645.0,175.2 L 649.9,132.8 L 656.6,103.4 L 657.0,101.8 L 657.8,98.3 L 658.2,96.8 Z" fill="#ffffff" stroke="#5b6470" stroke-width="3" stroke-linejoin="round"/>
  <line id="center-axis" x1="351.5" y1="0" x2="351.5" y2="822" stroke="#3b4350" stroke-width="1.5" stroke-dasharray="6 8"/>
  <circle id="neckline-point" cx="351.5" cy="121.2" r="6" fill="#ff5a5f"/>
</svg>
