<svg xmlns="http://www.w3.org/2000/svg" viewBox="0 0 661 796" width="661" height="796">
  <path id="garment" d="M 624.4,76.5 L 623.1,75.8 L 617.9,73.3 L 610.2,69.5 L 601.1,65.2 L 592.0,61.0 L 582.8,56.8 L 573.6,52.7 L 564.4,48.7 L 555.1,44.7 L 545.9,40.8 L 536.6,37.0 L 527.2,33.3 L 517.9,29.7 L 508.5,26.1 L 499.0,22.6 L 489.6,19.2 L 480.1,15.8 L 470.6,12.5 L 461.1,9.3 L 451.5,6.2 L 441.9,3.2 L 433.1,0.4 L 431.7,0.0 L 430.9,1.3 L 428.7,5.3 L 428.0,6.6 L 415.4,20.6 L 414.2,21.5 L 413.0,22.4 L 411.8,23.2 L 388.3,33.6 L 362.9,37.1 L 361.4,37.1 L 359.9,37.1 L 332.0,37.1 L 330.5,37.1 L 329.0,37.1 L 301.1,37.1 L 299.6,37.1 L 298.1,37.1 L 272.7,33.6 L 249.2,23.2 L 233.0,6.6 L 232.3,5.3 L 230.1,1.3 L 229.3,0.0 L 227.9,0.4 L 219.1,3.2 L 209.5,6.2 L 199.9,9.3 L 190.4,12.5 L 180.9,15.8 L 171.4,19.2 L 162.0,22.6 L 152.5,26.1 L 143.1,29.7 L 133.8,33.3 L 124.4,37.0 L 115.1,40.8 L 105.9,44.7 L 96.6,48.7 L 87.4,52.7 L 78.2,56.8 L 69.0,61.0 L 59.9,65.2 L 50.8,69.5 L 43.1,73.3 L 37.9,75.8 L 36.6,76.5 L 37.0,77.9 L 38.1,82.1 L 38.5,83.6 L 48.0,121.7 L 53.7,161.7 L 55.7,195.6 L 54.5,231.9 L 52.0,261.4 L 47.3,282.9 L 39.1,302.2 L 28.9,313.3 L 12.2,317.4 L 10.8,317.3 L 1.5,316.1 L 0.0,315.9 L 0.0,796.1 L 330.5,796.1 L 661.0,796.1 L 661.0,315.9 L 659.5,316.1 L 650.2,317.3 L 648.8,317.4 L 632.1,313.3 L 621.9,302.2 L 613.7,282.9 L 609.0,261.4 L 606.5,231.9 L 605.3,195.6 L 607.3,161.7 L 613.0,121.7 L 622.5,83.6 L 622.9,82.1 L 624.0,77.9 L 624.4,76.5 Z" fill="#1b1f24" stroke="#5b6470" stroke-width="3" stroke-linejoin="round"/>
  <line id="center-axis" x1="330.5" y1="0" x2="330.5" y2="796" stroke="#3b4350" stroke-width="1.5" stroke-dasharray="6 8"/>
  <circle id="neckline-point" cx="330.5" cy="37.1" r="6" fill="#ff5a5f"/>
</svg>
