<svg xmlns="http://www.w3.org/2000/svg" viewBox="0 0 565 721" width="565" height="721">
  <path id="garment" d="M 538.2,71.1 L 536.9,70.4 L 531.8,67.7 L 523.9,63.6 L 514.7,58.9 L 505.5,54.3 L 496.2,49.7 L 486.8,45.3 L 477.5,41.0 L 468.0,36.8 L 458.6,32.7 L 453.8,30.7 L 449.0,28.7 L 439.5,24.8 L 429.9,21.0 L 420.2,17.3 L 410.6,13.7 L 400.8,10.2 L 391.1,6.8 L 381.2,3.5 L 371.7,0.5 L 370.2,0.0 L 369.6,1.4 L 367.5,6.1 L 366.9,7.4 L 354.9,20.9 L 353.7,21.8 L 352.5,22.6 L 333.3,30.7 L 310.9,33.7 L 309.4,33.7 L 307.9,33.7 L 284.0,33.7 L 282.5,33.7 L 281.0,33.7 L 257.1,33.7 L 255.6,33.7 L 254.1,33.7 L 231.7,30.7 L 211.2,21.7 L 198.1,7.4 L 197.5,6.1 L 195.4,1.4 L 194.8,0.0 L 193.3,0.5 L 183.8,3.5 L 173.9,6.8 L 164.2,10.2 L 154.4,13.7 L 144.8,17.3 L 135.1,21.0 L 125.5,24.8 L 116.0,28.7 L 111.2,30.7 L 106.4,32.7 L 97.0,36.8 L 87.5,41.0 L 78.2,45.3 L 68.8,49.7 L 59.5,54.3 L 50.3,58.9 L 41.1,63.6 L 33.2,67.7 L 28.1,70.4 L 26.8,71.1 L 27.2,72.6 L 28.5,76.7 L 28.9,78.1 L 38.9,113.2 L 45.4,150.2 L 48.2,181.7 L 48.2,215.5 L 46.8,243.0 L 43.1,263.1 L 36.0,281.2 L 27.0,291.7 L 11.9,295.9 L 10.6,295.8 L 1.5,295.0 L 0.0,294.8 L 0.0,720.7 L 282.5,720.7 L 565.0,720.7 L 565.0,294.8 L 563.5,295.0 L 554.4,295.8 L 553.1,295.9 L 538.0,291.7 L 529.0,281.2 L 521.9,263.1 L 518.2,243.0 L 516.8,215.5 L 516.8,181.7 L 519.6,150.2 L 526.1,113.2 L 536.1,78.1 L 536.5,76.7 L 537.8,72.6 L 538.2,71.1 Z" fill="#ffffff" stroke="#5b6470" stroke-width="3" stroke-linejoin="round"/>
  <line id="center-axis" x1="282.5" y1="0" x2="282.5" y2="721" stroke="#3b4350" stroke-width="1.5" stroke-dasharray="6 8"/>
  <circle id="neckline-point" cx="282.5" cy="33.7" r="6" fill="#ff5a5f"/>
</svg>
