<svg xmlns="http://www.w3.org/2000/svg" viewBox="0 0 645 784" width="645" height="784">
  <path id="garment" d="M 609.6,75.4 L 608.3,74.7 L 603.1,72.2 L 595.6,68.5 L 586.8,64.2 L 577.9,60.0 L 568.9,55.9 L 560.0,51.9 L 551.0,47.9 L 542.0,44.0 L 532.9,40.2 L 523.9,36.5 L 514.8,32.8 L 505.6,29.2 L 496.5,25.7 L 487.3,22.2 L 478.1,18.9 L 468.8,15.6 L 459.5,12.3 L 450.2,9.2 L 440.9,6.1 L 431.5,3.1 L 422.9,0.4 L 421.4,0.0 L 420.7,1.3 L 418.5,5.4 L 417.8,6.8 L 405.3,20.7 L 404.1,21.6 L 402.2,22.9 L 379.2,33.1 L 354.3,36.6 L 352.8,36.6 L 351.3,36.6 L 324.0,36.6 L 322.5,36.6 L 321.0,36.6 L 293.7,36.6 L 292.2,36.6 L 290.7,36.6 L 265.8,33.1 L 242.8,22.9 L 227.2,6.8 L 226.5,5.4 L 224.3,1.3 L 223.6,0.0 L 222.1,0.4 L 213.5,3.1 L 204.1,6.1 L 194.8,9.2 L 185.5,12.3 L 176.2,15.6 L 166.9,18.9 L 157.7,22.2 L 148.5,25.7 L 139.4,29.2 L 130.2,32.8 L 121.1,36.5 L 112.1,40.2 L 103.0,44.0 L 94.0,47.9 L 85.0,51.9 L 76.1,55.9 L 67.1,60.0 L 58.2,64.2 L 49.4,68.5 L 41.9,72.2 L 36.7,74.7 L 35.4,75.4 L 35.8,76.9 L 36.9,81.0 L 37.3,82.5 L 46.8,120.1 L 52.7,159.7 L 54.7,193.2 L 53.6,229.2 L 51.3,258.3 L 46.7,279.6 L 38.7,298.7 L 28.6,309.7 L 12.2,313.8 L 10.8,313.7 L 1.5,312.6 L 0.0,312.4 L 0.0,783.6 L 322.5,783.6 L 645.0,783.6 L 645.0,312.4 L 643.5,312.6 L 634.2,313.7 L 632.8,313.8 L 616.4,309.7 L 606.3,298.7 L 598.3,279.6 L 593.7,258.3 L 591.4,229.2 L 590.3,193.2 L 592.3,159.7 L 598.2,120.1 L 607.7,82.5 L 608.1,81.0 L 609.2,76.9 L 609.6,75.4 Z" fill="#ffffff" stroke="#5b6470" stroke-width="3" stroke-linejoin="round"/>
  <line id="center-axis" x1="322.5" y1="0" x2="322.5" y2="784" stroke="#3b4350" stroke-width="1.5" stroke-dasharray="6 8"/>
  <circle id="neckline-point" cx="322.5" cy="36.6" r="6" fill="#ff5a5f"/>
</svg>
