<svg xmlns="http://www.w3.org/2000/svg" viewBox="0 0 725 840" width="725" height="840">
  <path id="garment" d="M 676.1,103.9 L 674.9,103.1 L 670.7,100.5 L 663.5,95.9 L 655.0,90.5 L 646.4,85.2 L 637.8,80.0 L 629.2,74.8 L 620.5,69.8 L 611.8,64.7 L 603.1,59.8 L 594.3,54.9 L 585.5,50.0 L 581.1,47.6 L 576.6,45.3 L 567.8,40.6 L 558.9,35.9 L 549.9,31.3 L 540.9,26.8 L 531.9,22.4 L 522.9,18.0 L 513.8,13.7 L 504.7,9.4 L 495.5,5.2 L 487.7,1.7 L 486.3,1.1 L 483.9,0.0 L 483.4,1.4 L 481.3,7.5 L 480.7,9.2 L 467.1,42.7 L 449.1,75.9 L 424.9,102.6 L 396.5,120.1 L 365.2,123.2 L 364.0,123.0 L 362.5,122.8 L 361.0,123.0 L 359.8,123.2 L 328.5,120.1 L 300.1,102.6 L 275.9,75.9 L 257.9,42.7 L 244.3,9.2 L 243.7,7.5 L 241.6,1.4 L 241.1,0.0 L 238.7,1.1 L 237.3,1.7 L 229.5,5.2 L 220.3,9.4 L 211.2,13.7 L 202.1,18.0 L 193.1,22.4 L 184.1,26.8 L 175.1,31.3 L 166.1,35.9 L 157.2,40.6 L 148.4,45.3 L 143.9,47.6 L 139.5,50.0 L 130.7,54.9 L 121.9,59.8 L 113.2,64.7 L 104.5,69.8 L 95.8,74.8 L 87.2,80.0 L 78.6,85.2 L 70.0,90.5 L 61.5,95.9 L 54.3,100.5 L 50.1,103.1 L 48.9,103.9 L 49.2,105.4 L 50.0,108.7 L 50.4,110.3 L 56.7,140.2 L 61.0,183.2 L 61.7,213.6 L 59.7,250.8 L 55.3,285.1 L 49.3,308.6 L 48.5,310.5 L 47.9,311.8 L 40.9,323.8 L 29.2,335.4 L 18.4,339.0 L 10.8,338.6 L 9.3,338.8 L 1.5,339.6 L 0.0,339.7 L 0.0,835.5 L 1.5,835.5 L 11.5,835.5 L 40.5,835.6 L 69.5,835.8 L 98.6,836.3 L 127.6,836.8 L 156.7,837.4 L 185.8,838.0 L 215.0,838.6 L 244.1,839.2 L 273.3,839.7 L 302.5,840.1 L 331.7,840.4 L 361.0,840.5 L 362.5,840.5 L 364.0,840.5 L 393.3,840.4 L 422.5,840.1 L 451.7,839.7 L 480.9,839.2 L 510.0,838.6 L 539.2,838.0 L 568.3,837.4 L 597.4,836.8 L 626.4,836.3 L 655.5,835.8 L 684.5,835.6 L 713.5,835.5 L 723.5,835.5 L 725.0,835.5 L 725.0,339.7 L 723.5,339.6 L 715.7,338.8 L 714.2,338.6 L 706.6,339.0 L 695.8,335.4 L 684.1,323.8 L 677.1,311.8 L 676.5,310.5 L 675.7,308.6 L 669.7,285.1 L 665.3,250.8 L 663.3,213.6 L 664.0,183.2 L 668.3,140.2 L 674.6,110.3 L 675.0,108.7 L 675.8,105.4 L 676.1,103.9 Z" fill="#1b1f24" stroke="#5b6470" stroke-width="3" stroke-linejoin="round"/>
  <line id="center-axis" x1="362.5" y1="0" x2="362.5" y2="840" stroke="#3b4350" stroke-width="1.5" stroke-dasharray="6 8"/>
  <circle id="neckline-point" cx="362.5" cy="123.2" r="6" fill="#ff5a5f"/>
</svg>
