<svg xmlns="http://www.w3.org/2000/svg" viewBox="0 0 498 323" width="498" height="323">
  <path id="garment" d="M 497.8,129.5 L 496.4,129.1 L 489.0,126.9 L 456.0,115.8 L 428.1,101.5 L 397.9,81.3 L 374.9,62.4 L 352.6,44.4 L 330.4,27.3 L 304.8,13.2 L 278.6,3.6 L 250.5,0.0 L 249.0,0.0 L 247.7,0.0 L 214.2,4.0 L 193.2,12.7 L 172.0,24.5 L 146.6,42.9 L 123.3,62.9 L 100.7,80.1 L 69.5,101.2 L 63.7,105.0 L 62.5,105.8 L 61.2,106.6 L 33.4,121.0 L 9.7,126.7 L 1.5,128.3 L 0.0,128.6 L 27.7,292.3 L 21.5,311.9 L 23.0,312.0 L 36.6,313.0 L 63.0,314.8 L 89.4,316.7 L 115.9,318.4 L 142.4,319.9 L 169.0,321.2 L 195.6,322.2 L 222.3,322.8 L 247.5,323.0 L 249.0,323.0 L 250.5,323.0 L 275.7,322.8 L 302.4,322.2 L 329.0,321.2 L 355.6,319.9 L 382.1,318.4 L 408.6,316.7 L 435.0,314.8 L 461.4,313.0 L 475.0,312.0 L 476.5,311.9 L 470.3,292.3 L 497.8,129.5 Z" fill="#ffffff" stroke="#5b6470" stroke-width="3" stroke-linejoin="round"/>
  <line id="center-axis" x1="249.0" y1="0" x2="249.0" y2="323" stroke="#3b4350" stroke-width="1.5" stroke-dasharray="6 8"/>
  <line id="sleeve-bottom" x1="0" y1="323" x2="498" y2="323" stroke="#ff5a5f" stroke-width="3"/>
</svg>
