<svg xmlns="http://www.w3.org/2000/svg" viewBox="0 0 474 299" width="474" height="299">
  <path id="garment" d="M 474.1,125.8 L 472.7,125.4 L 465.2,123.1 L 433.8,112.2 L 407.4,98.4 L 378.7,78.9 L 357.0,60.6 L 335.9,43.3 L 314.8,26.7 L 290.5,13.0 L 265.5,3.7 L 238.7,0.0 L 237.2,0.0 L 235.9,0.0 L 203.8,4.1 L 183.8,12.6 L 163.6,24.1 L 139.5,41.9 L 117.5,61.1 L 96.1,77.7 L 66.5,98.1 L 63.4,100.2 L 62.1,101.0 L 60.9,101.9 L 32.3,117.3 L 9.8,122.9 L 1.5,124.6 L 0.0,124.9 L 27.8,268.2 L 20.8,287.8 L 22.3,287.9 L 36.6,289.0 L 65.1,291.1 L 93.6,293.1 L 122.2,295.0 L 150.8,296.6 L 179.5,297.9 L 208.3,298.7 L 235.6,299.0 L 237.1,299.0 L 238.6,299.0 L 266.0,298.7 L 294.7,297.9 L 323.4,296.6 L 352.1,295.0 L 380.7,293.1 L 409.2,291.1 L 437.6,289.0 L 451.9,287.9 L 453.4,287.8 L 446.5,268.2 L 474.1,125.8 Z" fill="#ffffff" stroke="#5b6470" stroke-width="3" stroke-linejoin="round"/>
  <line id="center-axis" x1="237.1" y1="0" x2="237.1" y2="299" stroke="#3b4350" stroke-width="1.5" stroke-dasharray="6 8"/>
  <line id="sleeve-bottom" x1="0" y1="299" x2="474" y2="299" stroke="#ff5a5f" stroke-width="3"/>
</svg>
