<svg xmlns="http://www.w3.org/2000/svg" viewBox="0 0 522 347" width="522" height="347">
  <path id="garment" d="M 521.6,133.3 L 520.2,132.9 L 512.8,130.8 L 478.2,119.4 L 448.8,104.7 L 417.0,83.8 L 392.9,64.2 L 369.4,45.6 L 346.0,27.8 L 319.2,13.3 L 291.8,3.5 L 262.4,0.0 L 260.9,0.0 L 259.6,0.0 L 224.6,3.9 L 202.6,12.8 L 180.3,25.0 L 153.6,44.0 L 129.2,64.7 L 105.4,82.5 L 72.5,104.4 L 64.1,109.7 L 62.8,110.5 L 61.6,111.3 L 34.5,124.8 L 9.6,130.6 L 1.5,132.1 L 0.0,132.4 L 27.7,316.4 L 21.9,336.0 L 23.4,336.1 L 36.5,337.0 L 64.4,338.9 L 92.4,340.7 L 120.4,342.4 L 148.4,343.9 L 176.4,345.2 L 204.5,346.2 L 232.7,346.8 L 259.4,347.0 L 260.9,347.0 L 262.4,347.0 L 289.1,346.8 L 317.2,346.2 L 345.3,345.2 L 373.4,343.9 L 401.4,342.4 L 429.4,340.7 L 457.3,338.9 L 485.2,337.0 L 498.3,336.1 L 499.8,336.0 L 494.1,316.4 L 521.6,133.3 Z" fill="#1b1f24" stroke="#5b6470" stroke-width="3" stroke-linejoin="round"/>
  <line id="center-axis" x1="260.9" y1="0" x2="260.9" y2="347" stroke="#3b4350" stroke-width="1.5" stroke-dasharray="6 8"/>
  <line id="sleeve-bottom" x1="0" y1="347" x2="522" y2="347" stroke="#ff5a5f" stroke-width="3"/>
</svg>
