<svg xmlns="http://www.w3.org/2000/svg" viewBox="0 0 486 311" width="486" height="311">
  <path id="garment" d="M 486.0,127.6 L 484.5,127.2 L 477.1,125.0 L 444.9,114.0 L 417.7,99.9 L 388.3,80.1 L 366.0,61.5 L 344.2,43.9 L 322.6,27.0 L 297.6,13.1 L 272.0,3.7 L 244.6,0.0 L 243.1,0.0 L 241.8,0.0 L 209.0,4.0 L 188.5,12.6 L 167.8,24.3 L 143.0,42.4 L 120.4,62.0 L 98.4,78.9 L 68.0,99.6 L 63.5,102.6 L 62.3,103.4 L 61.0,104.2 L 32.8,119.1 L 9.7,124.8 L 1.5,126.4 L 0.0,126.7 L 27.8,280.3 L 21.2,299.8 L 22.7,299.9 L 36.6,301.0 L 65.9,303.1 L 95.3,305.1 L 124.7,307.0 L 154.2,308.6 L 183.8,309.9 L 213.4,310.7 L 241.6,311.0 L 243.1,311.0 L 244.6,311.0 L 272.7,310.7 L 302.3,309.9 L 331.9,308.6 L 361.4,307.0 L 390.8,305.1 L 420.2,303.1 L 449.5,301.0 L 463.5,299.9 L 465.0,299.8 L 458.4,280.3 L 486.0,127.6 Z" fill="#ffffff" stroke="#5b6470" stroke-width="3" stroke-linejoin="round"/>
  <line id="center-axis" x1="243.1" y1="0" x2="243.1" y2="311" stroke="#3b4350" stroke-width="1.5" stroke-dasharray="6 8"/>
  <line id="sleeve-bottom" x1="0" y1="311" x2="486" y2="311" stroke="#ff5a5f" stroke-width="3"/>
</svg>
