<svg xmlns="http://www.w3.org/2000/svg" viewBox="0 0 677 809" width="677" height="809">
  <path id="garment" d="M 639.4,77.6 L 638.0,76.9 L 632.8,74.4 L 624.9,70.6 L 615.5,66.2 L 606.2,61.9 L 596.8,57.7 L 587.3,53.5 L 577.9,49.5 L 568.4,45.4 L 558.9,41.5 L 549.3,37.7 L 539.8,33.9 L 530.2,30.2 L 520.5,26.5 L 510.9,23.0 L 501.2,19.5 L 491.4,16.1 L 481.7,12.7 L 471.9,9.5 L 462.1,6.3 L 452.3,3.2 L 443.3,0.4 L 441.9,0.0 L 441.2,1.3 L 438.9,5.2 L 438.2,6.5 L 425.5,20.6 L 424.3,21.5 L 423.1,22.4 L 421.5,23.4 L 397.5,34.1 L 371.6,37.7 L 370.1,37.7 L 368.6,37.7 L 340.0,37.7 L 338.5,37.7 L 337.0,37.7 L 308.4,37.7 L 306.9,37.7 L 305.4,37.7 L 279.5,34.1 L 255.5,23.4 L 238.8,6.5 L 238.1,5.2 L 235.8,1.3 L 235.1,0.0 L 233.7,0.4 L 224.7,3.2 L 214.9,6.3 L 205.1,9.5 L 195.3,12.7 L 185.6,16.1 L 175.8,19.5 L 166.1,23.0 L 156.5,26.5 L 146.8,30.2 L 137.2,33.9 L 127.7,37.7 L 118.1,41.5 L 108.6,45.4 L 99.1,49.5 L 89.7,53.5 L 80.2,57.7 L 70.8,61.9 L 61.5,66.2 L 52.1,70.6 L 44.2,74.4 L 39.0,76.9 L 37.6,77.6 L 38.0,79.0 L 39.1,83.2 L 39.5,84.8 L 49.0,123.2 L 54.7,163.7 L 56.6,197.9 L 55.3,234.7 L 52.7,264.4 L 47.9,286.2 L 39.5,305.7 L 29.1,316.9 L 12.3,321.0 L 10.9,320.9 L 1.5,319.7 L 0.0,319.5 L 0.0,808.7 L 338.5,808.7 L 677.0,808.7 L 677.0,319.5 L 675.5,319.7 L 666.1,320.9 L 664.7,321.0 L 647.9,316.9 L 637.5,305.7 L 629.1,286.2 L 624.3,264.4 L 621.7,234.7 L 620.4,197.9 L 622.3,163.7 L 628.0,123.2 L 637.5,84.8 L 637.9,83.2 L 639.0,79.0 L 639.4,77.6 Z" fill="#1b1f24" stroke="#5b6470" stroke-width="3" stroke-linejoin="round"/>
  <line id="center-axis" x1="338.5" y1="0" x2="338.5" y2="809" stroke="#3b4350" stroke-width="1.5" stroke-dasharray="6 8"/>
  <circle id="neckline-point" cx="338.5" cy="37.7" r="6" fill="#ff5a5f"/>
</svg>
