<svg xmlns="http://www.w3.org/2000/svg" viewBox="0 0 629 771" width="629" height="771">
  <path id="garment" d="M 595.0,74.4 L 593.6,73.7 L 588.5,71.1 L 580.8,67.3 L 571.7,62.9 L 562.5,58.5 L 553.4,54.3 L 544.2,50.1 L 535.0,46.0 L 525.7,42.0 L 516.4,38.0 L 507.1,34.2 L 502.4,32.3 L 497.7,30.4 L 488.3,26.7 L 478.9,23.1 L 469.4,19.6 L 459.9,16.2 L 450.4,12.8 L 440.8,9.5 L 431.2,6.4 L 421.6,3.3 L 412.7,0.4 L 411.2,0.0 L 410.5,1.3 L 408.3,5.5 L 407.6,6.9 L 395.2,20.7 L 394.0,21.6 L 392.5,22.7 L 370.0,32.6 L 345.6,36.0 L 344.1,36.0 L 342.6,36.0 L 316.0,36.0 L 314.5,36.0 L 313.0,36.0 L 286.4,36.0 L 284.9,36.0 L 283.4,36.0 L 259.0,32.6 L 236.5,22.7 L 221.4,6.9 L 220.7,5.5 L 218.5,1.3 L 217.8,0.0 L 216.3,0.4 L 207.4,3.3 L 197.8,6.4 L 188.2,9.5 L 178.6,12.8 L 169.1,16.2 L 159.6,19.6 L 150.1,23.1 L 140.7,26.7 L 131.3,30.4 L 126.6,32.3 L 121.9,34.2 L 112.6,38.0 L 103.3,42.0 L 94.0,46.0 L 84.8,50.1 L 75.6,54.3 L 66.5,58.5 L 57.3,62.9 L 48.2,67.3 L 40.5,71.1 L 35.4,73.7 L 34.0,74.4 L 34.4,75.9 L 35.6,80.0 L 36.0,81.5 L 45.5,118.6 L 51.5,157.7 L 53.6,190.9 L 52.7,226.4 L 50.5,255.2 L 46.1,276.4 L 38.2,295.2 L 28.3,306.1 L 12.2,310.2 L 10.8,310.1 L 1.5,309.0 L 0.0,308.8 L 0.0,771.0 L 314.5,771.0 L 629.0,771.0 L 629.0,308.8 L 627.5,309.0 L 618.2,310.1 L 616.8,310.2 L 600.7,306.1 L 590.8,295.2 L 582.9,276.4 L 578.5,255.2 L 576.3,226.4 L 575.4,190.9 L 577.5,157.7 L 583.5,118.6 L 593.0,81.5 L 593.4,80.0 L 594.6,75.9 L 595.0,74.4 Z" fill="#ffffff" stroke="#5b6470" stroke-width="3" stroke-linejoin="round"/>
  <line id="center-axis" x1="314.5" y1="0" x2="314.5" y2="771" stroke="#3b4350" stroke-width="1.5" stroke-dasharray="6 8"/>
  <circle id="neckline-point" cx="314.5" cy="36.0" r="6" fill="#ff5a5f"/>
</svg>
