<svg xmlns="http://www.w3.org/2000/svg" viewBox="0 0 1649.6 797.9" width="1649.6" height="797.9">
<g id="garment" fill="#d8d8d9">
  <path d="M 70.6,480.3 C 70.4,480.3 70.2,480.2 70.1,480 L 20.4,380.4 C 20.3,380.2 20.3,380 20.5,379.8 L 67.7,332.1 C 67.8,332 67.9,332 68,332 C 68.1,332 68.1,332 68.1,332 C 68.3,332 68.4,332.1 68.5,332.2 L 134.9,472.9 C 135,473 135,473.2 134.9,473.3 C 134.8,473.5 134.7,473.6 134.5,473.6 L 70.6,480.3 C 70.6,480.3 70.6,480.3 70.6,480.3" />
  <path d="M 68,331.5 C 67.8,331.5 67.5,331.6 67.3,331.8 L 20.1,379.4 C 19.8,379.8 19.8,380.2 19.9,380.6 L 69.7,480.3 C 69.8,480.6 70.2,480.8 70.5,480.8 C 70.6,480.8 70.6,480.8 70.7,480.8 L 134.5,474.1 C 134.9,474.1 135.2,473.9 135.3,473.6 C 135.5,473.3 135.5,473 135.4,472.7 L 69,332 C 68.8,331.7 68.5,331.5 68.2,331.5 C 68.2,331.5 68.1,331.5 68,331.5 M 68,332.5 L 134.4,473.1 L 70.6,479.8 L 20.8,380.2 L 68,332.5" fill="#010303"/>
  <path d="M 146.2,469.7 L 51.7,497" fill="none" stroke="#858688" stroke-width="0.71" stroke-linecap="round" stroke-linejoin="round"/>
  <path d="M 141.8,460.9 L 48.5,491.1" fill="none" stroke="#858688" stroke-width="0.71" stroke-linecap="round" stroke-linejoin="round"/>
  <path d="M 137.4,452.1 L 45.3,485.1" fill="none" stroke="#858688" stroke-width="0.71" stroke-linecap="round" stroke-linejoin="round"/>
  <path d="M 133,443.3 L 42,479.1" fill="none" stroke="#858688" stroke-width="0.71" stroke-linecap="round" stroke-linejoin="round"/>
  <path d="M 128.5,434.5 L 38.8,473.1" fill="none" stroke="#858688" stroke-width="0.71" stroke-linecap="round" stroke-linejoin="round"/>
  <path d="M 124.1,425.7 L 35.6,467.1" fill="none" stroke="#858688" stroke-width="0.71" stroke-linecap="round" stroke-linejoin="round"/>
  <path d="M 119.7,416.9 L 32.3,461.1" fill="none" stroke="#858688" stroke-width="0.71" stroke-linecap="round" stroke-linejoin="round"/>
  <path d="M 115.3,408.1 L 29.1,455.1" fill="none" stroke="#858688" stroke-width="0.71" stroke-linecap="round" stroke-linejoin="round"/>
  <path d="M 110.9,399.3 L 25.9,449.1" fill="none" stroke="#858688" stroke-width="0.71" stroke-linecap="round" stroke-linejoin="round"/>
  <path d="M 106.4,390.5 L 22.6,443.1" fill="none" stroke="#858688" stroke-width="0.71" stroke-linecap="round" stroke-linejoin="round"/>
  <path d="M 102,381.7 L 19.4,437.2" fill="none" stroke="#858688" stroke-width="0.71" stroke-linecap="round" stroke-linejoin="round"/>
  <path d="M 97.6,372.9 L 16.2,431.2" fill="none" stroke="#858688" stroke-width="0.71" stroke-linecap="round" stroke-linejoin="round"/>
  <path d="M 93.2,364.1 L 12.9,425.2" fill="none" stroke="#858688" stroke-width="0.71" stroke-linecap="round" stroke-linejoin="round"/>
  <path d="M 88.8,355.3 L 9.7,419.2" fill="none" stroke="#858688" stroke-width="0.71" stroke-linecap="round" stroke-linejoin="round"/>
  <path d="M 84.3,346.5 L 6.5,413.2" fill="none" stroke="#858688" stroke-width="0.71" stroke-linecap="round" stroke-linejoin="round"/>
  <path d="M 79.9,337.7 L 3.2,407.2" fill="none" stroke="#858688" stroke-width="0.71" stroke-linecap="round" stroke-linejoin="round"/>
  <path d="M 75.5,328.9 L 0,401.2" fill="none" stroke="#858688" stroke-width="0.71" stroke-linecap="round" stroke-linejoin="round"/>
  <path d="M 1125.9,737.9 L 1114.5,794.5 C 1114.1,796.5 1111.6,797.9 1108.6,797.9 L 541.2,797.9 C 538.2,797.9 535.6,796.5 535.2,794.5 L 523.9,737.9 L 1125.9,737.9" stroke="#010303" stroke-width="1" stroke-linecap="round" stroke-linejoin="round"/>
  <path d="M 530.5,737.9 L 542.5,797.9" fill="none" stroke="#858688" stroke-width="0.71" stroke-linecap="round" stroke-linejoin="round"/>
  <path d="M 537.1,737.9 L 548.8,797.9" fill="none" stroke="#858688" stroke-width="0.71" stroke-linecap="round" stroke-linejoin="round"/>
  <path d="M 543.7,737.9 L 555.2,797.9" fill="none" stroke="#858688" stroke-width="0.71" stroke-linecap="round" stroke-linejoin="round"/>
  <path d="M 550.4,737.9 L 561.5,797.9" fill="none" stroke="#858688" stroke-width="0.71" stroke-linecap="round" stroke-linejoin="round"/>
  <path d="M 557,737.9 L 567.9,797.9" fill="none" stroke="#858688" stroke-width="0.71" stroke-linecap="round" stroke-linejoin="round"/>
  <path d="M 563.6,737.9 L 574.2,797.9" fill="none" stroke="#858688" stroke-width="0.71" stroke-linecap="round" stroke-linejoin="round"/>
  <path d="M 570.2,737.9 L 580.6,797.9" fill="none" stroke="#858688" stroke-width="0.71" stroke-linecap="round" stroke-linejoin="round"/>
  <path d="M 576.8,737.9 L 586.9,797.9" fill="none" stroke="#858688" stroke-width="0.71" stroke-linecap="round" stroke-linejoin="round"/>
  <path d="M 583.4,737.9 L 593.3,797.9" fill="none" stroke="#858688" stroke-width="0.71" stroke-linecap="round" stroke-linejoin="round"/>
  <path d="M 590.1,737.9 L 599.6,797.9" fill="none" stroke="#858688" stroke-width="0.71" stroke-linecap="round" stroke-linejoin="round"/>
  <path d="M 596.7,737.9 L 606,797.9" fill="none" stroke="#858688" stroke-width="0.71" stroke-linecap="round" stroke-linejoin="round"/>
  <path d="M 603.3,737.9 L 612.3,797.9" fill="none" stroke="#858688" stroke-width="0.71" stroke-linecap="round" stroke-linejoin="round"/>
  <path d="M 609.9,737.9 L 618.7,797.9" fill="none" stroke="#858688" stroke-width="0.71" stroke-linecap="round" stroke-linejoin="round"/>
  <path d="M 616.5,737.9 L 625,797.9" fill="none" stroke="#858688" stroke-width="0.71" stroke-linecap="round" stroke-linejoin="round"/>
  <path d="M 623.1,737.9 L 631.4,797.9" fill="none" stroke="#858688" stroke-width="0.71" stroke-linecap="round" stroke-linejoin="round"/>
  <path d="M 629.7,737.9 L 637.7,797.9" fill="none" stroke="#858688" stroke-width="0.71" stroke-linecap="round" stroke-linejoin="round"/>
  <path d="M 636.4,737.9 L 644.1,797.9" fill="none" stroke="#858688" stroke-width="0.71" stroke-linecap="round" stroke-linejoin="round"/>
  <path d="M 643,737.9 L 650.4,797.9" fill="none" stroke="#858688" stroke-width="0.71" stroke-linecap="round" stroke-linejoin="round"/>
  <path d="M 649.6,737.9 L 656.8,797.9" fill="none" stroke="#858688" stroke-width="0.71" stroke-linecap="round" stroke-linejoin="round"/>
  <path d="M 656.2,737.9 L 663.1,797.9" fill="none" stroke="#858688" stroke-width="0.71" stroke-linecap="round" stroke-linejoin="round"/>
  <path d="M 662.8,737.9 L 669.5,797.9" fill="none" stroke="#858688" stroke-width="0.71" stroke-linecap="round" stroke-linejoin="round"/>
  <path d="M 669.4,737.9 L 675.8,797.9" fill="none" stroke="#858688" stroke-width="0.71" stroke-linecap="round" stroke-linejoin="round"/>
  <path d="M 676.1,737.9 L 682.2,797.9" fill="none" stroke="#858688" stroke-width="0.71" stroke-linecap="round" stroke-linejoin="round"/>
  <path d="M 682.7,737.9 L 688.5,797.9" fill="none" stroke="#858688" stroke-width="0.71" stroke-linecap="round" stroke-linejoin="round"/>
  <path d="M 689.3,737.9 L 694.9,797.9" fill="none" stroke="#858688" stroke-width="0.71" stroke-linecap="round" stroke-linejoin="round"/>
  <path d="M 695.9,737.9 L 701.2,797.9" fill="none" stroke="#858688" stroke-width="0.71" stroke-linecap="round" stroke-linejoin="round"/>
  <path d="M 702.5,737.9 L 707.6,797.9" fill="none" stroke="#858688" stroke-width="0.71" stroke-linecap="round" stroke-linejoin="round"/>
  <path d="M 709.1,737.9 L 713.9,797.9" fill="none" stroke="#858688" stroke-width="0.71" stroke-linecap="round" stroke-linejoin="round"/>
  <path d="M 715.7,737.9 L 720.3,797.9" fill="none" stroke="#858688" stroke-width="0.71" stroke-linecap="round" stroke-linejoin="round"/>
  <path d="M 722.4,737.9 L 726.6,797.9" fill="none" stroke="#858688" stroke-width="0.71" stroke-linecap="round" stroke-linejoin="round"/>
  <path d="M 729,737.9 L 733,797.9" fill="none" stroke="#858688" stroke-width="0.71" stroke-linecap="round" stroke-linejoin="round"/>
  <path d="M 735.6,737.9 L 739.3,797.9" fill="none" stroke="#858688" stroke-width="0.71" stroke-linecap="round" stroke-linejoin="round"/>
  <path d="M 742.2,737.9 L 745.7,797.9" fill="none" stroke="#858688" stroke-width="0.71" stroke-linecap="round" stroke-linejoin="round"/>
  <path d="M 748.8,737.9 L 752,797.9" fill="none" stroke="#858688" stroke-width="0.71" stroke-linecap="round" stroke-linejoin="round"/>
  <path d="M 755.4,737.9 L 758.4,797.9" fill="none" stroke="#858688" stroke-width="0.71" stroke-linecap="round" stroke-linejoin="round"/>
  <path d="M 762.1,737.9 L 764.7,797.9" fill="none" stroke="#858688" stroke-width="0.71" stroke-linecap="round" stroke-linejoin="round"/>
  <path d="M 768.7,737.9 L 771.1,797.9" fill="none" stroke="#858688" stroke-width="0.71" stroke-linecap="round" stroke-linejoin="round"/>
  <path d="M 775.3,737.9 L 777.4,797.9" fill="none" stroke="#858688" stroke-width="0.71" stroke-linecap="round" stroke-linejoin="round"/>
  <path d="M 781.9,737.9 L 783.8,797.9" fill="none" stroke="#858688" stroke-width="0.71" stroke-linecap="round" stroke-linejoin="round"/>
  <path d="M 788.5,737.9 L 790.1,797.9" fill="none" stroke="#858688" stroke-width="0.71" stroke-linecap="round" stroke-linejoin="round"/>
  <path d="M 795.1,737.9 L 796.5,797.9" fill="none" stroke="#858688" stroke-width="0.71" stroke-linecap="round" stroke-linejoin="round"/>
  <path d="M 801.7,737.9 L 802.8,797.9" fill="none" stroke="#858688" stroke-width="0.71" stroke-linecap="round" stroke-linejoin="round"/>
  <path d="M 808.4,737.9 L 809.2,797.9" fill="none" stroke="#858688" stroke-width="0.71" stroke-linecap="round" stroke-linejoin="round"/>
  <path d="M 815,737.9 L 815.5,797.9" fill="none" stroke="#858688" stroke-width="0.71" stroke-linecap="round" stroke-linejoin="round"/>
  <path d="M 821.6,737.9 L 821.9,797.9" fill="none" stroke="#858688" stroke-width="0.71" stroke-linecap="round" stroke-linejoin="round"/>
  <path d="M 828.2,737.9 L 828.2,797.9" fill="none" stroke="#858688" stroke-width="0.71" stroke-linecap="round" stroke-linejoin="round"/>
  <path d="M 834.8,737.9 L 834.6,797.9" fill="none" stroke="#858688" stroke-width="0.71" stroke-linecap="round" stroke-linejoin="round"/>
  <path d="M 841.4,737.9 L 840.9,797.9" fill="none" stroke="#858688" stroke-width="0.71" stroke-linecap="round" stroke-linejoin="round"/>
  <path d="M 848.1,737.9 L 847.3,797.9" fill="none" stroke="#858688" stroke-width="0.71" stroke-linecap="round" stroke-linejoin="round"/>
  <path d="M 854.7,737.9 L 853.6,797.9" fill="none" stroke="#858688" stroke-width="0.71" stroke-linecap="round" stroke-linejoin="round"/>
  <path d="M 861.3,737.9 L 860,797.9" fill="none" stroke="#858688" stroke-width="0.71" stroke-linecap="round" stroke-linejoin="round"/>
  <path d="M 867.9,737.9 L 866.3,797.9" fill="none" stroke="#858688" stroke-width="0.71" stroke-linecap="round" stroke-linejoin="round"/>
  <path d="M 874.5,737.9 L 872.7,797.9" fill="none" stroke="#858688" stroke-width="0.71" stroke-linecap="round" stroke-linejoin="round"/>
  <path d="M 881.1,737.9 L 879,797.9" fill="none" stroke="#858688" stroke-width="0.71" stroke-linecap="round" stroke-linejoin="round"/>
  <path d="M 887.7,737.9 L 885.4,797.9" fill="none" stroke="#858688" stroke-width="0.71" stroke-linecap="round" stroke-linejoin="round"/>
  <path d="M 894.4,737.9 L 891.7,797.9" fill="none" stroke="#858688" stroke-width="0.71" stroke-linecap="round" stroke-linejoin="round"/>
  <path d="M 901,737.9 L 898.1,797.9" fill="none" stroke="#858688" stroke-width="0.71" stroke-linecap="round" stroke-linejoin="round"/>
  <path d="M 907.6,737.9 L 904.4,797.9" fill="none" stroke="#858688" stroke-width="0.71" stroke-linecap="round" stroke-linejoin="round"/>
  <path d="M 914.2,737.9 L 910.8,797.9" fill="none" stroke="#858688" stroke-width="0.71" stroke-linecap="round" stroke-linejoin="round"/>
  <path d="M 920.8,737.9 L 917.1,797.9" fill="none" stroke="#858688" stroke-width="0.71" stroke-linecap="round" stroke-linejoin="round"/>
  <path d="M 927.4,737.9 L 923.5,797.9" fill="none" stroke="#858688" stroke-width="0.71" stroke-linecap="round" stroke-linejoin="round"/>
  <path d="M 934,737.9 L 929.8,797.9" fill="none" stroke="#858688" stroke-width="0.71" stroke-linecap="round" stroke-linejoin="round"/>
  <path d="M 940.7,737.9 L 936.2,797.9" fill="none" stroke="#858688" stroke-width="0.71" stroke-linecap="round" stroke-linejoin="round"/>
  <path d="M 947.3,737.9 L 942.5,797.9" fill="none" stroke="#858688" stroke-width="0.71" stroke-linecap="round" stroke-linejoin="round"/>
  <path d="M 953.9,737.9 L 948.9,797.9" fill="none" stroke="#858688" stroke-width="0.71" stroke-linecap="round" stroke-linejoin="round"/>
  <path d="M 960.5,737.9 L 955.2,797.9" fill="none" stroke="#858688" stroke-width="0.71" stroke-linecap="round" stroke-linejoin="round"/>
  <path d="M 967.1,737.9 L 961.6,797.9" fill="none" stroke="#858688" stroke-width="0.71" stroke-linecap="round" stroke-linejoin="round"/>
  <path d="M 973.7,737.9 L 967.9,797.9" fill="none" stroke="#858688" stroke-width="0.71" stroke-linecap="round" stroke-linejoin="round"/>
  <path d="M 980.4,737.9 L 974.3,797.9" fill="none" stroke="#858688" stroke-width="0.71" stroke-linecap="round" stroke-linejoin="round"/>
  <path d="M 987,737.9 L 980.6,797.9" fill="none" stroke="#858688" stroke-width="0.71" stroke-linecap="round" stroke-linejoin="round"/>
  <path d="M 993.6,737.9 L 987,797.9" fill="none" stroke="#858688" stroke-width="0.71" stroke-linecap="round" stroke-linejoin="round"/>
  <path d="M 1000.2,737.9 L 993.3,797.9" fill="none" stroke="#858688" stroke-width="0.71" stroke-linecap="round" stroke-linejoin="round"/>
  <path d="M 1006.8,737.9 L 999.7,797.9" fill="none" stroke="#858688" stroke-width="0.71" stroke-linecap="round" stroke-linejoin="round"/>
  <path d="M 1013.4,737.9 L 1006,797.9" fill="none" stroke="#858688" stroke-width="0.71" stroke-linecap="round" stroke-linejoin="round"/>
  <path d="M 1020,737.9 L 1012.4,797.9" fill="none" stroke="#858688" stroke-width="0.71" stroke-linecap="round" stroke-linejoin="round"/>
  <path d="M 1026.7,737.9 L 1018.7,797.9" fill="none" stroke="#858688" stroke-width="0.71" stroke-linecap="round" stroke-linejoin="round"/>
  <path d="M 1033.3,737.9 L 1025.1,797.9" fill="none" stroke="#858688" stroke-width="0.71" stroke-linecap="round" stroke-linejoin="round"/>
  <path d="M 1039.9,737.9 L 1031.4,797.9" fill="none" stroke="#858688" stroke-width="0.71" stroke-linecap="round" stroke-linejoin="round"/>
  <path d="M 1046.5,737.9 L 1037.8,797.9" fill="none" stroke="#858688" stroke-width="0.71" stroke-linecap="round" stroke-linejoin="round"/>
  <path d="M 1053.1,737.9 L 1044.1,797.9" fill="none" stroke="#858688" stroke-width="0.71" stroke-linecap="round" stroke-linejoin="round"/>
  <path d="M 1059.7,737.9 L 1050.5,797.9" fill="none" stroke="#858688" stroke-width="0.71" stroke-linecap="round" stroke-linejoin="round"/>
  <path d="M 1066.4,737.9 L 1056.8,797.9" fill="none" stroke="#858688" stroke-width="0.71" stroke-linecap="round" stroke-linejoin="round"/>
  <path d="M 1073,737.9 L 1063.2,797.9" fill="none" stroke="#858688" stroke-width="0.71" stroke-linecap="round" stroke-linejoin="round"/>
  <path d="M 1079.6,737.9 L 1069.5,797.9" fill="none" stroke="#858688" stroke-width="0.71" stroke-linecap="round" stroke-linejoin="round"/>
  <path d="M 1086.2,737.9 L 1075.9,797.9" fill="none" stroke="#858688" stroke-width="0.71" stroke-linecap="round" stroke-linejoin="round"/>
  <path d="M 1092.8,737.9 L 1082.2,797.9" fill="none" stroke="#858688" stroke-width="0.71" stroke-linecap="round" stroke-linejoin="round"/>
  <path d="M 1099.4,737.9 L 1088.6,797.9" fill="none" stroke="#858688" stroke-width="0.71" stroke-linecap="round" stroke-linejoin="round"/>
  <path d="M 1106,737.9 L 1094.9,797.9" fill="none" stroke="#858688" stroke-width="0.71" stroke-linecap="round" stroke-linejoin="round"/>
  <path d="M 1112.7,737.9 L 1101.3,797.9" fill="none" stroke="#858688" stroke-width="0.71" stroke-linecap="round" stroke-linejoin="round"/>
  <path d="M 1119.3,737.9 L 1107.6,797.9" fill="none" stroke="#858688" stroke-width="0.71" stroke-linecap="round" stroke-linejoin="round"/>
  <path d="M 69.3,323.9 C 62.9,327 60.2,334.6 63.3,341 C 65.9,346.3 68.8,352.3 70.8,356.3 C 75,364.7 79.3,373.2 83.7,381.5 C 88.1,390 92.5,398.2 97,406.6 C 101.5,414.9 106.1,423.3 110.6,431.5 C 115.2,439.8 119.8,448.1 124.3,456.3 C 127.2,461.3 129.9,466.2 132.7,471.2 C 136,477.1 142.8,480.1 149.4,478.6 C 164.9,475.2 180.4,471.7 195.8,468.3 L 195.8,468.2 C 308.8,443 421.9,417.8 534.9,392.5 L 423,156.4 L 69.3,323.9" stroke="#010303" stroke-width="1" stroke-linecap="round" stroke-linejoin="round"/>
  <path d="M 1579,480.2 L 1515.1,473.5 C 1514.9,473.4 1514.8,473.3 1514.7,473.2 C 1514.6,473.1 1514.6,472.9 1514.7,472.7 L 1581.1,332.1 C 1581.1,332 1581.3,331.9 1581.4,331.8 C 1581.5,331.8 1581.5,331.8 1581.5,331.8 C 1581.7,331.8 1581.8,331.9 1581.9,332 L 1629.1,379.7 C 1629.2,379.8 1629.3,380 1629.2,380.2 L 1579.5,479.9 C 1579.4,480.1 1579.2,480.2 1579,480.2 C 1579,480.2 1579,480.2 1579,480.2" />
  <path d="M 1581.5,331.3 C 1581.5,331.3 1581.4,331.3 1581.3,331.3 C 1581,331.4 1580.8,331.6 1580.6,331.9 L 1514.2,472.5 C 1514.1,472.8 1514.1,473.2 1514.2,473.5 C 1514.4,473.7 1514.7,473.9 1515,474 L 1578.9,480.7 C 1578.9,480.7 1579,480.7 1579,480.7 C 1579.4,480.7 1579.7,480.5 1579.9,480.1 L 1629.6,380.5 C 1629.8,380.1 1629.7,379.6 1629.4,379.3 L 1582.2,331.6 C 1582,331.4 1581.8,331.3 1581.5,331.3 M 1581.5,332.3 L 1628.7,380 L 1579,479.7 L 1515.1,473 L 1581.5,332.3" fill="#010303"/>
  <path d="M 1503.4,469.6 L 1597.8,496.9" fill="none" stroke="#858688" stroke-width="0.71" stroke-linecap="round" stroke-linejoin="round"/>
  <path d="M 1507.8,460.8 L 1601.1,490.9" fill="none" stroke="#858688" stroke-width="0.71" stroke-linecap="round" stroke-linejoin="round"/>
  <path d="M 1512.2,452 L 1604.3,484.9" fill="none" stroke="#858688" stroke-width="0.71" stroke-linecap="round" stroke-linejoin="round"/>
  <path d="M 1516.6,443.2 L 1607.5,478.9" fill="none" stroke="#858688" stroke-width="0.71" stroke-linecap="round" stroke-linejoin="round"/>
  <path d="M 1521,434.4 L 1610.8,472.9" fill="none" stroke="#858688" stroke-width="0.71" stroke-linecap="round" stroke-linejoin="round"/>
  <path d="M 1525.5,425.6 L 1614,467" fill="none" stroke="#858688" stroke-width="0.71" stroke-linecap="round" stroke-linejoin="round"/>
  <path d="M 1529.9,416.8 L 1617.2,461" fill="none" stroke="#858688" stroke-width="0.71" stroke-linecap="round" stroke-linejoin="round"/>
  <path d="M 1534.3,408 L 1620.5,455" fill="none" stroke="#858688" stroke-width="0.71" stroke-linecap="round" stroke-linejoin="round"/>
  <path d="M 1538.7,399.2 L 1623.7,449" fill="none" stroke="#858688" stroke-width="0.71" stroke-linecap="round" stroke-linejoin="round"/>
  <path d="M 1543.1,390.4 L 1626.9,443" fill="none" stroke="#858688" stroke-width="0.71" stroke-linecap="round" stroke-linejoin="round"/>
  <path d="M 1547.5,381.6 L 1630.2,437" fill="none" stroke="#858688" stroke-width="0.71" stroke-linecap="round" stroke-linejoin="round"/>
  <path d="M 1552,372.8 L 1633.4,431" fill="none" stroke="#858688" stroke-width="0.71" stroke-linecap="round" stroke-linejoin="round"/>
  <path d="M 1556.4,364 L 1636.6,425" fill="none" stroke="#858688" stroke-width="0.71" stroke-linecap="round" stroke-linejoin="round"/>
  <path d="M 1560.8,355.2 L 1639.9,419.1" fill="none" stroke="#858688" stroke-width="0.71" stroke-linecap="round" stroke-linejoin="round"/>
  <path d="M 1565.2,346.4 L 1643.1,413.1" fill="none" stroke="#858688" stroke-width="0.71" stroke-linecap="round" stroke-linejoin="round"/>
  <path d="M 1569.6,337.6 L 1646.3,407.1" fill="none" stroke="#858688" stroke-width="0.71" stroke-linecap="round" stroke-linejoin="round"/>
  <path d="M 1574.1,328.8 L 1649.6,401.1" fill="none" stroke="#858688" stroke-width="0.71" stroke-linecap="round" stroke-linejoin="round"/>
  <path d="M 1580.3,323.8 C 1586.7,326.8 1589.4,334.5 1586.3,340.8 C 1583.7,346.2 1580.8,352.2 1578.8,356.2 C 1574.6,364.6 1570.2,373 1565.8,381.4 C 1561.5,389.8 1557,398.1 1552.5,406.5 C 1548,414.8 1543.5,423.1 1539,431.4 C 1534.3,439.7 1529.8,447.9 1525.2,456.2 C 1522.4,461.2 1519.6,466.1 1516.8,471.1 C 1513.5,477 1506.8,480 1500.2,478.5 C 1484.7,475 1469.2,471.6 1453.7,468.1 L 1453.7,468.1 C 1340.7,442.9 1227.7,417.6 1114.7,392.4 L 1226.6,156.3 L 1580.3,323.8" stroke="#010303" stroke-width="1" stroke-linecap="round" stroke-linejoin="round"/>
  <path d="M 645,748.1 C 645.5,748.1 645.9,748.1 646.3,748.2 C 656.2,748.7 666,749.2 675.8,749.7 C 685.7,750.2 695.5,750.6 705.3,751 C 715.2,751.4 725,751.8 734.8,752.1 C 744.7,752.4 754.5,752.7 764.4,753 C 774.2,753.2 784,753.4 793.9,753.5 C 803.7,753.6 813.6,753.7 823.4,753.7 L 824.9,753.7 L 826.4,753.7 C 836.2,753.7 846.1,753.6 855.9,753.5 C 865.8,753.4 875.6,753.2 885.4,753 C 895.3,752.7 905.1,752.4 915,752.1 C 924.8,751.8 934.6,751.4 944.5,751 C 954.3,750.6 964.1,750.2 974,749.7 C 983.8,749.2 993.6,748.7 1003.5,748.2 C 1003.9,748.1 1004.3,748.1 1004.8,748.1 C 1014.2,747.6 1023.6,747 1033,746.5 C 1042.8,745.9 1052.6,745.3 1062.4,744.6 C 1072.3,744 1082.1,743.4 1091.9,742.7 C 1101.8,742 1111.6,741.4 1121.4,740.7 C 1122,740.7 1122.7,740.6 1123.3,740.6 C 1138.7,739.5 1150.7,726.6 1150.7,711.1 C 1150.7,711 1150.7,710.9 1150.7,710.8 C 1150.7,708.4 1150.7,706 1150.6,703.7 L 1152.4,553.7 C 1152.6,550.5 1152.7,547.3 1152.8,544.2 C 1153.3,535 1153.8,525.8 1154.3,516.6 C 1154.9,507.4 1155.6,498.2 1156.3,489 C 1157.1,479.9 1157.9,470.7 1158.9,461.6 C 1159.8,452.4 1160.9,443.3 1162.1,434.2 C 1163.2,425.1 1164.6,416 1165.9,406.9 C 1167.4,397.5 1169,388.1 1170.6,378.8 C 1172.3,369.4 1174.2,360 1176.1,350.7 C 1176.3,349.8 1176.5,348.8 1176.7,347.9 C 1178.5,339.5 1180.2,331.1 1182.1,322.8 C 1184.2,313.4 1186.4,304.2 1188.7,294.9 C 1191,285.6 1193.3,276.3 1195.7,267.1 C 1198.1,257.8 1200.6,248.5 1203.1,239.3 C 1205.6,230 1208.2,220.8 1210.7,211.6 C 1213.3,202.3 1215.9,193.1 1218.6,183.9 C 1221.2,174.6 1223.8,165.4 1226.5,156.2 C 1226,156 1225.5,155.8 1225,155.7 C 1222.4,154.7 1219.7,153.8 1217.1,152.9 C 1213.9,151.8 1210.8,150.8 1207.6,149.7 C 1204.5,148.7 1201.4,147.6 1198.2,146.5 C 1195.1,145.5 1191.9,144.4 1188.8,143.4 C 1185.6,142.4 1182.5,141.3 1179.3,140.3 C 1176.2,139.3 1173,138.3 1169.9,137.2 C 1166.7,136.2 1163.6,135.2 1160.4,134.2 C 1157.3,133.2 1154.1,132.2 1151,131.2 C 1147.8,130.2 1144.6,129.3 1141.5,128.3 C 1138.3,127.3 1135.1,126.3 1132,125.3 C 1128.8,124.4 1125.6,123.4 1122.5,122.5 C 1119.3,121.5 1116.1,120.6 1113,119.6 C 1109.8,118.7 1106.6,117.7 1103.4,116.8 C 1100.3,115.9 1097.1,114.9 1093.9,114 C 1090.7,113.1 1087.5,112.2 1084.4,111.3 C 1081.2,110.4 1078,109.5 1074.8,108.6 C 1073.2,108.1 1071.6,107.7 1070,107.2 C 1068.4,106.8 1066.8,106.3 1065.2,105.9 C 1062.1,105 1058.9,104.1 1055.7,103.2 C 1052.5,102.4 1049.3,101.5 1046.1,100.6 C 1042.9,99.8 1039.7,98.9 1036.5,98.1 C 1033.3,97.2 1030.1,96.4 1026.9,95.5 C 1023.7,94.7 1020.5,93.9 1017.3,93 C 1014.1,92.2 1010.9,91.4 1007.7,90.6 C 1004.5,89.8 1001.2,89 998,88.2 C 994.8,87.4 991.6,86.6 988.4,85.8 C 985.2,85 982,84.2 978.7,83.4 C 975.5,82.6 972.3,81.9 969.1,81.1 C 965.9,80.3 962.6,79.6 959.4,78.8 C 956.2,78 953,77.3 949.7,76.6 C 946.5,75.8 943.3,75.1 940,74.3 C 936.8,73.6 933.6,72.9 930.3,72.2 C 927.1,71.4 923.9,70.7 920.6,70 C 917.9,69.4 915.1,68.8 912.4,68.2 C 911.9,68.1 911.4,68 910.9,67.9 C 910.5,73 910.2,78 909.6,83.1 C 908.7,91 907.2,98.8 905.1,106.4 C 902.8,114.7 899.7,122.7 895.9,130.4 C 891.8,138.9 886.9,147 880.4,153.6 C 875.4,158.8 869.4,163.1 863,166.5 C 854.6,171 845.5,174 836.2,174.8 C 835.7,174.8 835.3,174.8 834.9,174.9 C 831.6,174.9 828.2,175 824.9,175 C 821.6,175 818.2,174.9 814.9,174.9 C 814.5,174.8 814.1,174.8 813.6,174.8 C 804.3,174 795.2,171 786.8,166.5 C 780.4,163.1 774.4,158.8 769.4,153.6 C 762.9,147 758,138.9 753.9,130.4 C 750.1,122.7 747,114.7 744.7,106.4 C 742.6,98.8 741.1,91 740.2,83.1 C 739.6,78 739.3,73 738.9,67.9 C 738.4,68 737.9,68.1 737.4,68.2 C 734.7,68.8 731.9,69.4 729.2,70 C 725.9,70.7 722.7,71.4 719.5,72.2 C 716.2,72.9 713,73.6 709.8,74.3 C 706.5,75.1 703.3,75.8 700.1,76.6 C 696.8,77.3 693.6,78 690.4,78.8 C 687.2,79.6 683.9,80.3 680.7,81.1 C 677.5,81.9 674.3,82.6 671.1,83.4 C 667.8,84.2 664.6,85 661.4,85.8 C 658.2,86.6 655,87.4 651.8,88.2 C 648.6,89 645.3,89.8 642.1,90.6 C 638.9,91.4 635.7,92.2 632.5,93 C 629.3,93.9 626.1,94.7 622.9,95.5 C 619.7,96.4 616.5,97.2 613.3,98.1 C 610.1,98.9 606.9,99.8 603.7,100.6 C 600.5,101.5 597.3,102.4 594.1,103.2 C 590.9,104.1 587.7,105 584.6,105.9 C 583,106.3 581.4,106.8 579.8,107.2 C 578.2,107.7 576.6,108.1 575,108.6 C 571.8,109.5 568.6,110.4 565.4,111.3 C 562.3,112.2 559.1,113.1 555.9,114 C 552.7,114.9 549.5,115.9 546.4,116.8 C 543.2,117.7 540,118.7 536.8,119.6 C 533.7,120.6 530.5,121.5 527.3,122.5 C 524.2,123.4 521,124.4 517.8,125.3 C 514.7,126.3 511.5,127.3 508.3,128.3 C 505.2,129.3 502,130.2 498.8,131.2 C 495.7,132.2 492.5,133.2 489.4,134.2 C 486.2,135.2 483.1,136.2 479.9,137.2 C 476.8,138.3 473.6,139.3 470.5,140.3 C 467.3,141.3 464.2,142.4 461,143.4 C 457.9,144.4 454.7,145.5 451.6,146.5 C 448.4,147.6 445.3,148.7 442.2,149.7 C 439,150.8 435.9,151.8 432.7,152.9 C 430.1,153.8 427.4,154.7 424.8,155.7 C 424.3,155.8 423.8,156 423.3,156.2 C 426,165.4 428.6,174.6 431.2,183.9 C 433.9,193.1 436.5,202.3 439.1,211.6 C 441.6,220.8 444.2,230 446.7,239.3 C 449.2,248.5 451.7,257.8 454.1,267.1 C 456.5,276.3 458.8,285.6 461.1,294.9 C 463.4,304.2 465.6,313.4 467.7,322.8 C 469.6,331.1 471.3,339.5 473.1,347.9 C 473.3,348.8 473.5,349.8 473.7,350.7 C 475.6,360 477.5,369.4 479.2,378.8 C 480.8,388.1 482.4,397.5 483.9,406.9 C 485.2,416 486.6,425.1 487.7,434.2 C 488.9,443.3 490,452.4 490.9,461.6 C 491.9,470.7 492.7,479.9 493.5,489 C 494.2,498.2 494.9,507.4 495.5,516.6 C 496,525.8 496.5,535 497,544.2 C 497.1,547.3 497.2,550.5 497.4,553.7 L 499.2,703.7 C 499.1,706 499.1,708.4 499.1,710.8 C 499.1,710.9 499.1,711 499.1,711.1 C 499.1,726.6 511,739.5 526.5,740.6 C 527.1,740.6 527.8,740.7 528.4,740.7 C 538.2,741.4 548,742 557.9,742.7 C 567.7,743.4 577.5,744 587.4,744.6 C 597.2,745.3 607,745.9 616.8,746.5 C 626.2,747 635.6,747.6 645,748.1" stroke="#010303" stroke-width="1" stroke-linecap="round" stroke-linejoin="round"/>
  <path d="M 730.2,70.1 C 730.2,70.1 730.3,64.5 732.7,61.3 L 747.8,8.3 C 749.8,1.3 754.3,0.1 756,0 L 894.4,0 C 896.1,0.1 900.6,1.3 902.6,8.3 L 917.7,61.3 C 920.1,64.5 920.2,70.1 920.2,70.1" stroke="#010303" stroke-width="1" stroke-linecap="round" stroke-linejoin="round"/>
  <path d="M 835.2,186.5 C 922.7,178.8 920.2,70.1 920.2,70.1" fill="none" stroke="#3a3a39" stroke-width="0.71" stroke-dasharray="1.76 1.76" stroke-linecap="round" stroke-linejoin="round"/>
  <path d="M 730.2,70.1 C 730.2,70.1 727.8,178.8 815.2,186.5" fill="none" stroke="#3a3a39" stroke-width="0.71" stroke-dasharray="1.76 1.76" stroke-linecap="round" stroke-linejoin="round"/>
  <path d="M 917.7,61.2 C 916.1,80.1 909.3,106.5 902.1,124.9 C 888.7,158.5 865,174.3 835.2,177.1 L 815.2,177.1 C 785.4,174.3 761.7,158.5 748.4,124.9 C 741.1,106.5 734.3,80.1 732.7,61.2" stroke="#010303" stroke-width="1" stroke-linecap="round" stroke-linejoin="round"/>
  <path d="M 751.2,2.3 C 758.9,18.3 801.5,105.1 815.2,105.1 L 835.2,105.1 C 849,105.1 891.9,17.4 899.2,2.2" stroke="#010303" stroke-width="1" stroke-linecap="round" stroke-linejoin="round"/>
  <path d="M 787,70.1 L 863.5,70.1" fill="none" stroke="#010303" stroke-width="1" stroke-linecap="round" stroke-linejoin="round"/>
  <path d="M 835.6,105.3 L 835.6,310.3 L 815.6,310.3 L 815.6,105.3" stroke="#010303" stroke-width="1" stroke-linecap="round" stroke-linejoin="round"/>
  <path d="M 815.6,105.3 L 835.6,105.3" stroke="#010303" stroke-width="1" stroke-linecap="round" stroke-linejoin="round"/>
  <path d="M 820.6,105.3 H 830.6 V 300.3 H 820.6 Z" fill-rule="evenodd" stroke="#010303" stroke-width="1" stroke-linecap="round" stroke-linejoin="round"/>
  <path d="M 820.6,105.3 H 830.6 V 300.3 H 820.6 Z" stroke="#010303" stroke-width="1" stroke-linecap="round" stroke-linejoin="round"/>
  <path d="M 830.2,121.4 C 830.2,115.5 832.6,114.6 832.6,109.9 C 832.6,108.3 829.6,105.2 825.7,105.2 C 821.8,105.2 818.8,108.3 818.8,109.9 C 818.8,114.6 821.2,115.5 821.2,121.4 L 830.2,121.4" fill-rule="evenodd" stroke="#010303" stroke-width="1" stroke-linecap="round" stroke-linejoin="round"/>
  <path d="M 830.2,121.4 C 830.2,115.5 832.6,114.6 832.6,109.9 C 832.6,108.3 829.6,105.2 825.7,105.2 C 821.8,105.2 818.8,108.3 818.8,109.9 C 818.8,114.6 821.2,115.5 821.2,121.4 L 830.2,121.4" stroke="#010303" stroke-width="1" stroke-linecap="round" stroke-linejoin="round"/>
  <path d="M 825.7,129 C 827.3,129 829.9,129.6 829.9,131.2 C 829.9,132.8 827.2,133.8 825.7,133.8 C 824.1,133.8 821.3,132.8 821.3,131.2 C 821.3,129.6 824.1,129 825.7,129 M 825,135.3 L 826.3,135.3 C 828.4,135.3 831.9,133.6 831.5,131.5 L 830.3,124.7 L 830.3,116 C 830.3,113.2 828.7,113 825.8,113 L 825.5,113 C 822.6,113 821,113.2 821,116 L 821,124.7 L 819.8,131.5 C 819.4,133.6 822.9,135.3 825,135.3 M 823.2,114.9 H 828.2 V 122.1 H 823.2 Z" fill-rule="evenodd" stroke="#010303" stroke-width="1" stroke-linecap="round" stroke-linejoin="round"/>
  <path d="M 825.7,129 C 827.3,129 829.9,129.6 829.9,131.2 C 829.9,132.8 827.2,133.8 825.7,133.8 C 824.1,133.8 821.3,132.8 821.3,131.2 C 821.3,129.6 824.1,129 825.7,129 M 825,135.3 L 826.3,135.3 C 828.4,135.3 831.9,133.6 831.5,131.5 L 830.3,124.7 L 830.3,116 C 830.3,113.2 828.7,113 825.8,113 L 825.5,113 C 822.6,113 821,113.2 821,116 L 821,124.7 L 819.8,131.5 C 819.4,133.6 822.9,135.3 825,135.3 M 823.2,114.9 H 828.2 V 122.1 H 823.2 Z" stroke="#010303" stroke-width="1" stroke-linecap="round" stroke-linejoin="round"/>
  <path d="M 827.1,106.1 L 827.1,120.8 C 827.1,121.5 826.5,121.6 825.7,121.6 L 825.6,121.6 C 824.8,121.6 824.2,121.5 824.2,120.8 L 824.2,106.1 C 824.2,105.4 824.8,105.3 825.6,105.3 L 825.7,105.3 C 826.5,105.3 827.1,105.4 827.1,106.1" fill-rule="evenodd" stroke="#010303" stroke-width="1" stroke-linecap="round" stroke-linejoin="round"/>
  <path d="M 827.1,106.1 L 827.1,120.8 C 827.1,121.5 826.5,121.6 825.7,121.6 L 825.6,121.6 C 824.8,121.6 824.2,121.5 824.2,120.8 L 824.2,106.1 C 824.2,105.4 824.8,105.3 825.6,105.3 L 825.7,105.3 C 826.5,105.3 827.1,105.4 827.1,106.1" stroke="#010303" stroke-width="1" stroke-linecap="round" stroke-linejoin="round"/>
  <path d="M 949.1,528.7 L 824.1,528.7 L 699.1,528.7 C 680.8,571.8 662.5,615 644.2,658.1 L 644.2,748.1 C 644.7,748.1 645.2,748.2 645.7,748.2 C 655.5,748.7 665.3,749.2 675,749.7 C 684.9,750.2 694.7,750.6 704.5,751 C 714.4,751.4 724.2,751.8 734,752.1 C 743.9,752.4 753.7,752.7 763.6,753 C 773.4,753.2 783.2,753.4 793.1,753.5 C 802.9,753.6 812.8,753.7 822.6,753.7 L 824.1,753.7 L 825.6,753.7 C 835.4,753.7 845.3,753.6 855.1,753.5 C 865,753.4 874.8,753.2 884.6,753 C 894.5,752.7 904.3,752.4 914.2,752.1 C 924,751.8 933.8,751.4 943.7,751 C 953.5,750.6 963.3,750.2 973.2,749.7 C 982.9,749.2 992.7,748.7 1002.5,748.2 C 1003,748.2 1003.5,748.1 1004,748.1 L 1004,658.1 C 985.7,615 967.4,571.8 949.1,528.7" stroke="#010303" stroke-width="1" stroke-linecap="round" stroke-linejoin="round"/>
  <path d="M 950.4,534 L 823.4,534 L 696.4,534" fill="none" stroke="#3a3a39" stroke-width="0.71" stroke-dasharray="1.76 1.76" stroke-linecap="round" stroke-linejoin="round"/>
  <path d="M 643.8,721 C 660,679.8 705.8,569.5 721.8,528.7" fill="none" stroke="#3a3a39" stroke-width="0.71" stroke-dasharray="1.76 1.76" stroke-linecap="round" stroke-linejoin="round"/>
  <path d="M 643.4,733.4 C 659.6,692.2 711.5,569.5 727.5,528.7" fill="none" stroke="#3a3a39" stroke-width="0.71" stroke-dasharray="1.76 1.76" stroke-linecap="round" stroke-linejoin="round"/>
  <path d="M 1002.5,721 C 986.3,679.8 940.5,569.5 924.5,528.7" fill="none" stroke="#3a3a39" stroke-width="0.71" stroke-dasharray="1.76 1.76" stroke-linecap="round" stroke-linejoin="round"/>
  <path d="M 1002.9,733.4 C 986.7,692.2 934.8,569.5 918.8,528.7" fill="none" stroke="#3a3a39" stroke-width="0.71" stroke-dasharray="1.76 1.76" stroke-linecap="round" stroke-linejoin="round"/>
</g>
</svg>
