<svg xmlns="http://www.w3.org/2000/svg" viewBox="0 0 1259.7 763.9" width="1259.7" height="763.9">
<g id="garment" fill="#d8d8d9">
  <path d="M 717.3,60 C 717.3,60 717.2,55.2 715,52.4 L 701.1,7.1 C 699.3,1.1 695.2,0.1 693.6,0 L 566.9,0 C 565.3,0.1 561.2,1.1 559.4,7.1 L 545.6,52.5 C 543.4,55.2 543.3,60 543.3,60 L 562.7,101.1 L 616.8,108 L 675.9,105.4 L 710.7,89.2 L 717.3,60" stroke="#010303" stroke-width="1" stroke-linecap="round" stroke-linejoin="round"/>
  <path d="M 1178.2,634.6 C 1178.1,634.6 1178,634.6 1177.9,634.6 L 1125.3,599.9 C 1125.2,599.8 1125.1,599.7 1125.1,599.5 C 1125.1,599.4 1125.2,599.2 1125.3,599.1 L 1220.3,516.6 C 1220.4,516.5 1220.5,516.5 1220.6,516.5 C 1220.7,516.5 1220.7,516.5 1220.7,516.5 C 1220.9,516.5 1221,516.6 1221.1,516.8 L 1248.2,576.7 C 1248.3,576.9 1248.3,577.1 1248.1,577.3 L 1178.5,634.5 C 1178.4,634.6 1178.3,634.6 1178.2,634.6" />
  <path d="M 1220.6,516 C 1220.4,516 1220.1,516.1 1220,516.2 L 1124.9,598.7 C 1124.7,598.9 1124.6,599.2 1124.6,599.5 C 1124.6,599.9 1124.8,600.1 1125,600.3 L 1177.6,635 C 1177.8,635.1 1178,635.1 1178.2,635.1 C 1178.4,635.1 1178.6,635.1 1178.8,634.9 L 1248.4,577.7 C 1248.8,577.4 1248.9,576.9 1248.7,576.5 L 1221.5,516.6 C 1221.4,516.3 1221.1,516.1 1220.8,516 C 1220.8,516 1220.7,516 1220.6,516 M 1220.6,517 L 1247.8,576.9 L 1178.2,634.1 L 1125.6,599.5 L 1220.6,517" fill="#010303"/>
  <path d="M 1116.5,591.4 L 1189.5,656.6" fill="none" stroke="#858688" stroke-width="0.71" stroke-linecap="round" stroke-linejoin="round"/>
  <path d="M 1122.7,586.3 L 1193.9,653.3" fill="none" stroke="#858688" stroke-width="0.71" stroke-linecap="round" stroke-linejoin="round"/>
  <path d="M 1128.9,581.3 L 1198.3,649.9" fill="none" stroke="#858688" stroke-width="0.71" stroke-linecap="round" stroke-linejoin="round"/>
  <path d="M 1135,576.2 L 1202.6,646.6" fill="none" stroke="#858688" stroke-width="0.71" stroke-linecap="round" stroke-linejoin="round"/>
  <path d="M 1141.2,571.2 L 1207,643.3" fill="none" stroke="#858688" stroke-width="0.71" stroke-linecap="round" stroke-linejoin="round"/>
  <path d="M 1147.4,566.1 L 1211.4,640" fill="none" stroke="#858688" stroke-width="0.71" stroke-linecap="round" stroke-linejoin="round"/>
  <path d="M 1153.5,561.1 L 1215.8,636.6" fill="none" stroke="#858688" stroke-width="0.71" stroke-linecap="round" stroke-linejoin="round"/>
  <path d="M 1159.7,556.1 L 1220.2,633.3" fill="none" stroke="#858688" stroke-width="0.71" stroke-linecap="round" stroke-linejoin="round"/>
  <path d="M 1165.9,551 L 1224.6,630" fill="none" stroke="#858688" stroke-width="0.71" stroke-linecap="round" stroke-linejoin="round"/>
  <path d="M 1172,546 L 1229,626.7" fill="none" stroke="#858688" stroke-width="0.71" stroke-linecap="round" stroke-linejoin="round"/>
  <path d="M 1178.2,540.9 L 1233.4,623.3" fill="none" stroke="#858688" stroke-width="0.71" stroke-linecap="round" stroke-linejoin="round"/>
  <path d="M 1184.4,535.9 L 1237.8,620" fill="none" stroke="#858688" stroke-width="0.71" stroke-linecap="round" stroke-linejoin="round"/>
  <path d="M 1190.6,530.9 L 1242.2,616.7" fill="none" stroke="#858688" stroke-width="0.71" stroke-linecap="round" stroke-linejoin="round"/>
  <path d="M 1196.7,525.8 L 1246.6,613.3" fill="none" stroke="#858688" stroke-width="0.71" stroke-linecap="round" stroke-linejoin="round"/>
  <path d="M 1202.9,520.8 L 1251,610" fill="none" stroke="#858688" stroke-width="0.71" stroke-linecap="round" stroke-linejoin="round"/>
  <path d="M 1209.1,515.7 L 1255.4,606.7" fill="none" stroke="#858688" stroke-width="0.71" stroke-linecap="round" stroke-linejoin="round"/>
  <path d="M 1215.2,510.7 L 1259.7,603.4" fill="none" stroke="#858688" stroke-width="0.71" stroke-linecap="round" stroke-linejoin="round"/>
  <path d="M 878.4,100.8 C 878,101.1 877.6,101.4 877.1,101.8 C 876.8,102.1 876.4,102.4 876,102.8 C 868.7,108.9 861.7,115.9 856.1,123.6 C 850.5,131.4 846.2,140.1 842.1,148.8 C 837.9,157.7 834,166.6 830.9,175.9 C 827.6,185.6 825.3,195.8 823.1,205.8 C 821,215 819.2,224.1 817.8,233.3 C 816.2,243.8 815.3,254.3 813.9,264.8 C 812.7,273.2 811.3,281.5 809.4,289.7 C 807.3,298.9 804.5,307.9 801.4,316.8 C 798.1,325.7 794.4,334.5 790.5,343.1 C 790.2,343.5 790,344 789.8,344.4 C 897.8,429.1 1005.7,513.8 1113.7,598.4 C 1119.6,603.1 1128,602.9 1133.8,598 L 1219.2,525.1 C 1225.4,519.8 1226.1,510.5 1220.9,504.3 L 878.4,100.8" stroke="#010303" stroke-width="1" stroke-linecap="round" stroke-linejoin="round"/>
  <path d="M 81.6,635.3 C 81.5,635.3 81.3,635.2 81.3,635.2 L 11.7,577.9 C 11.5,577.8 11.4,577.5 11.5,577.3 L 38.7,517.4 C 38.7,517.2 38.9,517.1 39,517.1 C 39.1,517.1 39.1,517.1 39.1,517.1 C 39.3,517.1 39.4,517.1 39.5,517.2 L 134.5,599.7 C 134.6,599.8 134.7,600 134.6,600.1 C 134.6,600.3 134.6,600.4 134.4,600.5 L 81.8,635.2 C 81.8,635.2 81.7,635.3 81.6,635.3" />
  <path d="M 39.1,516.6 C 39.1,516.6 39,516.6 38.9,516.6 C 38.6,516.7 38.4,516.9 38.2,517.2 L 11.1,577.1 C 10.9,577.5 11,578 11.3,578.3 L 80.9,635.5 C 81.1,635.7 81.3,635.8 81.6,635.8 C 81.8,635.8 82,635.7 82.1,635.6 L 134.7,600.9 C 135,600.8 135.1,600.5 135.1,600.2 C 135.2,599.9 135,599.6 134.8,599.3 L 39.8,516.8 C 39.6,516.7 39.4,516.6 39.1,516.6 M 39.1,517.6 L 134.1,600.1 L 81.6,634.8 L 12,577.5 L 39.1,517.6" fill="#010303"/>
  <path d="M 143.2,592 L 70.3,657.2" fill="none" stroke="#858688" stroke-width="0.71" stroke-linecap="round" stroke-linejoin="round"/>
  <path d="M 137.1,586.9 L 65.9,653.9" fill="none" stroke="#858688" stroke-width="0.71" stroke-linecap="round" stroke-linejoin="round"/>
  <path d="M 130.9,581.9 L 61.5,650.6" fill="none" stroke="#858688" stroke-width="0.71" stroke-linecap="round" stroke-linejoin="round"/>
  <path d="M 124.7,576.9 L 57.1,647.2" fill="none" stroke="#858688" stroke-width="0.71" stroke-linecap="round" stroke-linejoin="round"/>
  <path d="M 118.6,571.8 L 52.7,643.9" fill="none" stroke="#858688" stroke-width="0.71" stroke-linecap="round" stroke-linejoin="round"/>
  <path d="M 112.4,566.8 L 48.3,640.6" fill="none" stroke="#858688" stroke-width="0.71" stroke-linecap="round" stroke-linejoin="round"/>
  <path d="M 106.2,561.7 L 43.9,637.3" fill="none" stroke="#858688" stroke-width="0.71" stroke-linecap="round" stroke-linejoin="round"/>
  <path d="M 100,556.7 L 39.5,633.9" fill="none" stroke="#858688" stroke-width="0.71" stroke-linecap="round" stroke-linejoin="round"/>
  <path d="M 93.9,551.7 L 35.1,630.6" fill="none" stroke="#858688" stroke-width="0.71" stroke-linecap="round" stroke-linejoin="round"/>
  <path d="M 87.7,546.6 L 30.7,627.3" fill="none" stroke="#858688" stroke-width="0.71" stroke-linecap="round" stroke-linejoin="round"/>
  <path d="M 81.5,541.6 L 26.4,624" fill="none" stroke="#858688" stroke-width="0.71" stroke-linecap="round" stroke-linejoin="round"/>
  <path d="M 75.4,536.5 L 22,620.6" fill="none" stroke="#858688" stroke-width="0.71" stroke-linecap="round" stroke-linejoin="round"/>
  <path d="M 69.2,531.5 L 17.6,617.3" fill="none" stroke="#858688" stroke-width="0.71" stroke-linecap="round" stroke-linejoin="round"/>
  <path d="M 63,526.5 L 13.2,614" fill="none" stroke="#858688" stroke-width="0.71" stroke-linecap="round" stroke-linejoin="round"/>
  <path d="M 56.8,521.4 L 8.8,610.6" fill="none" stroke="#858688" stroke-width="0.71" stroke-linecap="round" stroke-linejoin="round"/>
  <path d="M 50.7,516.4 L 4.4,607.3" fill="none" stroke="#858688" stroke-width="0.71" stroke-linecap="round" stroke-linejoin="round"/>
  <path d="M 44.5,511.3 L 0,604" fill="none" stroke="#858688" stroke-width="0.71" stroke-linecap="round" stroke-linejoin="round"/>
  <path d="M 882.7,703.9 L 873.2,760.4 C 872.8,762.4 870.7,763.9 868.2,763.9 L 392.5,763.9 C 390,763.9 387.8,762.4 387.5,760.4 L 378,703.9 L 882.7,703.9" stroke="#010303" stroke-width="1" stroke-linecap="round" stroke-linejoin="round"/>
  <path d="M 383.5,703.9 L 393.6,763.9" fill="none" stroke="#858688" stroke-width="0.71" stroke-linecap="round" stroke-linejoin="round"/>
  <path d="M 389.1,703.9 L 398.9,763.9" fill="none" stroke="#858688" stroke-width="0.71" stroke-linecap="round" stroke-linejoin="round"/>
  <path d="M 394.6,703.9 L 404.2,763.9" fill="none" stroke="#858688" stroke-width="0.71" stroke-linecap="round" stroke-linejoin="round"/>
  <path d="M 400.2,703.9 L 409.5,763.9" fill="none" stroke="#858688" stroke-width="0.71" stroke-linecap="round" stroke-linejoin="round"/>
  <path d="M 405.7,703.9 L 414.8,763.9" fill="none" stroke="#858688" stroke-width="0.71" stroke-linecap="round" stroke-linejoin="round"/>
  <path d="M 411.3,703.9 L 420.2,763.9" fill="none" stroke="#858688" stroke-width="0.71" stroke-linecap="round" stroke-linejoin="round"/>
  <path d="M 416.8,703.9 L 425.5,763.9" fill="none" stroke="#858688" stroke-width="0.71" stroke-linecap="round" stroke-linejoin="round"/>
  <path d="M 422.4,703.9 L 430.8,763.9" fill="none" stroke="#858688" stroke-width="0.71" stroke-linecap="round" stroke-linejoin="round"/>
  <path d="M 427.9,703.9 L 436.1,763.9" fill="none" stroke="#858688" stroke-width="0.71" stroke-linecap="round" stroke-linejoin="round"/>
  <path d="M 433.4,703.9 L 441.5,763.9" fill="none" stroke="#858688" stroke-width="0.71" stroke-linecap="round" stroke-linejoin="round"/>
  <path d="M 439,703.9 L 446.8,763.9" fill="none" stroke="#858688" stroke-width="0.71" stroke-linecap="round" stroke-linejoin="round"/>
  <path d="M 444.5,703.9 L 452.1,763.9" fill="none" stroke="#858688" stroke-width="0.71" stroke-linecap="round" stroke-linejoin="round"/>
  <path d="M 450.1,703.9 L 457.4,763.9" fill="none" stroke="#858688" stroke-width="0.71" stroke-linecap="round" stroke-linejoin="round"/>
  <path d="M 455.6,703.9 L 462.8,763.9" fill="none" stroke="#858688" stroke-width="0.71" stroke-linecap="round" stroke-linejoin="round"/>
  <path d="M 461.2,703.9 L 468.1,763.9" fill="none" stroke="#858688" stroke-width="0.71" stroke-linecap="round" stroke-linejoin="round"/>
  <path d="M 466.7,703.9 L 473.4,763.9" fill="none" stroke="#858688" stroke-width="0.71" stroke-linecap="round" stroke-linejoin="round"/>
  <path d="M 472.3,703.9 L 478.7,763.9" fill="none" stroke="#858688" stroke-width="0.71" stroke-linecap="round" stroke-linejoin="round"/>
  <path d="M 477.8,703.9 L 484.1,763.9" fill="none" stroke="#858688" stroke-width="0.71" stroke-linecap="round" stroke-linejoin="round"/>
  <path d="M 483.4,703.9 L 489.4,763.9" fill="none" stroke="#858688" stroke-width="0.71" stroke-linecap="round" stroke-linejoin="round"/>
  <path d="M 488.9,703.9 L 494.7,763.9" fill="none" stroke="#858688" stroke-width="0.71" stroke-linecap="round" stroke-linejoin="round"/>
  <path d="M 494.5,703.9 L 500,763.9" fill="none" stroke="#858688" stroke-width="0.71" stroke-linecap="round" stroke-linejoin="round"/>
  <path d="M 500,703.9 L 505.3,763.9" fill="none" stroke="#858688" stroke-width="0.71" stroke-linecap="round" stroke-linejoin="round"/>
  <path d="M 505.5,703.9 L 510.7,763.9" fill="none" stroke="#858688" stroke-width="0.71" stroke-linecap="round" stroke-linejoin="round"/>
  <path d="M 511.1,703.9 L 516,763.9" fill="none" stroke="#858688" stroke-width="0.71" stroke-linecap="round" stroke-linejoin="round"/>
  <path d="M 516.6,703.9 L 521.3,763.9" fill="none" stroke="#858688" stroke-width="0.71" stroke-linecap="round" stroke-linejoin="round"/>
  <path d="M 522.2,703.9 L 526.6,763.9" fill="none" stroke="#858688" stroke-width="0.71" stroke-linecap="round" stroke-linejoin="round"/>
  <path d="M 527.7,703.9 L 532,763.9" fill="none" stroke="#858688" stroke-width="0.71" stroke-linecap="round" stroke-linejoin="round"/>
  <path d="M 533.3,703.9 L 537.3,763.9" fill="none" stroke="#858688" stroke-width="0.71" stroke-linecap="round" stroke-linejoin="round"/>
  <path d="M 538.8,703.9 L 542.6,763.9" fill="none" stroke="#858688" stroke-width="0.71" stroke-linecap="round" stroke-linejoin="round"/>
  <path d="M 544.4,703.9 L 547.9,763.9" fill="none" stroke="#858688" stroke-width="0.71" stroke-linecap="round" stroke-linejoin="round"/>
  <path d="M 549.9,703.9 L 553.3,763.9" fill="none" stroke="#858688" stroke-width="0.71" stroke-linecap="round" stroke-linejoin="round"/>
  <path d="M 555.5,703.9 L 558.6,763.9" fill="none" stroke="#858688" stroke-width="0.71" stroke-linecap="round" stroke-linejoin="round"/>
  <path d="M 561,703.9 L 563.9,763.9" fill="none" stroke="#858688" stroke-width="0.71" stroke-linecap="round" stroke-linejoin="round"/>
  <path d="M 566.5,703.9 L 569.2,763.9" fill="none" stroke="#858688" stroke-width="0.71" stroke-linecap="round" stroke-linejoin="round"/>
  <path d="M 572.1,703.9 L 574.6,763.9" fill="none" stroke="#858688" stroke-width="0.71" stroke-linecap="round" stroke-linejoin="round"/>
  <path d="M 577.6,703.9 L 579.9,763.9" fill="none" stroke="#858688" stroke-width="0.71" stroke-linecap="round" stroke-linejoin="round"/>
  <path d="M 583.2,703.9 L 585.2,763.9" fill="none" stroke="#858688" stroke-width="0.71" stroke-linecap="round" stroke-linejoin="round"/>
  <path d="M 588.7,703.9 L 590.5,763.9" fill="none" stroke="#858688" stroke-width="0.71" stroke-linecap="round" stroke-linejoin="round"/>
  <path d="M 594.3,703.9 L 595.8,763.9" fill="none" stroke="#858688" stroke-width="0.71" stroke-linecap="round" stroke-linejoin="round"/>
  <path d="M 599.8,703.9 L 601.2,763.9" fill="none" stroke="#858688" stroke-width="0.71" stroke-linecap="round" stroke-linejoin="round"/>
  <path d="M 605.4,703.9 L 606.5,763.9" fill="none" stroke="#858688" stroke-width="0.71" stroke-linecap="round" stroke-linejoin="round"/>
  <path d="M 610.9,703.9 L 611.8,763.9" fill="none" stroke="#858688" stroke-width="0.71" stroke-linecap="round" stroke-linejoin="round"/>
  <path d="M 616.5,703.9 L 617.1,763.9" fill="none" stroke="#858688" stroke-width="0.71" stroke-linecap="round" stroke-linejoin="round"/>
  <path d="M 622,703.9 L 622.5,763.9" fill="none" stroke="#858688" stroke-width="0.71" stroke-linecap="round" stroke-linejoin="round"/>
  <path d="M 627.6,703.9 L 627.8,763.9" fill="none" stroke="#858688" stroke-width="0.71" stroke-linecap="round" stroke-linejoin="round"/>
  <path d="M 633.1,703.9 L 633.1,763.9" fill="none" stroke="#858688" stroke-width="0.71" stroke-linecap="round" stroke-linejoin="round"/>
  <path d="M 638.6,703.9 L 638.4,763.9" fill="none" stroke="#858688" stroke-width="0.71" stroke-linecap="round" stroke-linejoin="round"/>
  <path d="M 644.2,703.9 L 643.8,763.9" fill="none" stroke="#858688" stroke-width="0.71" stroke-linecap="round" stroke-linejoin="round"/>
  <path d="M 649.7,703.9 L 649.1,763.9" fill="none" stroke="#858688" stroke-width="0.71" stroke-linecap="round" stroke-linejoin="round"/>
  <path d="M 655.3,703.9 L 654.4,763.9" fill="none" stroke="#858688" stroke-width="0.71" stroke-linecap="round" stroke-linejoin="round"/>
  <path d="M 660.8,703.9 L 659.7,763.9" fill="none" stroke="#858688" stroke-width="0.71" stroke-linecap="round" stroke-linejoin="round"/>
  <path d="M 666.4,703.9 L 665.1,763.9" fill="none" stroke="#858688" stroke-width="0.71" stroke-linecap="round" stroke-linejoin="round"/>
  <path d="M 671.9,703.9 L 670.4,763.9" fill="none" stroke="#858688" stroke-width="0.71" stroke-linecap="round" stroke-linejoin="round"/>
  <path d="M 677.5,703.9 L 675.7,763.9" fill="none" stroke="#858688" stroke-width="0.71" stroke-linecap="round" stroke-linejoin="round"/>
  <path d="M 683,703.9 L 681,763.9" fill="none" stroke="#858688" stroke-width="0.71" stroke-linecap="round" stroke-linejoin="round"/>
  <path d="M 688.6,703.9 L 686.4,763.9" fill="none" stroke="#858688" stroke-width="0.71" stroke-linecap="round" stroke-linejoin="round"/>
  <path d="M 694.1,703.9 L 691.7,763.9" fill="none" stroke="#858688" stroke-width="0.71" stroke-linecap="round" stroke-linejoin="round"/>
  <path d="M 699.7,703.9 L 697,763.9" fill="none" stroke="#858688" stroke-width="0.71" stroke-linecap="round" stroke-linejoin="round"/>
  <path d="M 705.2,703.9 L 702.3,763.9" fill="none" stroke="#858688" stroke-width="0.71" stroke-linecap="round" stroke-linejoin="round"/>
  <path d="M 710.7,703.9 L 707.6,763.9" fill="none" stroke="#858688" stroke-width="0.71" stroke-linecap="round" stroke-linejoin="round"/>
  <path d="M 716.3,703.9 L 713,763.9" fill="none" stroke="#858688" stroke-width="0.71" stroke-linecap="round" stroke-linejoin="round"/>
  <path d="M 721.8,703.9 L 718.3,763.9" fill="none" stroke="#858688" stroke-width="0.71" stroke-linecap="round" stroke-linejoin="round"/>
  <path d="M 727.4,703.9 L 723.6,763.9" fill="none" stroke="#858688" stroke-width="0.71" stroke-linecap="round" stroke-linejoin="round"/>
  <path d="M 732.9,703.9 L 728.9,763.9" fill="none" stroke="#858688" stroke-width="0.71" stroke-linecap="round" stroke-linejoin="round"/>
  <path d="M 738.5,703.9 L 734.3,763.9" fill="none" stroke="#858688" stroke-width="0.71" stroke-linecap="round" stroke-linejoin="round"/>
  <path d="M 744,703.9 L 739.6,763.9" fill="none" stroke="#858688" stroke-width="0.71" stroke-linecap="round" stroke-linejoin="round"/>
  <path d="M 749.6,703.9 L 744.9,763.9" fill="none" stroke="#858688" stroke-width="0.71" stroke-linecap="round" stroke-linejoin="round"/>
  <path d="M 755.1,703.9 L 750.2,763.9" fill="none" stroke="#858688" stroke-width="0.71" stroke-linecap="round" stroke-linejoin="round"/>
  <path d="M 760.7,703.9 L 755.6,763.9" fill="none" stroke="#858688" stroke-width="0.71" stroke-linecap="round" stroke-linejoin="round"/>
  <path d="M 766.2,703.9 L 760.9,763.9" fill="none" stroke="#858688" stroke-width="0.71" stroke-linecap="round" stroke-linejoin="round"/>
  <path d="M 771.8,703.9 L 766.2,763.9" fill="none" stroke="#858688" stroke-width="0.71" stroke-linecap="round" stroke-linejoin="round"/>
  <path d="M 777.3,703.9 L 771.5,763.9" fill="none" stroke="#858688" stroke-width="0.71" stroke-linecap="round" stroke-linejoin="round"/>
  <path d="M 782.8,703.9 L 776.9,763.9" fill="none" stroke="#858688" stroke-width="0.71" stroke-linecap="round" stroke-linejoin="round"/>
  <path d="M 788.4,703.9 L 782.2,763.9" fill="none" stroke="#858688" stroke-width="0.71" stroke-linecap="round" stroke-linejoin="round"/>
  <path d="M 793.9,703.9 L 787.5,763.9" fill="none" stroke="#858688" stroke-width="0.71" stroke-linecap="round" stroke-linejoin="round"/>
  <path d="M 799.5,703.9 L 792.8,763.9" fill="none" stroke="#858688" stroke-width="0.71" stroke-linecap="round" stroke-linejoin="round"/>
  <path d="M 805,703.9 L 798.1,763.9" fill="none" stroke="#858688" stroke-width="0.71" stroke-linecap="round" stroke-linejoin="round"/>
  <path d="M 810.6,703.9 L 803.5,763.9" fill="none" stroke="#858688" stroke-width="0.71" stroke-linecap="round" stroke-linejoin="round"/>
  <path d="M 816.1,703.9 L 808.8,763.9" fill="none" stroke="#858688" stroke-width="0.71" stroke-linecap="round" stroke-linejoin="round"/>
  <path d="M 821.7,703.9 L 814.1,763.9" fill="none" stroke="#858688" stroke-width="0.71" stroke-linecap="round" stroke-linejoin="round"/>
  <path d="M 827.2,703.9 L 819.4,763.9" fill="none" stroke="#858688" stroke-width="0.71" stroke-linecap="round" stroke-linejoin="round"/>
  <path d="M 832.8,703.9 L 824.8,763.9" fill="none" stroke="#858688" stroke-width="0.71" stroke-linecap="round" stroke-linejoin="round"/>
  <path d="M 838.3,703.9 L 830.1,763.9" fill="none" stroke="#858688" stroke-width="0.71" stroke-linecap="round" stroke-linejoin="round"/>
  <path d="M 843.8,703.9 L 835.4,763.9" fill="none" stroke="#858688" stroke-width="0.71" stroke-linecap="round" stroke-linejoin="round"/>
  <path d="M 849.4,703.9 L 840.7,763.9" fill="none" stroke="#858688" stroke-width="0.71" stroke-linecap="round" stroke-linejoin="round"/>
  <path d="M 854.9,703.9 L 846.1,763.9" fill="none" stroke="#858688" stroke-width="0.71" stroke-linecap="round" stroke-linejoin="round"/>
  <path d="M 860.5,703.9 L 851.4,763.9" fill="none" stroke="#858688" stroke-width="0.71" stroke-linecap="round" stroke-linejoin="round"/>
  <path d="M 866,703.9 L 856.7,763.9" fill="none" stroke="#858688" stroke-width="0.71" stroke-linecap="round" stroke-linejoin="round"/>
  <path d="M 871.6,703.9 L 862,763.9" fill="none" stroke="#858688" stroke-width="0.71" stroke-linecap="round" stroke-linejoin="round"/>
  <path d="M 877.1,703.9 L 867.4,763.9" fill="none" stroke="#858688" stroke-width="0.71" stroke-linecap="round" stroke-linejoin="round"/>
  <path d="M 381.4,101.4 C 381.8,101.7 382.1,102 382.6,102.4 C 383,102.7 383.4,103.1 383.7,103.4 C 391.1,109.6 398,116.5 403.7,124.2 C 409.3,132 413.5,140.7 417.6,149.5 C 421.8,158.3 425.7,167.3 428.9,176.5 C 432.1,186.3 434.5,196.4 436.7,206.5 C 438.7,215.6 440.5,224.8 441.9,233.9 C 443.5,244.4 444.5,254.9 445.9,265.5 C 447,273.8 448.5,282.2 450.4,290.4 C 452.5,299.5 455.2,308.6 458.4,317.4 C 461.6,326.4 465.4,335.1 469.3,343.7 C 469.6,344.2 469.7,344.6 470,345.1 C 361.9,429.8 254,514.4 146.1,599 C 140.1,603.7 131.7,603.5 126,598.6 L 40.6,525.7 C 34.4,520.4 33.6,511.1 38.9,505 L 381.4,101.4" stroke="#010303" stroke-width="1" stroke-linecap="round" stroke-linejoin="round"/>
  <path d="M 630.1,708.5 L 874,708.5 C 889.5,708.5 902.2,696.3 902.8,680.9 C 902.9,678.4 903,675.9 903.2,673.5 L 909.4,523.7 C 911.7,464.7 914.2,405.7 916.7,346.8 C 916.3,346.7 915.7,346.6 915.3,346.5 C 908.3,345.2 901.1,342.9 895,338.8 C 889.9,335.3 885.5,330.5 882.2,325.1 C 878.6,319.3 876.3,312.8 874.3,306.1 C 872.1,297.8 870.3,289.4 869.4,280.9 C 868.4,271.1 868.3,261.3 868.3,251.5 C 868.1,240.7 868.3,229.9 868.5,219.1 C 868.8,206.4 869.6,193.6 870.6,180.9 C 871.4,167.7 872.8,154.5 874.1,141.4 C 875.4,127.8 876.8,114.3 878.3,100.8 C 877.9,100.6 877.4,100.4 876.8,100.3 C 874.3,99.4 871.7,98.5 868.9,97.7 C 865.9,96.6 862.7,95.6 859.7,94.6 C 856.5,93.6 853.3,92.6 850.3,91.7 C 847.1,90.7 844.1,89.7 840.9,88.8 C 837.7,87.9 834.7,86.9 831.5,86 C 828.4,85.1 825.2,84.2 822,83.3 C 818.8,82.4 815.8,81.5 812.6,80.7 C 809.5,79.8 806.3,79 803.2,78.1 C 801.6,77.7 799.9,77.3 798.4,76.9 C 796.8,76.5 795.2,76.1 793.7,75.7 C 790.5,74.8 787.2,74 784.1,73.3 C 781,72.5 777.8,71.7 774.5,71 C 771.4,70.2 768.2,69.5 765.1,68.7 C 761.8,68 758.7,67.3 755.5,66.6 C 752.3,65.9 749.1,65.2 745.8,64.5 C 742.6,63.8 739.5,63.2 736.3,62.5 C 733.1,61.9 729.8,61.2 726.6,60.6 C 723.9,60.1 721.2,59.6 718.3,59.1 C 717.9,59 717.5,58.9 717,58.8 C 711.7,66.1 706.3,73.4 699.4,78.5 C 692.7,83.4 684.4,86.4 676,88.4 C 668,90.3 659.9,91.4 651.9,91.8 C 645.2,92 638.4,91.8 631.7,91.8 L 630.1,91.8 L 628.7,91.8 C 622,91.8 615.2,92 608.5,91.8 C 600.3,91.4 592.4,90.3 584.4,88.4 C 576,86.4 567.7,83.4 561,78.5 C 553.9,73.4 548.7,66.1 543.4,58.8 C 542.9,58.9 542.5,59 541.9,59.1 C 539.2,59.6 536.5,60.1 533.8,60.6 C 530.6,61.2 527.3,61.9 524.1,62.5 C 520.9,63.2 517.6,63.8 514.5,64.5 C 511.3,65.2 508.1,65.9 504.9,66.6 C 501.7,67.3 498.4,68 495.3,68.7 C 492.2,69.5 489,70.2 485.7,71 C 482.6,71.7 479.4,72.5 476.3,73.3 C 473,74 469.9,74.8 466.7,75.7 C 465.2,76.1 463.6,76.5 462,76.9 C 460.3,77.3 458.8,77.7 457.2,78.1 C 454.1,79 450.9,79.8 447.8,80.7 C 444.6,81.5 441.4,82.4 438.3,83.3 C 435.2,84.2 432,85.1 428.9,86 C 425.7,86.9 422.6,87.9 419.5,88.8 C 416.3,89.7 413.1,90.7 410.1,91.7 C 407,92.6 403.7,93.6 400.7,94.6 C 397.5,95.6 394.5,96.6 391.4,97.7 C 388.7,98.5 386.1,99.4 383.4,100.3 C 383,100.4 382.5,100.6 381.9,100.8 C 383.4,114.3 385,127.8 386.3,141.4 C 387.6,154.5 388.8,167.7 389.8,180.9 C 390.8,193.6 391.5,206.4 391.7,219.1 C 392.1,229.9 392.1,240.7 392.1,251.5 C 392.1,261.3 392,271.1 391,280.9 C 389.9,289.4 388.3,297.8 385.9,306.1 C 384.1,312.8 381.8,319.3 378.2,325.1 C 374.9,330.5 370.5,335.3 365.2,338.8 C 359.3,342.9 352.1,345.2 344.9,346.5 C 344.6,346.6 344.1,346.7 343.7,346.8 C 346,405.7 348.5,464.7 351,523.7 L 357.2,673.5 C 357.3,676.6 357.4,679.7 357.5,682.8 C 358.2,697.1 370,708.5 384.4,708.5 L 630.1,708.5" stroke="#010303" stroke-width="1" stroke-linecap="round" stroke-linejoin="round"/>
  <path d="M 724.1,60.8 C 718.3,69 712.6,77.3 705,83.1 C 697.8,88.7 688.8,92 679.7,94.2 C 671,96.5 662.4,97.8 653.6,98.1 C 646.4,98.5 639,98.1 631.8,98.1 C 631.3,98.1 630.7,98.1 630.2,98.1 L 628.5,98.1 C 621.3,98.1 613.9,98.5 606.7,98.1 C 597.9,97.8 589.2,96.5 580.6,94.2 C 571.5,92 562.5,88.7 555.3,83.1 C 547.7,77.3 541.9,69 536.2,60.8" fill="none" stroke="#3a3a39" stroke-width="0.71" stroke-dasharray="1.76 1.76" stroke-linecap="round" stroke-linejoin="round"/>
</g>
</svg>
