<svg xmlns="http://www.w3.org/2000/svg" viewBox="0 0 1249.4 1016.4" width="1249.4" height="1016.4">
<g id="garment" fill="#d9d9d9">
  <path d="M 1182.6,688.8 L 1119.7,682.4 C 1119.5,682.4 1119.4,682.3 1119.3,682.1 C 1119.2,682 1119.2,681.8 1119.3,681.7 L 1184.6,539.3 C 1184.7,539.2 1184.8,539.1 1184.9,539.1 C 1185,539.1 1185,539.1 1185.1,539.1 C 1185.2,539.1 1185.3,539.1 1185.3,539.1 L 1231.8,572.7 C 1232,572.8 1232.1,573.1 1232,573.3 L 1183.1,688.5 C 1183,688.7 1182.9,688.8 1182.7,688.8 C 1182.6,688.8 1182.6,688.8 1182.6,688.8" />
  <path d="M 1185.1,538.6 C 1185,538.6 1184.9,538.6 1184.8,538.6 C 1184.5,538.7 1184.3,538.9 1184.1,539.1 L 1118.8,681.5 C 1118.7,681.8 1118.7,682.1 1118.9,682.4 C 1119,682.7 1119.3,682.9 1119.6,682.9 L 1182.6,689.3 C 1182.6,689.3 1182.6,689.3 1182.7,689.3 C 1183.1,689.3 1183.4,689.1 1183.6,688.7 L 1232.5,573.5 C 1232.6,573.1 1232.5,572.6 1232.1,572.3 L 1185.6,538.7 C 1185.5,538.6 1185.3,538.6 1185.1,538.6 M 1185.1,539.6 L 1231.5,573.1 L 1182.7,688.3 L 1119.7,681.9 L 1185.1,539.6" fill="#000000"/>
  <path d="M 1172.4,539.6 L 1249.4,592.8" fill="none" stroke="#868686" stroke-width="0.71" stroke-linecap="round" stroke-linejoin="round"/>
  <path d="M 1168.8,547.9 L 1247.1,598.7" fill="none" stroke="#868686" stroke-width="0.71" stroke-linecap="round" stroke-linejoin="round"/>
  <path d="M 1165.3,556.2 L 1244.8,604.5" fill="none" stroke="#868686" stroke-width="0.71" stroke-linecap="round" stroke-linejoin="round"/>
  <path d="M 1161.7,564.5 L 1242.5,610.3" fill="none" stroke="#868686" stroke-width="0.71" stroke-linecap="round" stroke-linejoin="round"/>
  <path d="M 1158.1,572.8 L 1240.2,616.1" fill="none" stroke="#868686" stroke-width="0.71" stroke-linecap="round" stroke-linejoin="round"/>
  <path d="M 1154.6,581.1 L 1237.9,621.9" fill="none" stroke="#868686" stroke-width="0.71" stroke-linecap="round" stroke-linejoin="round"/>
  <path d="M 1151,589.4 L 1235.6,627.7" fill="none" stroke="#868686" stroke-width="0.71" stroke-linecap="round" stroke-linejoin="round"/>
  <path d="M 1147.4,597.8 L 1233.3,633.6" fill="none" stroke="#868686" stroke-width="0.71" stroke-linecap="round" stroke-linejoin="round"/>
  <path d="M 1143.9,606.1 L 1231,639.4" fill="none" stroke="#868686" stroke-width="0.71" stroke-linecap="round" stroke-linejoin="round"/>
  <path d="M 1140.3,614.4 L 1228.8,645.2" fill="none" stroke="#868686" stroke-width="0.71" stroke-linecap="round" stroke-linejoin="round"/>
  <path d="M 1136.7,622.7 L 1226.5,651" fill="none" stroke="#868686" stroke-width="0.71" stroke-linecap="round" stroke-linejoin="round"/>
  <path d="M 1133.2,631 L 1224.2,656.8" fill="none" stroke="#868686" stroke-width="0.71" stroke-linecap="round" stroke-linejoin="round"/>
  <path d="M 1129.6,639.3 L 1221.9,662.6" fill="none" stroke="#868686" stroke-width="0.71" stroke-linecap="round" stroke-linejoin="round"/>
  <path d="M 1126,647.6 L 1219.6,668.5" fill="none" stroke="#868686" stroke-width="0.71" stroke-linecap="round" stroke-linejoin="round"/>
  <path d="M 1122.5,655.9 L 1217.3,674.3" fill="none" stroke="#868686" stroke-width="0.71" stroke-linecap="round" stroke-linejoin="round"/>
  <path d="M 1118.9,664.2 L 1215,680.1" fill="none" stroke="#868686" stroke-width="0.71" stroke-linecap="round" stroke-linejoin="round"/>
  <path d="M 1115.3,672.5 L 1212.7,685.9" fill="none" stroke="#868686" stroke-width="0.71" stroke-linecap="round" stroke-linejoin="round"/>
  <path d="M 992.9,667.6 C 901.4,651.5 809.9,635.4 718.4,619.3 L 813.8,382.4 L 1181.5,528.8 C 1185.8,530.6 1187.9,535.5 1186.2,539.8 C 1183.4,546.4 1179.6,555.7 1177.4,561 C 1173.7,569.7 1169.8,578.3 1165.9,586.9 C 1162.1,595.7 1158.2,604.2 1154.1,612.8 C 1150.2,621.3 1146.1,629.9 1142.1,638.4 C 1138,647 1133.9,655.5 1129.9,664 C 1126.6,670.5 1123.6,676.9 1120.4,683.3 C 1118.6,687 1114.5,689.1 1110.4,688.4 C 1071.2,681.5 1032,674.6 992.9,667.7" stroke="#000000" stroke-width="1" stroke-linecap="round" stroke-linejoin="round"/>
  <path d="M 706.5,956.4 L 695.1,1012.9 C 694.7,1014.9 692.2,1016.4 689.2,1016.4 L 121.1,1016.4 C 118.1,1016.4 115.5,1014.9 115.1,1012.9 L 103.7,956.4 L 706.5,956.4" stroke="#000000" stroke-width="1" stroke-linecap="round" stroke-linejoin="round"/>
  <path d="M 256.1,956.4 L 262.2,1016.4" fill="none" stroke="#868686" stroke-width="0.71" stroke-linecap="round" stroke-linejoin="round"/>
  <path d="M 262.7,956.4 L 268.6,1016.4" fill="none" stroke="#868686" stroke-width="0.71" stroke-linecap="round" stroke-linejoin="round"/>
  <path d="M 269.3,956.4 L 274.9,1016.4" fill="none" stroke="#868686" stroke-width="0.71" stroke-linecap="round" stroke-linejoin="round"/>
  <path d="M 276,956.4 L 281.3,1016.4" fill="none" stroke="#868686" stroke-width="0.71" stroke-linecap="round" stroke-linejoin="round"/>
  <path d="M 282.6,956.4 L 287.6,1016.4" fill="none" stroke="#868686" stroke-width="0.71" stroke-linecap="round" stroke-linejoin="round"/>
  <path d="M 289.2,956.4 L 294,1016.4" fill="none" stroke="#868686" stroke-width="0.71" stroke-linecap="round" stroke-linejoin="round"/>
  <path d="M 295.8,956.4 L 300.4,1016.4" fill="none" stroke="#868686" stroke-width="0.71" stroke-linecap="round" stroke-linejoin="round"/>
  <path d="M 302.5,956.4 L 306.7,1016.4" fill="none" stroke="#868686" stroke-width="0.71" stroke-linecap="round" stroke-linejoin="round"/>
  <path d="M 309.1,956.4 L 313.1,1016.4" fill="none" stroke="#868686" stroke-width="0.71" stroke-linecap="round" stroke-linejoin="round"/>
  <path d="M 315.7,956.4 L 319.4,1016.4" fill="none" stroke="#868686" stroke-width="0.71" stroke-linecap="round" stroke-linejoin="round"/>
  <path d="M 322.3,956.4 L 325.8,1016.4" fill="none" stroke="#868686" stroke-width="0.71" stroke-linecap="round" stroke-linejoin="round"/>
  <path d="M 328.9,956.4 L 332.2,1016.4" fill="none" stroke="#868686" stroke-width="0.71" stroke-linecap="round" stroke-linejoin="round"/>
  <path d="M 335.6,956.4 L 338.5,1016.4" fill="none" stroke="#868686" stroke-width="0.71" stroke-linecap="round" stroke-linejoin="round"/>
  <path d="M 342.2,956.4 L 344.9,1016.4" fill="none" stroke="#868686" stroke-width="0.71" stroke-linecap="round" stroke-linejoin="round"/>
  <path d="M 348.8,956.4 L 351.2,1016.4" fill="none" stroke="#868686" stroke-width="0.71" stroke-linecap="round" stroke-linejoin="round"/>
  <path d="M 355.4,956.4 L 357.6,1016.4" fill="none" stroke="#868686" stroke-width="0.71" stroke-linecap="round" stroke-linejoin="round"/>
  <path d="M 362.1,956.4 L 363.9,1016.4" fill="none" stroke="#868686" stroke-width="0.71" stroke-linecap="round" stroke-linejoin="round"/>
  <path d="M 368.7,956.4 L 370.3,1016.4" fill="none" stroke="#868686" stroke-width="0.71" stroke-linecap="round" stroke-linejoin="round"/>
  <path d="M 375.3,956.4 L 376.7,1016.4" fill="none" stroke="#868686" stroke-width="0.71" stroke-linecap="round" stroke-linejoin="round"/>
  <path d="M 381.9,956.4 L 383,1016.4" fill="none" stroke="#868686" stroke-width="0.71" stroke-linecap="round" stroke-linejoin="round"/>
  <path d="M 388.6,956.4 L 389.4,1016.4" fill="none" stroke="#868686" stroke-width="0.71" stroke-linecap="round" stroke-linejoin="round"/>
  <path d="M 395.2,956.4 L 395.7,1016.4" fill="none" stroke="#868686" stroke-width="0.71" stroke-linecap="round" stroke-linejoin="round"/>
  <path d="M 401.8,956.4 L 402.1,1016.4" fill="none" stroke="#868686" stroke-width="0.71" stroke-linecap="round" stroke-linejoin="round"/>
  <path d="M 408.4,956.4 L 408.4,1016.4" fill="none" stroke="#868686" stroke-width="0.71" stroke-linecap="round" stroke-linejoin="round"/>
  <path d="M 415.1,956.4 L 414.8,1016.4" fill="none" stroke="#868686" stroke-width="0.71" stroke-linecap="round" stroke-linejoin="round"/>
  <path d="M 421.7,956.4 L 421.2,1016.4" fill="none" stroke="#868686" stroke-width="0.71" stroke-linecap="round" stroke-linejoin="round"/>
  <path d="M 428.3,956.4 L 427.5,1016.4" fill="none" stroke="#868686" stroke-width="0.71" stroke-linecap="round" stroke-linejoin="round"/>
  <path d="M 434.9,956.4 L 433.9,1016.4" fill="none" stroke="#868686" stroke-width="0.71" stroke-linecap="round" stroke-linejoin="round"/>
  <path d="M 441.5,956.4 L 440.2,1016.4" fill="none" stroke="#868686" stroke-width="0.71" stroke-linecap="round" stroke-linejoin="round"/>
  <path d="M 448.2,956.4 L 446.6,1016.4" fill="none" stroke="#868686" stroke-width="0.71" stroke-linecap="round" stroke-linejoin="round"/>
  <path d="M 454.8,956.4 L 453,1016.4" fill="none" stroke="#868686" stroke-width="0.71" stroke-linecap="round" stroke-linejoin="round"/>
  <path d="M 461.4,956.4 L 459.3,1016.4" fill="none" stroke="#868686" stroke-width="0.71" stroke-linecap="round" stroke-linejoin="round"/>
  <path d="M 468,956.4 L 465.7,1016.4" fill="none" stroke="#868686" stroke-width="0.71" stroke-linecap="round" stroke-linejoin="round"/>
  <path d="M 474.7,956.4 L 472,1016.4" fill="none" stroke="#868686" stroke-width="0.71" stroke-linecap="round" stroke-linejoin="round"/>
  <path d="M 481.3,956.4 L 478.4,1016.4" fill="none" stroke="#868686" stroke-width="0.71" stroke-linecap="round" stroke-linejoin="round"/>
  <path d="M 487.9,956.4 L 484.7,1016.4" fill="none" stroke="#868686" stroke-width="0.71" stroke-linecap="round" stroke-linejoin="round"/>
  <path d="M 494.5,956.4 L 491.1,1016.4" fill="none" stroke="#868686" stroke-width="0.71" stroke-linecap="round" stroke-linejoin="round"/>
  <path d="M 501.2,956.4 L 497.5,1016.4" fill="none" stroke="#868686" stroke-width="0.71" stroke-linecap="round" stroke-linejoin="round"/>
  <path d="M 507.8,956.4 L 503.8,1016.4" fill="none" stroke="#868686" stroke-width="0.71" stroke-linecap="round" stroke-linejoin="round"/>
  <path d="M 514.4,956.4 L 510.2,1016.4" fill="none" stroke="#868686" stroke-width="0.71" stroke-linecap="round" stroke-linejoin="round"/>
  <path d="M 521,956.4 L 516.5,1016.4" fill="none" stroke="#868686" stroke-width="0.71" stroke-linecap="round" stroke-linejoin="round"/>
  <path d="M 527.7,956.4 L 522.9,1016.4" fill="none" stroke="#868686" stroke-width="0.71" stroke-linecap="round" stroke-linejoin="round"/>
  <path d="M 534.3,956.4 L 529.2,1016.4" fill="none" stroke="#868686" stroke-width="0.71" stroke-linecap="round" stroke-linejoin="round"/>
  <path d="M 540.9,956.4 L 535.6,1016.4" fill="none" stroke="#868686" stroke-width="0.71" stroke-linecap="round" stroke-linejoin="round"/>
  <path d="M 547.5,956.4 L 542,1016.4" fill="none" stroke="#868686" stroke-width="0.71" stroke-linecap="round" stroke-linejoin="round"/>
  <path d="M 554.1,956.4 L 548.3,1016.4" fill="none" stroke="#868686" stroke-width="0.71" stroke-linecap="round" stroke-linejoin="round"/>
  <path d="M 560.8,956.4 L 554.7,1016.4" fill="none" stroke="#868686" stroke-width="0.71" stroke-linecap="round" stroke-linejoin="round"/>
  <path d="M 567.4,956.4 L 561,1016.4" fill="none" stroke="#868686" stroke-width="0.71" stroke-linecap="round" stroke-linejoin="round"/>
  <path d="M 574,956.4 L 567.4,1016.4" fill="none" stroke="#868686" stroke-width="0.71" stroke-linecap="round" stroke-linejoin="round"/>
  <path d="M 580.6,956.4 L 573.8,1016.4" fill="none" stroke="#868686" stroke-width="0.71" stroke-linecap="round" stroke-linejoin="round"/>
  <path d="M 587.3,956.4 L 580.1,1016.4" fill="none" stroke="#868686" stroke-width="0.71" stroke-linecap="round" stroke-linejoin="round"/>
  <path d="M 593.9,956.4 L 586.5,1016.4" fill="none" stroke="#868686" stroke-width="0.71" stroke-linecap="round" stroke-linejoin="round"/>
  <path d="M 600.5,956.4 L 592.8,1016.4" fill="none" stroke="#868686" stroke-width="0.71" stroke-linecap="round" stroke-linejoin="round"/>
  <path d="M 607.1,956.4 L 599.2,1016.4" fill="none" stroke="#868686" stroke-width="0.71" stroke-linecap="round" stroke-linejoin="round"/>
  <path d="M 613.8,956.4 L 605.5,1016.4" fill="none" stroke="#868686" stroke-width="0.71" stroke-linecap="round" stroke-linejoin="round"/>
  <path d="M 620.4,956.4 L 611.9,1016.4" fill="none" stroke="#868686" stroke-width="0.71" stroke-linecap="round" stroke-linejoin="round"/>
  <path d="M 627,956.4 L 618.3,1016.4" fill="none" stroke="#868686" stroke-width="0.71" stroke-linecap="round" stroke-linejoin="round"/>
  <path d="M 633.6,956.4 L 624.6,1016.4" fill="none" stroke="#868686" stroke-width="0.71" stroke-linecap="round" stroke-linejoin="round"/>
  <path d="M 640.3,956.4 L 631,1016.4" fill="none" stroke="#868686" stroke-width="0.71" stroke-linecap="round" stroke-linejoin="round"/>
  <path d="M 646.9,956.4 L 637.3,1016.4" fill="none" stroke="#868686" stroke-width="0.71" stroke-linecap="round" stroke-linejoin="round"/>
  <path d="M 653.5,956.4 L 643.7,1016.4" fill="none" stroke="#868686" stroke-width="0.71" stroke-linecap="round" stroke-linejoin="round"/>
  <path d="M 660.1,956.4 L 650,1016.4" fill="none" stroke="#868686" stroke-width="0.71" stroke-linecap="round" stroke-linejoin="round"/>
  <path d="M 666.7,956.4 L 656.4,1016.4" fill="none" stroke="#868686" stroke-width="0.71" stroke-linecap="round" stroke-linejoin="round"/>
  <path d="M 673.4,956.4 L 662.8,1016.4" fill="none" stroke="#868686" stroke-width="0.71" stroke-linecap="round" stroke-linejoin="round"/>
  <path d="M 680,956.4 L 669.1,1016.4" fill="none" stroke="#868686" stroke-width="0.71" stroke-linecap="round" stroke-linejoin="round"/>
  <path d="M 686.6,956.4 L 675.5,1016.4" fill="none" stroke="#868686" stroke-width="0.71" stroke-linecap="round" stroke-linejoin="round"/>
  <path d="M 693.2,956.4 L 681.8,1016.4" fill="none" stroke="#868686" stroke-width="0.71" stroke-linecap="round" stroke-linejoin="round"/>
  <path d="M 699.9,956.4 L 688.2,1016.4" fill="none" stroke="#868686" stroke-width="0.71" stroke-linecap="round" stroke-linejoin="round"/>
  <path d="M 758.4,574.8 C 758.6,573.9 758.8,573.1 759,572.3 C 759.3,571 759.5,569.8 759.9,568.6 C 761.8,560.6 763.7,552.8 765.6,545 C 767.8,535.8 770.3,526.8 772.8,517.8 C 775.3,508.6 777.8,499.7 780.4,490.5 C 783.1,481.5 785.7,472.5 788.5,463.4 C 791.2,454.4 794,445.5 796.8,436.4 C 799.6,427.4 802.5,418.4 805.3,409.3 C 808.1,400.9 810.8,392.4 813.5,383.8 C 813.7,383.3 813.8,382.8 814,382.3 C 813.5,382.1 813,382.1 812.6,381.9 C 809.9,380.9 807.2,379.9 804.5,378.8 C 801.3,377.7 798.2,376.6 795,375.4 C 791.8,374.3 788.7,373.1 785.5,372 C 782.3,370.7 779.2,369.6 776,368.5 C 772.8,367.3 769.6,366.2 766.5,365.1 C 763.3,364 760.1,362.9 756.9,361.8 C 753.7,360.7 750.6,359.6 747.4,358.5 C 744.2,357.4 741,356.3 737.8,355.2 C 734.6,354.1 731.3,353.2 728.2,352.1 C 725.1,351 721.9,350 718.6,348.9 C 715.5,347.9 712.3,346.8 709.1,345.7 C 705.9,344.6 702.7,343.6 699.5,342.7 C 696.3,341.6 693.1,340.6 689.9,339.6 C 686.6,338.5 683.4,337.5 680.2,336.5 C 677,335.6 673.8,334.6 670.6,333.5 C 667.3,332.5 664.2,331.5 660.9,330.6 C 657.7,329.6 654.5,328.6 651.3,327.6 C 648.1,326.7 644.8,325.8 641.6,324.7 C 638.4,323.7 635.2,322.9 631.9,321.9 C 628.6,320.9 625.5,320.1 622.2,319.2 C 619,318.1 615.8,317.3 612.5,316.4 C 609.3,315.4 606,314.6 602.8,313.6 C 599.6,312.6 596.3,311.8 593.1,310.9 C 589.8,310 586.6,309.2 583.3,308.2 C 580.1,307.4 576.8,306.5 573.6,305.7 C 570.3,304.8 567.1,303.8 563.8,303.1 C 560.6,302.1 557.3,301.4 554,300.4 C 550.8,299.7 547.5,298.8 544.3,298 C 541,297.1 537.7,296.4 534.5,295.5 C 531.2,294.7 527.9,293.8 524.7,293.1 C 521.4,292.2 518.1,291.5 514.8,290.6 C 512,290 509.3,289.3 506.5,288.7 C 506,288.6 505.5,288.4 505,288.3 C 504.9,293.4 504.8,298.6 504,303.6 C 502.7,311.4 499.7,319 496.4,326.3 C 493.1,333.5 489.3,340.6 484.9,347 C 479.7,354.6 473.4,361.6 466.4,367.7 C 460.3,372.9 453.6,377.7 446.2,380.6 C 437.5,384.2 427.8,385.1 418.3,385.4 C 414.5,385.5 410.8,385.4 407,385.4 C 403.2,385.4 399.5,385.5 395.7,385.4 C 386.2,385.1 376.5,384.2 367.8,380.6 C 360.4,377.7 353.7,372.9 347.6,367.7 C 340.6,361.6 334.3,354.6 329.1,347 C 324.7,340.6 320.9,333.5 317.6,326.3 C 314.3,319 311.3,311.4 310,303.6 C 309.2,298.6 309.1,293.4 309,288.3 C 308.5,288.4 308,288.6 307.5,288.7 C 304.7,289.3 302,290 299.2,290.6 C 295.9,291.5 292.6,292.2 289.3,293.1 C 286.1,293.8 282.8,294.7 279.5,295.5 C 276.3,296.4 273,297.1 269.7,298 C 266.5,298.8 263.2,299.7 260,300.4 C 256.7,301.4 253.4,302.1 250.2,303.1 C 246.9,303.8 243.7,304.8 240.4,305.7 C 237.2,306.5 233.9,307.4 230.7,308.2 C 227.4,309.2 224.2,310 220.9,310.9 C 217.7,311.8 214.4,312.6 211.2,313.6 C 208,314.6 204.7,315.4 201.5,316.4 C 198.2,317.3 195,318.1 191.8,319.2 C 188.5,320.1 185.3,320.9 182.1,321.9 C 178.8,322.9 175.6,323.7 172.4,324.7 C 169.2,325.8 165.9,326.7 162.7,327.6 C 159.5,328.6 156.3,329.6 153.1,330.6 C 149.8,331.5 146.6,332.5 143.4,333.5 C 140.2,334.6 137,335.6 133.8,336.5 C 130.6,337.5 127.4,338.5 124.1,339.6 C 120.9,340.6 117.7,341.6 114.5,342.7 C 111.3,343.6 108.1,344.6 104.9,345.7 C 101.7,346.8 98.5,347.9 95.3,348.9 C 92.1,350 88.9,351 85.8,352.1 C 82.6,353.2 79.4,354.1 76.2,355.2 C 73,356.3 69.8,357.4 66.6,358.5 C 63.4,359.6 60.3,360.7 57.1,361.8 C 53.9,362.9 50.7,364 47.5,365.1 C 44.4,366.2 41.2,367.3 38,368.5 C 34.8,369.6 31.7,370.7 28.5,372 C 25.3,373.1 22.2,374.3 19,375.4 C 15.8,376.6 12.7,377.7 9.5,378.8 C 6.8,379.9 4.1,380.9 1.4,381.9 C 1,382.1 0.5,382.1 0,382.3 C 2.9,391.4 5.8,400.3 8.7,409.3 C 11.5,418.4 14.4,427.4 17.2,436.4 C 20,445.5 22.8,454.4 25.5,463.4 C 28.3,472.5 30.9,481.5 33.6,490.5 C 36.2,499.7 38.7,508.6 41.2,517.8 C 43.7,526.8 46.1,535.8 48.4,545 C 50.3,552.8 52.2,560.6 54.1,568.6 C 54.4,569.8 54.7,571 55,572.3 C 55.2,573.1 55.4,573.9 55.6,574.8 L 55.5,574.8 C 57.4,583.2 59.2,591.5 60.9,600 C 62.7,609.1 64.3,618.4 66,627.6 C 67.5,636.6 68.9,645.7 70.2,654.8 C 71.5,663.7 72.6,672.9 73.7,682 C 74.7,691.2 75.6,700.2 76.4,709.5 C 77.2,718.6 77.9,727.8 78.5,737 C 79.1,746.1 79.6,755.4 80,764.6 C 80.2,767.8 80.3,771.1 80.5,774.2 C 80.7,780.2 80.9,786.3 81.1,792.3 C 81.4,801.5 81.6,810.7 81.7,820 C 81.9,829.3 82,838.5 82,847.7 L 82,875.6 C 82,884.9 81.9,894.2 81.8,903.4 C 81.7,910.5 81.6,917.4 81.5,924.3 C 81.5,926.6 81.5,929.1 81.4,931.4 C 81.4,931.5 81.4,931.6 81.4,931.7 C 81.2,947.2 93.2,960.2 108.7,961.2 C 109.3,961.3 109.9,961.3 110.5,961.3 C 114.3,961.6 118,961.9 121.8,962 C 127.9,962.4 133.9,963 140,963.4 C 149.8,964 159.6,964.6 169.5,965.2 C 179.3,965.8 189.1,966.4 198.9,967.1 C 208.3,967.7 217.7,968.2 227.1,968.8 L 228.4,968.8 C 238.3,969.4 248.1,969.9 257.9,970.3 C 265.8,970.7 273.7,971.1 281.5,971.3 C 283.5,971.4 285.5,971.6 287.4,971.7 C 297.3,972.1 307.1,972.4 316.9,972.8 C 326.8,973 336.5,973.4 346.5,973.5 C 356.3,973.8 366.1,974 376,974 C 385.8,974.3 395.7,974.3 405.5,974.3 L 407,974.3 L 408.5,974.3 C 418.3,974.3 428.2,974.3 438,974 C 447.9,974 457.7,973.8 467.5,973.5 C 477.3,973.4 487.2,973 497.1,972.8 C 506.9,972.4 516.7,972.1 526.6,971.7 C 528.5,971.6 530.5,971.4 532.5,971.3 C 540.3,971.1 548.2,970.7 556.1,970.3 C 565.9,969.9 575.7,969.4 585.6,968.8 L 586.9,968.8 C 596.3,968.2 605.7,967.7 615.1,967.1 C 624.9,966.4 634.7,965.8 644.5,965.2 C 654.4,964.6 664.2,964 674,963.4 C 680,963 686.1,962.4 692.1,962 C 696,961.9 699.7,961.6 703.5,961.3 C 704.1,961.3 704.7,961.3 705.3,961.2 C 720.8,960.2 732.8,947.2 732.6,931.7 C 732.6,931.6 732.6,931.5 732.6,931.4 C 732.5,929.1 732.5,926.6 732.5,924.3 C 732.4,917.4 732.3,910.5 732.2,903.4 C 732.1,894.2 732,884.9 732,875.6 L 732,847.7 C 732,838.5 732.1,829.3 732.3,820 C 732.4,810.7 732.6,801.5 732.9,792.3 C 733.1,786.3 733.3,780.2 733.5,774.2 C 733.7,771.1 733.8,767.8 734,764.6 C 734.4,755.4 734.9,746.1 735.5,737 C 736.1,727.8 736.8,718.6 737.6,709.5 C 738.4,700.2 739.3,691.2 740.2,682 C 741.3,672.9 742.4,663.7 743.8,654.8 C 745.1,645.7 746.5,636.6 748,627.6 C 749.7,618.4 751.3,609.1 753.1,600 C 754.8,591.5 756.6,583.2 758.5,574.8" stroke="#000000" stroke-width="1" stroke-linecap="round" stroke-linejoin="round"/>
  <path d="M 522.1,331.6 L 521.8,332.2 C 521.7,332.3 521.7,332.4 521.6,332.5 L 519.1,336.9 C 519.1,336.9 519,337 519,337.1 L 516.2,341.4 C 516.2,341.4 516.1,341.5 516.1,341.6 L 513.2,345.7 C 513.1,345.8 513.1,345.8 513,345.9 L 510,349.9 C 509.9,350 509.8,350.1 509.8,350.2 L 506.5,354 C 506.5,354.1 506.4,354.1 506.4,354.2 L 503,357.9 C 502.9,358 502.8,358.1 502.8,358.2 L 499.2,361.7 C 499.1,361.8 499,361.8 498.9,361.9 L 495.2,365.3 C 495.1,365.3 495.1,365.3 495,365.4 L 491.2,368.6 C 491.1,368.7 491,368.7 491,368.8 L 486.9,371.8 C 486.8,371.9 486.8,371.9 486.7,372 L 482.5,374.8 C 482.4,374.9 482.4,374.9 482.3,374.9 L 478,377.6 C 477.9,377.6 477.8,377.7 477.8,377.7 L 473.3,380.2 C 473.3,380.2 473.2,380.2 473.2,380.2 L 468.7,382.5 C 468.6,382.6 468.5,382.6 468.4,382.6 L 463.8,384.7 C 463.7,384.8 463.7,384.8 463.6,384.8 L 458.9,386.7 C 458.9,386.8 458.8,386.8 458.7,386.8 L 454,388.5 C 453.9,388.5 453.8,388.6 453.8,388.6 L 448.9,390.1 C 448.9,390.1 448.8,390.1 448.8,390.1 L 444,391.5 C 443.9,391.5 443.8,391.6 443.7,391.6 L 438.7,392.7 C 438.7,392.7 438.6,392.7 438.6,392.7 L 433.7,393.7 C 433.6,393.7 433.5,393.7 433.4,393.8 L 428.4,394.5 C 428.4,394.5 428.3,394.5 428.2,394.5 L 423.3,395.1 C 423.2,395.1 423.1,395.1 423.1,395.1 L 418.1,395.5 C 418,395.5 417.9,395.5 417.8,395.5 L 410.3,395.7 C 410.2,395.7 410.2,395.7 410.1,395.7 L 404.4,395.7 C 404.3,395.7 404.3,395.7 404.2,395.7 L 396.7,395.5 C 396.6,395.5 396.5,395.5 396.4,395.5 L 391.4,395.1 C 391.3,395.1 391.3,395.1 391.2,395.1 L 386.2,394.5 C 386.2,394.5 386.1,394.5 386,394.5 L 381.1,393.8 C 381,393.7 380.9,393.7 380.8,393.7 L 375.9,392.7 C 375.8,392.7 375.8,392.7 375.7,392.7 L 370.8,391.6 C 370.7,391.6 370.7,391.5 370.6,391.5 L 365.7,390.2 C 365.6,390.1 365.6,390.1 365.5,390.1 L 360.7,388.6 C 360.7,388.6 360.6,388.5 360.5,388.5 L 355.8,386.8 C 355.7,386.8 355.6,386.8 355.5,386.7 L 350.9,384.8 C 350.8,384.8 350.7,384.8 350.6,384.7 L 346,382.6 C 346,382.6 345.9,382.6 345.8,382.5 L 341.3,380.2 C 341.2,380.2 341.2,380.2 341.1,380.2 L 336.7,377.7 C 336.6,377.7 336.5,377.6 336.5,377.6 L 332.2,374.9 C 332.1,374.9 332,374.8 331.9,374.8 L 327.8,372 C 327.7,371.9 327.7,371.9 327.6,371.8 L 323.6,368.8 C 323.5,368.7 323.4,368.7 323.3,368.6 L 319.4,365.4 C 319.4,365.4 319.3,365.3 319.3,365.3 L 315.5,361.9 C 315.4,361.8 315.4,361.8 315.3,361.7 L 311.7,358.2 C 311.6,358.1 311.6,358 311.5,357.9 L 308.1,354.2 C 308,354.1 308,354.1 307.9,354 L 304.7,350.2 C 304.6,350.1 304.5,350 304.5,349.9 L 301.4,345.9 C 301.4,345.8 301.3,345.8 301.3,345.7 L 298.4,341.6 C 298.3,341.5 298.3,341.4 298.3,341.4 L 295.5,337.1 C 295.5,337 295.4,336.9 295.4,336.9 L 292.9,332.5 C 292.8,332.4 292.8,332.3 292.8,332.3 L 292.3,331.5" fill="none" stroke="#393938" stroke-width="0.71" stroke-dasharray="1.76 1.76" stroke-linecap="round" stroke-linejoin="round"/>
  <path d="M 384.2,338 L 404.5,338.1 L 407.3,338.1 L 410.1,338.1 L 430.4,338 L 443.1,337.5 L 451.1,336.9 C 478.9,299.8 494.5,258 494.5,258 C 469.3,260.3 443.6,261.9 407.3,262.7 L 407.1,262.7 C 370.8,261.9 345.1,260.3 319.9,258 C 319.9,258.1 335.5,299.8 363.3,336.9 L 371.4,337.5 L 384.2,338" fill="#b1b1b0" stroke="#000000" stroke-width="1.12" stroke-linecap="round" stroke-linejoin="round"/>
  <path d="M 439.4,337.6 L 428,338 L 409.8,338.1 L 407.3,338.1 L 404.8,338.1 L 386.6,338 L 375.1,337.6 L 367.8,337 C 367.8,337 367.8,337 367.8,337 C 369.4,339.1 370.9,341.1 372.6,343.2 C 372.6,343.2 372.6,343.2 372.6,343.2 C 374.2,345.2 375.9,347.2 377.6,349.2 C 377.6,349.2 377.6,349.2 377.6,349.2 C 381.5,353.7 385.7,358 390.1,362 L 390.1,362 C 396.9,365.9 402.6,369.6 407.2,373 C 411.8,369.6 417.5,365.9 424.4,362 L 424.4,362 C 430.6,356.3 436.8,349.2 436.8,349.2 C 438.5,347.2 440.2,345.2 441.8,343.2 C 441.8,343.2 441.8,343.2 441.9,343.2 C 443.5,341.1 445.1,339.1 446.6,337.1 C 446.6,337.1 446.6,337.1 446.6,337 L 439.4,337.6" fill="#b1b1b0" stroke="#000000" stroke-width="1" stroke-linecap="round" stroke-linejoin="round"/>
  <path d="M 634.3,263.8 C 634.3,263.8 625.6,195 596.2,149.3 C 545.7,70.8 446.7,0 407.2,0 L 407.2,0 C 367.7,0 268.7,70.8 218.2,149.3 C 188.9,195 180.1,263.8 180.1,263.8 C 184,248 215.8,247.7 262.9,253.4 C 315.4,259.8 345.1,263.3 407.1,264.8 L 407.3,264.8 C 469.3,263.3 499,259.8 551.6,253.4 C 598.6,247.7 630.4,248 634.3,263.8" stroke="#000000" stroke-width="1.06" stroke-linecap="round" stroke-linejoin="round"/>
  <path d="M 187,228.3 C 190.8,212.5 222.7,213.2 268,218.9 C 318.7,225.3 347.3,228.8 407.1,230.2 L 407.3,230.2 C 467.1,228.8 495.7,225.3 546.4,218.9 C 591.7,213.2 624.1,214.4 627.9,230.2" fill="none" stroke="#393938" stroke-width="0.71" stroke-dasharray="1.76 1.76" stroke-linecap="round" stroke-linejoin="round"/>
  <path d="M 184.9,237.2 C 188.7,221.4 222.7,220.6 268,226.3 C 318.7,232.6 347.3,236.1 407.1,237.6 L 407.3,237.6 C 467.1,236.1 495.7,232.6 546.4,226.3 C 591.7,220.6 625.3,221.2 629.1,237" fill="none" stroke="#393938" stroke-width="0.71" stroke-dasharray="1.76 1.76" stroke-linecap="round" stroke-linejoin="round"/>
  <path d="M 299.7,332.8 L 300.4,334 L 303.1,338.3 L 306,342.4 L 309.1,346.5 L 312.4,350.3 L 315.8,354.1 L 319.4,357.6 L 323.1,361 L 327,364.2 L 331,367.2 L 335.2,370 L 339.5,372.7 L 344,375.1 L 348.4,377.4 L 353.1,379.5 L 357.7,381.4 L 362.5,383.1 L 367.3,384.6 L 372.1,386 L 377,387.1 L 382,388.1 L 386.9,388.8 L 390.1,389.2 L 391.9,389.4 L 396.9,389.8 L 404.4,390 L 407.3,390 L 410.1,390 L 417.6,389.8 L 422.7,389.4 L 424.5,389.2 C 424.3,389 404,358.8 333.8,340.2 L 333.8,340.2 L 333.8,340.2 C 323.6,337.4 312.2,334.9 299.7,332.8" stroke="#000000" stroke-width="1" stroke-linecap="round" stroke-linejoin="round"/>
  <path d="M 407.2,-0 L 407.2,264.8 L 407.2,336.6" fill="#afc8ec" stroke="#000000" stroke-width="1.87" stroke-linecap="round" stroke-linejoin="round"/>
  <path d="M 389,362 C 347.9,324.2 324,260.3 324,260.3 L 324,260.3 C 304.9,258.5 286.1,256.3 262.9,253.4 C 236,250.2 214.2,248.9 199.6,251.3 C 188.6,253.1 181.8,257 180.1,263.8 C 173.9,288.4 218.6,321.6 269.2,327.6 C 292.2,330.3 312.1,334.2 329.2,338.8 C 354.1,345.4 373.1,353.4 387.4,361.2 C 387.9,361.5 388.5,361.8 388.9,362.1 L 389,362" stroke="#000000" stroke-width="1.06" stroke-linecap="round" stroke-linejoin="round"/>
  <path d="M 634.3,263.8 C 632.7,257 625.8,253.1 614.8,251.3 C 600.3,248.9 578.4,250.2 551.6,253.4 C 528.3,256.3 509.5,258.5 490.4,260.3 L 490.4,260.3 C 490.4,260.3 466.5,324.2 425.4,362 L 425.5,362.1 C 426,361.8 426.5,361.5 427,361.2 C 441.3,353.4 460.3,345.4 485.3,338.8 C 502.4,334.2 522.2,330.3 545.2,327.6 C 595.8,321.6 640.5,288.4 634.3,263.8" stroke="#000000" stroke-width="1.06" stroke-linecap="round" stroke-linejoin="round"/>
  <path d="M 608.1,250.5 C 608.1,250.5 606.3,283.6 541.7,306.1 C 460.9,334.2 434.8,352.6 434.8,352.6" fill="none" stroke="#393938" stroke-width="0.71" stroke-dasharray="1.76 1.76" stroke-linecap="round" stroke-linejoin="round"/>
  <path d="M 206.4,250.5 C 206.4,250.5 208.2,283.6 272.8,306.1 C 353.6,334.2 379.7,352.6 379.7,352.6" fill="none" stroke="#393938" stroke-width="0.71" stroke-dasharray="1.76 1.76" stroke-linecap="round" stroke-linejoin="round"/>
  <path d="M 197.6,252.8 C 197.6,252.8 199.5,285.9 264,308.4 C 344.8,336.6 376.7,355.8 376.7,355.8" fill="none" stroke="#393938" stroke-width="0.71" stroke-dasharray="1.76 1.76" stroke-linecap="round" stroke-linejoin="round"/>
  <path d="M 614,252.8 C 614,252.8 612.1,285.9 547.5,308.4 C 466.7,336.6 434.8,355.8 434.8,355.8" fill="none" stroke="#393938" stroke-width="0.71" stroke-dasharray="1.76 1.76" stroke-linecap="round" stroke-linejoin="round"/>
  <path d="M 480.7,340.2 L 480.7,340.2 L 480.7,340.2 C 410.5,358.8 390.2,389 390,389.2 L 391.9,389.4 L 396.9,389.8 L 404.4,390 L 407.3,390 L 410.1,390 L 417.6,389.8 L 422.6,389.4 L 424.4,389.2 L 427.6,388.8 L 432.5,388.1 L 437.5,387.1 L 442.4,386 L 447.2,384.6 L 452,383.1 L 456.8,381.4 L 461.4,379.5 L 466.1,377.4 L 470.5,375.1 L 475,372.7 L 479.3,370 L 483.5,367.2 L 487.5,364.2 L 491.4,361 L 495.1,357.6 L 498.7,354.1 L 502.1,350.3 L 505.4,346.5 L 508.5,342.4 L 511.4,338.3 L 514.1,334 L 514.8,332.8 C 502.3,334.9 490.9,337.4 480.7,340.2" stroke="#000000" stroke-width="1" stroke-linecap="round" stroke-linejoin="round"/>
  <path d="M 430.7,388.3 C 430.7,388.3 457.8,356.6 480.3,340.2 L 480.3,340.2" fill="none" stroke="#393938" stroke-width="0.7" stroke-dasharray="1.76 1.76" stroke-linecap="round" stroke-linejoin="round"/>
  <path d="M 424.5,389.2 C 424.5,389.2 450.2,358.8 472.7,342.4" fill="none" stroke="#393938" stroke-width="0.7" stroke-dasharray="1.76 1.76" stroke-linecap="round" stroke-linejoin="round"/>
  <path d="M 390,389.2 C 390,389.2 364.3,358.8 341.8,342.4" fill="none" stroke="#393938" stroke-width="0.7" stroke-dasharray="1.76 1.76" stroke-linecap="round" stroke-linejoin="round"/>
  <path d="M 383.8,388.3 C 383.8,388.3 356.4,356.6 333.8,340.2 L 333.8,340.2" fill="none" stroke="#393938" stroke-width="0.71" stroke-dasharray="1.76 1.76" stroke-linecap="round" stroke-linejoin="round"/>
  <path d="M 446.6,337.1 C 446.6,337.1 446.6,337.1 446.6,337 L 439.4,337.6 L 428,338 L 409.8,338.1 L 407.3,338.1 L 404.8,338.1 L 386.6,338 L 375.1,337.6 L 367.8,337 C 367.8,337 367.8,337 367.8,337 C 369.4,339.1 370.9,341.1 372.6,343.2 C 372.6,343.2 372.6,343.2 372.6,343.2 C 374.2,345.2 375.9,347.2 377.6,349.2 C 377.6,349.2 377.6,349.2 377.6,349.2 L 386.6,349.5 L 404.8,349.6 L 407.3,349.6 L 409.8,349.6 L 428,349.5 L 436.8,349.2 C 438.5,347.2 440.2,345.2 441.8,343.2 C 441.8,343.2 441.8,343.2 441.9,343.2 C 443.5,341.1 445.1,339.1 446.6,337.1" fill="#b1b1b0" stroke="#000000" stroke-width="1" stroke-linecap="round" stroke-linejoin="round"/>
  <path d="M 425.4,377.5 C 423.2,377.5 421.3,375.7 421.3,373.5 C 421.3,371.2 423.2,369.4 425.4,369.4 C 427.6,369.4 429.4,371.2 429.4,373.5 C 429.4,375.7 427.6,377.5 425.4,377.5 M 425.4,366.9 C 421.8,366.9 418.8,369.8 418.8,373.5 C 418.8,377.1 421.8,380 425.4,380 C 429,380 431.9,377.1 431.9,373.5 C 431.9,369.8 429,366.9 425.4,366.9" fill="none" stroke="#393938" stroke-width="0.62" stroke-linecap="round" stroke-linejoin="round"/>
  <path d="M 388.8,377.5 C 386.6,377.5 384.8,375.7 384.8,373.5 C 384.8,371.2 386.6,369.4 388.8,369.4 C 391.1,369.4 392.9,371.2 392.9,373.5 C 392.9,375.7 391.1,377.5 388.8,377.5 M 388.8,366.9 C 385.2,366.9 382.3,369.8 382.3,373.5 C 382.3,377.1 385.2,380 388.8,380 C 392.5,380 395.4,377.1 395.4,373.5 C 395.4,369.8 392.5,366.9 388.8,366.9" fill="none" stroke="#393938" stroke-width="0.62" stroke-linecap="round" stroke-linejoin="round"/>
  <path d="M 588.3,968.1 C 588.3,938.1 588.3,908.1 588.3,878.1 C 570,833.3 551.7,788.5 533.4,743.7 C 491.6,743.7 450.1,743.7 408.3,743.7 C 366.7,743.7 325.1,743.7 283.4,743.7 C 265.1,788.5 246.8,833.3 228.5,878.1 C 228.5,908.1 228.5,938.1 228.5,968.1 C 229,968.1 229.4,968.1 229.9,968.2 C 239.8,968.7 249.6,969.2 259.2,969.7 C 269.1,970.2 279,970.6 288.8,971 C 298.7,971.4 308.4,971.8 318.2,972.1 C 328.2,972.4 338,972.8 347.9,972.9 C 357.7,973.2 367.4,973.3 377.3,973.5 C 387.2,973.6 397.1,973.6 406.9,973.7 L 408.3,973.7 L 409.9,973.7 C 419.7,973.6 429.6,973.6 439.4,973.5 C 449.2,973.3 459,973.2 468.9,972.9 C 478.8,972.8 488.6,972.4 498.5,972.1 C 508.2,971.8 518.1,971.4 528,971 C 537.8,970.6 547.5,970.2 557.4,969.7 C 567.2,969.2 577,968.7 586.7,968.2 C 587.2,968.1 587.7,968.1 588.3,968.1" stroke="#000000" stroke-width="1" stroke-linecap="round" stroke-linejoin="round"/>
  <path d="M 535.2,748.9 L 408.3,748.9 L 281.3,748.9" fill="none" stroke="#393938" stroke-width="0.71" stroke-dasharray="1.76 1.76" stroke-linecap="round" stroke-linejoin="round"/>
  <path d="M 228.7,935.8 C 244.8,894.7 290.6,784.4 306.7,743.6" fill="none" stroke="#393938" stroke-width="0.71" stroke-dasharray="1.76 1.76" stroke-linecap="round" stroke-linejoin="round"/>
  <path d="M 228.3,948.2 C 244.5,907.1 296.4,784.4 312.4,743.6" fill="none" stroke="#393938" stroke-width="0.71" stroke-dasharray="1.76 1.76" stroke-linecap="round" stroke-linejoin="round"/>
  <path d="M 587.4,935.8 C 571.2,894.7 525.4,784.4 509.4,743.6" fill="none" stroke="#393938" stroke-width="0.71" stroke-dasharray="1.76 1.76" stroke-linecap="round" stroke-linejoin="round"/>
  <path d="M 587.7,948.2 C 571.6,907.1 519.7,784.4 503.6,743.6" fill="none" stroke="#393938" stroke-width="0.71" stroke-dasharray="1.76 1.76" stroke-linecap="round" stroke-linejoin="round"/>
</g>
</svg>
