<svg xmlns="http://www.w3.org/2000/svg" viewBox="0 0 1105.4 764.9" width="1105.4" height="764.9">
<g id="garment" fill="#d9d9d9">
  <path d="M 89,665.4 C 88.9,665.4 88.8,665.4 88.7,665.4 L 5.7,610.4 C 5.5,610.3 5.5,610 5.6,609.8 L 28.3,557.8 C 28.3,557.7 28.4,557.5 28.6,557.5 C 28.6,557.5 28.7,557.5 28.7,557.5 C 28.8,557.5 28.9,557.5 29,557.6 L 135.3,622.6 C 135.4,622.6 135.5,622.8 135.5,622.9 C 135.5,623.1 135.5,623.2 135.4,623.3 L 89.3,665.3 C 89.2,665.4 89.1,665.4 89,665.4" />
  <path d="M 28.7,557 C 28.6,557 28.5,557 28.4,557 C 28.2,557.1 27.9,557.3 27.8,557.6 L 5.1,609.6 C 4.9,610 5.1,610.5 5.5,610.8 L 88.4,665.8 C 88.6,665.9 88.8,665.9 89,665.9 C 89.2,665.9 89.4,665.8 89.6,665.7 L 135.7,623.7 C 135.9,623.5 136,623.2 136,622.9 C 136,622.6 135.8,622.3 135.5,622.1 L 29.3,557.1 C 29.1,557 28.9,557 28.7,557 M 28.7,558 L 135,623 L 89,664.9 L 6,610 L 28.7,558" fill="#000000"/>
  <path d="M 38.5,550.5 L 0,634.9" fill="none" stroke="#868686" stroke-width="0.71" stroke-linecap="round" stroke-linejoin="round"/>
  <path d="M 44.5,554.5 L 4.1,637.8" fill="none" stroke="#868686" stroke-width="0.71" stroke-linecap="round" stroke-linejoin="round"/>
  <path d="M 50.5,558.4 L 8.1,640.7" fill="none" stroke="#868686" stroke-width="0.71" stroke-linecap="round" stroke-linejoin="round"/>
  <path d="M 56.6,562.3 L 12.2,643.6" fill="none" stroke="#868686" stroke-width="0.71" stroke-linecap="round" stroke-linejoin="round"/>
  <path d="M 62.6,566.3 L 16.2,646.5" fill="none" stroke="#868686" stroke-width="0.71" stroke-linecap="round" stroke-linejoin="round"/>
  <path d="M 68.6,570.2 L 20.3,649.3" fill="none" stroke="#868686" stroke-width="0.71" stroke-linecap="round" stroke-linejoin="round"/>
  <path d="M 74.6,574.1 L 24.3,652.2" fill="none" stroke="#868686" stroke-width="0.71" stroke-linecap="round" stroke-linejoin="round"/>
  <path d="M 80.6,578.1 L 28.4,655.1" fill="none" stroke="#868686" stroke-width="0.71" stroke-linecap="round" stroke-linejoin="round"/>
  <path d="M 86.6,582 L 32.4,658" fill="none" stroke="#868686" stroke-width="0.71" stroke-linecap="round" stroke-linejoin="round"/>
  <path d="M 92.6,586 L 36.5,660.9" fill="none" stroke="#868686" stroke-width="0.71" stroke-linecap="round" stroke-linejoin="round"/>
  <path d="M 98.7,589.9 L 40.5,663.8" fill="none" stroke="#868686" stroke-width="0.71" stroke-linecap="round" stroke-linejoin="round"/>
  <path d="M 104.7,593.8 L 44.6,666.6" fill="none" stroke="#868686" stroke-width="0.71" stroke-linecap="round" stroke-linejoin="round"/>
  <path d="M 110.7,597.8 L 48.6,669.5" fill="none" stroke="#868686" stroke-width="0.71" stroke-linecap="round" stroke-linejoin="round"/>
  <path d="M 116.7,601.7 L 52.7,672.4" fill="none" stroke="#868686" stroke-width="0.71" stroke-linecap="round" stroke-linejoin="round"/>
  <path d="M 122.7,605.6 L 56.7,675.3" fill="none" stroke="#868686" stroke-width="0.71" stroke-linecap="round" stroke-linejoin="round"/>
  <path d="M 128.7,609.6 L 60.8,678.2" fill="none" stroke="#868686" stroke-width="0.71" stroke-linecap="round" stroke-linejoin="round"/>
  <path d="M 134.7,613.5 L 64.8,681" fill="none" stroke="#868686" stroke-width="0.71" stroke-linecap="round" stroke-linejoin="round"/>
  <path d="M 1016.5,666.5 C 1016.3,666.5 1016.2,666.5 1016.1,666.4 L 970.1,624.4 C 969.9,624.3 969.9,624.2 969.9,624 C 969.9,623.8 970,623.7 970.1,623.6 L 1076.4,558.6 C 1076.5,558.6 1076.6,558.5 1076.7,558.5 C 1076.7,558.5 1076.8,558.6 1076.8,558.6 C 1077,558.6 1077.1,558.7 1077.2,558.8 L 1099.9,610.8 C 1100,611.1 1099.9,611.3 1099.7,611.5 L 1016.7,666.4 C 1016.7,666.5 1016.6,666.5 1016.5,666.5" />
  <path d="M 1076.7,558 C 1076.5,558 1076.3,558.1 1076.2,558.2 L 969.9,623.2 C 969.6,623.4 969.4,623.6 969.4,623.9 C 969.4,624.3 969.5,624.6 969.7,624.8 L 1015.8,666.7 C 1016,666.9 1016.2,667 1016.5,667 C 1016.7,667 1016.8,666.9 1017,666.8 L 1100,611.9 C 1100.4,611.6 1100.5,611.1 1100.3,610.6 L 1077.6,558.6 C 1077.5,558.4 1077.3,558.2 1077,558.1 C 1076.9,558.1 1076.8,558 1076.7,558 M 1076.7,559 L 1099.4,611 L 1016.5,666 L 970.4,624 L 1076.7,559" fill="#000000"/>
  <path d="M 1066.9,551.6 L 1105.4,636" fill="none" stroke="#868686" stroke-width="0.71" stroke-linecap="round" stroke-linejoin="round"/>
  <path d="M 1060.9,555.5 L 1101.4,638.9" fill="none" stroke="#868686" stroke-width="0.71" stroke-linecap="round" stroke-linejoin="round"/>
  <path d="M 1054.9,559.5 L 1097.3,641.8" fill="none" stroke="#868686" stroke-width="0.71" stroke-linecap="round" stroke-linejoin="round"/>
  <path d="M 1048.9,563.4 L 1093.3,644.6" fill="none" stroke="#868686" stroke-width="0.71" stroke-linecap="round" stroke-linejoin="round"/>
  <path d="M 1042.8,567.3 L 1089.2,647.5" fill="none" stroke="#868686" stroke-width="0.71" stroke-linecap="round" stroke-linejoin="round"/>
  <path d="M 1036.8,571.3 L 1085.2,650.4" fill="none" stroke="#868686" stroke-width="0.71" stroke-linecap="round" stroke-linejoin="round"/>
  <path d="M 1030.8,575.2 L 1081.1,653.3" fill="none" stroke="#868686" stroke-width="0.71" stroke-linecap="round" stroke-linejoin="round"/>
  <path d="M 1024.8,579.1 L 1077.1,656.2" fill="none" stroke="#868686" stroke-width="0.71" stroke-linecap="round" stroke-linejoin="round"/>
  <path d="M 1018.8,583.1 L 1073,659.1" fill="none" stroke="#868686" stroke-width="0.71" stroke-linecap="round" stroke-linejoin="round"/>
  <path d="M 1012.8,587 L 1069,661.9" fill="none" stroke="#868686" stroke-width="0.71" stroke-linecap="round" stroke-linejoin="round"/>
  <path d="M 1006.8,591 L 1064.9,664.8" fill="none" stroke="#868686" stroke-width="0.71" stroke-linecap="round" stroke-linejoin="round"/>
  <path d="M 1000.8,594.9 L 1060.9,667.7" fill="none" stroke="#868686" stroke-width="0.71" stroke-linecap="round" stroke-linejoin="round"/>
  <path d="M 994.7,598.8 L 1056.8,670.6" fill="none" stroke="#868686" stroke-width="0.71" stroke-linecap="round" stroke-linejoin="round"/>
  <path d="M 988.7,602.8 L 1052.8,673.5" fill="none" stroke="#868686" stroke-width="0.71" stroke-linecap="round" stroke-linejoin="round"/>
  <path d="M 982.7,606.7 L 1048.7,676.3" fill="none" stroke="#868686" stroke-width="0.71" stroke-linecap="round" stroke-linejoin="round"/>
  <path d="M 976.7,610.6 L 1044.7,679.2" fill="none" stroke="#868686" stroke-width="0.71" stroke-linecap="round" stroke-linejoin="round"/>
  <path d="M 970.7,614.6 L 1040.6,682.1" fill="none" stroke="#868686" stroke-width="0.71" stroke-linecap="round" stroke-linejoin="round"/>
  <path d="M 304,91.1 C 304.4,91.3 304.8,91.6 305.3,91.9 C 305.8,92.2 306.2,92.4 306.6,92.7 C 314.9,97.8 322.7,103.5 329.6,110.4 C 336.2,117.3 341.9,125.2 347.2,133.2 C 352.8,141.4 358,149.8 362.4,158.5 C 367.2,167.6 371,177.3 374.8,187 C 378.2,195.7 381.4,204.5 384.2,213.3 C 387.2,223.5 389.8,233.9 392.8,244.1 C 395.3,252.2 397.9,260.3 401.1,268.1 C 404.5,276.9 408.7,285.5 413.1,293.7 C 417.7,302.1 422.7,310.2 427.9,318.2 C 428.2,318.7 428.5,319 428.8,319.5 C 336,419.4 243.3,519.2 150.5,619.1 C 145.1,624.9 136.3,626.1 129.5,622 L 32.6,562.8 C 26.6,559.1 24.6,551.3 28.3,545.2 L 304,91.1" stroke="#000000" stroke-width="1.06" stroke-linecap="round" stroke-linejoin="round"/>
  <path d="M 802.2,91 C 801.8,91.3 801.3,91.6 800.8,91.9 C 800.4,92.1 800,92.4 799.6,92.6 C 791.3,97.7 783.4,103.5 776.6,110.3 C 769.9,117.2 764.3,125.1 758.9,133.2 C 753.4,141.4 748.2,149.7 743.7,158.4 C 738.9,167.6 735.1,177.3 731.3,187 C 728,195.7 724.8,204.5 722,213.3 C 718.9,223.5 716.3,233.8 713.3,244 C 710.9,252.2 708.2,260.2 705,268 C 701.6,276.8 697.5,285.4 693,293.7 C 688.4,302.1 683.4,310.2 678.2,318.2 C 677.9,318.6 677.7,319 677.4,319.4 C 770.1,419.3 862.9,519.1 955.6,619 C 961.1,624.9 969.9,626.1 976.7,621.9 L 1070.7,564.5 C 1078.3,559.9 1080.7,549.9 1076.1,542.3 L 802.2,91" stroke="#000000" stroke-width="1.06" stroke-linecap="round" stroke-linejoin="round"/>
  <path d="M 802.5,704.9 L 793.1,761.4 C 792.8,763.4 790.7,764.9 788.2,764.9 L 316.9,764.9 C 314.4,764.9 312.3,763.4 312,761.4 L 302.5,704.9 L 802.5,704.9" stroke="#000000" stroke-width="1" stroke-linecap="round" stroke-linejoin="round"/>
  <path d="M 308,704.9 L 318,764.9" fill="none" stroke="#868686" stroke-width="0.71" stroke-linecap="round" stroke-linejoin="round"/>
  <path d="M 313.5,704.9 L 323.2,764.9" fill="none" stroke="#868686" stroke-width="0.71" stroke-linecap="round" stroke-linejoin="round"/>
  <path d="M 319,704.9 L 328.5,764.9" fill="none" stroke="#868686" stroke-width="0.71" stroke-linecap="round" stroke-linejoin="round"/>
  <path d="M 324.5,704.9 L 333.8,764.9" fill="none" stroke="#868686" stroke-width="0.71" stroke-linecap="round" stroke-linejoin="round"/>
  <path d="M 330,704.9 L 339.1,764.9" fill="none" stroke="#868686" stroke-width="0.71" stroke-linecap="round" stroke-linejoin="round"/>
  <path d="M 335.5,704.9 L 344.3,764.9" fill="none" stroke="#868686" stroke-width="0.71" stroke-linecap="round" stroke-linejoin="round"/>
  <path d="M 341,704.9 L 349.6,764.9" fill="none" stroke="#868686" stroke-width="0.71" stroke-linecap="round" stroke-linejoin="round"/>
  <path d="M 346.5,704.9 L 354.9,764.9" fill="none" stroke="#868686" stroke-width="0.71" stroke-linecap="round" stroke-linejoin="round"/>
  <path d="M 352,704.9 L 360.2,764.9" fill="none" stroke="#868686" stroke-width="0.71" stroke-linecap="round" stroke-linejoin="round"/>
  <path d="M 357.5,704.9 L 365.4,764.9" fill="none" stroke="#868686" stroke-width="0.71" stroke-linecap="round" stroke-linejoin="round"/>
  <path d="M 363,704.9 L 370.7,764.9" fill="none" stroke="#868686" stroke-width="0.71" stroke-linecap="round" stroke-linejoin="round"/>
  <path d="M 368.5,704.9 L 376,764.9" fill="none" stroke="#868686" stroke-width="0.71" stroke-linecap="round" stroke-linejoin="round"/>
  <path d="M 374,704.9 L 381.2,764.9" fill="none" stroke="#868686" stroke-width="0.71" stroke-linecap="round" stroke-linejoin="round"/>
  <path d="M 379.5,704.9 L 386.5,764.9" fill="none" stroke="#868686" stroke-width="0.71" stroke-linecap="round" stroke-linejoin="round"/>
  <path d="M 385,704.9 L 391.8,764.9" fill="none" stroke="#868686" stroke-width="0.71" stroke-linecap="round" stroke-linejoin="round"/>
  <path d="M 390.4,704.9 L 397.1,764.9" fill="none" stroke="#868686" stroke-width="0.71" stroke-linecap="round" stroke-linejoin="round"/>
  <path d="M 395.9,704.9 L 402.3,764.9" fill="none" stroke="#868686" stroke-width="0.71" stroke-linecap="round" stroke-linejoin="round"/>
  <path d="M 401.4,704.9 L 407.6,764.9" fill="none" stroke="#868686" stroke-width="0.71" stroke-linecap="round" stroke-linejoin="round"/>
  <path d="M 406.9,704.9 L 412.9,764.9" fill="none" stroke="#868686" stroke-width="0.71" stroke-linecap="round" stroke-linejoin="round"/>
  <path d="M 412.4,704.9 L 418.2,764.9" fill="none" stroke="#868686" stroke-width="0.71" stroke-linecap="round" stroke-linejoin="round"/>
  <path d="M 417.9,704.9 L 423.4,764.9" fill="none" stroke="#868686" stroke-width="0.71" stroke-linecap="round" stroke-linejoin="round"/>
  <path d="M 423.4,704.9 L 428.7,764.9" fill="none" stroke="#868686" stroke-width="0.71" stroke-linecap="round" stroke-linejoin="round"/>
  <path d="M 428.9,704.9 L 434,764.9" fill="none" stroke="#868686" stroke-width="0.71" stroke-linecap="round" stroke-linejoin="round"/>
  <path d="M 434.4,704.9 L 439.3,764.9" fill="none" stroke="#868686" stroke-width="0.71" stroke-linecap="round" stroke-linejoin="round"/>
  <path d="M 439.9,704.9 L 444.5,764.9" fill="none" stroke="#868686" stroke-width="0.71" stroke-linecap="round" stroke-linejoin="round"/>
  <path d="M 445.4,704.9 L 449.8,764.9" fill="none" stroke="#868686" stroke-width="0.71" stroke-linecap="round" stroke-linejoin="round"/>
  <path d="M 450.9,704.9 L 455.1,764.9" fill="none" stroke="#868686" stroke-width="0.71" stroke-linecap="round" stroke-linejoin="round"/>
  <path d="M 456.4,704.9 L 460.4,764.9" fill="none" stroke="#868686" stroke-width="0.71" stroke-linecap="round" stroke-linejoin="round"/>
  <path d="M 461.9,704.9 L 465.6,764.9" fill="none" stroke="#868686" stroke-width="0.71" stroke-linecap="round" stroke-linejoin="round"/>
  <path d="M 467.4,704.9 L 470.9,764.9" fill="none" stroke="#868686" stroke-width="0.71" stroke-linecap="round" stroke-linejoin="round"/>
  <path d="M 472.9,704.9 L 476.2,764.9" fill="none" stroke="#868686" stroke-width="0.71" stroke-linecap="round" stroke-linejoin="round"/>
  <path d="M 478.4,704.9 L 481.5,764.9" fill="none" stroke="#868686" stroke-width="0.71" stroke-linecap="round" stroke-linejoin="round"/>
  <path d="M 483.9,704.9 L 486.7,764.9" fill="none" stroke="#868686" stroke-width="0.71" stroke-linecap="round" stroke-linejoin="round"/>
  <path d="M 489.3,704.9 L 492,764.9" fill="none" stroke="#868686" stroke-width="0.71" stroke-linecap="round" stroke-linejoin="round"/>
  <path d="M 494.8,704.9 L 497.3,764.9" fill="none" stroke="#868686" stroke-width="0.71" stroke-linecap="round" stroke-linejoin="round"/>
  <path d="M 500.3,704.9 L 502.6,764.9" fill="none" stroke="#868686" stroke-width="0.71" stroke-linecap="round" stroke-linejoin="round"/>
  <path d="M 505.8,704.9 L 507.8,764.9" fill="none" stroke="#868686" stroke-width="0.71" stroke-linecap="round" stroke-linejoin="round"/>
  <path d="M 511.3,704.9 L 513.1,764.9" fill="none" stroke="#868686" stroke-width="0.71" stroke-linecap="round" stroke-linejoin="round"/>
  <path d="M 516.8,704.9 L 518.4,764.9" fill="none" stroke="#868686" stroke-width="0.71" stroke-linecap="round" stroke-linejoin="round"/>
  <path d="M 522.3,704.9 L 523.7,764.9" fill="none" stroke="#868686" stroke-width="0.71" stroke-linecap="round" stroke-linejoin="round"/>
  <path d="M 527.8,704.9 L 528.9,764.9" fill="none" stroke="#868686" stroke-width="0.71" stroke-linecap="round" stroke-linejoin="round"/>
  <path d="M 533.3,704.9 L 534.2,764.9" fill="none" stroke="#868686" stroke-width="0.71" stroke-linecap="round" stroke-linejoin="round"/>
  <path d="M 538.8,704.9 L 539.5,764.9" fill="none" stroke="#868686" stroke-width="0.71" stroke-linecap="round" stroke-linejoin="round"/>
  <path d="M 544.3,704.9 L 544.7,764.9" fill="none" stroke="#868686" stroke-width="0.71" stroke-linecap="round" stroke-linejoin="round"/>
  <path d="M 549.8,704.9 L 550,764.9" fill="none" stroke="#868686" stroke-width="0.71" stroke-linecap="round" stroke-linejoin="round"/>
  <path d="M 555.3,704.9 L 555.3,764.9" fill="none" stroke="#868686" stroke-width="0.71" stroke-linecap="round" stroke-linejoin="round"/>
  <path d="M 560.8,704.9 L 560.6,764.9" fill="none" stroke="#868686" stroke-width="0.71" stroke-linecap="round" stroke-linejoin="round"/>
  <path d="M 566.3,704.9 L 565.8,764.9" fill="none" stroke="#868686" stroke-width="0.71" stroke-linecap="round" stroke-linejoin="round"/>
  <path d="M 571.8,704.9 L 571.1,764.9" fill="none" stroke="#868686" stroke-width="0.71" stroke-linecap="round" stroke-linejoin="round"/>
  <path d="M 577.3,704.9 L 576.4,764.9" fill="none" stroke="#868686" stroke-width="0.71" stroke-linecap="round" stroke-linejoin="round"/>
  <path d="M 582.8,704.9 L 581.7,764.9" fill="none" stroke="#868686" stroke-width="0.71" stroke-linecap="round" stroke-linejoin="round"/>
  <path d="M 588.2,704.9 L 586.9,764.9" fill="none" stroke="#868686" stroke-width="0.71" stroke-linecap="round" stroke-linejoin="round"/>
  <path d="M 593.7,704.9 L 592.2,764.9" fill="none" stroke="#868686" stroke-width="0.71" stroke-linecap="round" stroke-linejoin="round"/>
  <path d="M 599.2,704.9 L 597.5,764.9" fill="none" stroke="#868686" stroke-width="0.71" stroke-linecap="round" stroke-linejoin="round"/>
  <path d="M 604.7,704.9 L 602.8,764.9" fill="none" stroke="#868686" stroke-width="0.71" stroke-linecap="round" stroke-linejoin="round"/>
  <path d="M 610.2,704.9 L 608,764.9" fill="none" stroke="#868686" stroke-width="0.71" stroke-linecap="round" stroke-linejoin="round"/>
  <path d="M 615.7,704.9 L 613.3,764.9" fill="none" stroke="#868686" stroke-width="0.71" stroke-linecap="round" stroke-linejoin="round"/>
  <path d="M 621.2,704.9 L 618.6,764.9" fill="none" stroke="#868686" stroke-width="0.71" stroke-linecap="round" stroke-linejoin="round"/>
  <path d="M 626.7,704.9 L 623.9,764.9" fill="none" stroke="#868686" stroke-width="0.71" stroke-linecap="round" stroke-linejoin="round"/>
  <path d="M 632.2,704.9 L 629.1,764.9" fill="none" stroke="#868686" stroke-width="0.71" stroke-linecap="round" stroke-linejoin="round"/>
  <path d="M 637.7,704.9 L 634.4,764.9" fill="none" stroke="#868686" stroke-width="0.71" stroke-linecap="round" stroke-linejoin="round"/>
  <path d="M 643.2,704.9 L 639.7,764.9" fill="none" stroke="#868686" stroke-width="0.71" stroke-linecap="round" stroke-linejoin="round"/>
  <path d="M 648.7,704.9 L 645,764.9" fill="none" stroke="#868686" stroke-width="0.71" stroke-linecap="round" stroke-linejoin="round"/>
  <path d="M 654.2,704.9 L 650.2,764.9" fill="none" stroke="#868686" stroke-width="0.71" stroke-linecap="round" stroke-linejoin="round"/>
  <path d="M 659.7,704.9 L 655.5,764.9" fill="none" stroke="#868686" stroke-width="0.71" stroke-linecap="round" stroke-linejoin="round"/>
  <path d="M 665.2,704.9 L 660.8,764.9" fill="none" stroke="#868686" stroke-width="0.71" stroke-linecap="round" stroke-linejoin="round"/>
  <path d="M 670.7,704.9 L 666.1,764.9" fill="none" stroke="#868686" stroke-width="0.71" stroke-linecap="round" stroke-linejoin="round"/>
  <path d="M 676.2,704.9 L 671.3,764.9" fill="none" stroke="#868686" stroke-width="0.71" stroke-linecap="round" stroke-linejoin="round"/>
  <path d="M 681.7,704.9 L 676.6,764.9" fill="none" stroke="#868686" stroke-width="0.71" stroke-linecap="round" stroke-linejoin="round"/>
  <path d="M 687.2,704.9 L 681.9,764.9" fill="none" stroke="#868686" stroke-width="0.71" stroke-linecap="round" stroke-linejoin="round"/>
  <path d="M 692.6,704.9 L 687.1,764.9" fill="none" stroke="#868686" stroke-width="0.71" stroke-linecap="round" stroke-linejoin="round"/>
  <path d="M 698.1,704.9 L 692.4,764.9" fill="none" stroke="#868686" stroke-width="0.71" stroke-linecap="round" stroke-linejoin="round"/>
  <path d="M 703.6,704.9 L 697.7,764.9" fill="none" stroke="#868686" stroke-width="0.71" stroke-linecap="round" stroke-linejoin="round"/>
  <path d="M 709.1,704.9 L 703,764.9" fill="none" stroke="#868686" stroke-width="0.71" stroke-linecap="round" stroke-linejoin="round"/>
  <path d="M 714.6,704.9 L 708.2,764.9" fill="none" stroke="#868686" stroke-width="0.71" stroke-linecap="round" stroke-linejoin="round"/>
  <path d="M 720.1,704.9 L 713.5,764.9" fill="none" stroke="#868686" stroke-width="0.71" stroke-linecap="round" stroke-linejoin="round"/>
  <path d="M 725.6,704.9 L 718.8,764.9" fill="none" stroke="#868686" stroke-width="0.71" stroke-linecap="round" stroke-linejoin="round"/>
  <path d="M 731.1,704.9 L 724.1,764.9" fill="none" stroke="#868686" stroke-width="0.71" stroke-linecap="round" stroke-linejoin="round"/>
  <path d="M 736.6,704.9 L 729.3,764.9" fill="none" stroke="#868686" stroke-width="0.71" stroke-linecap="round" stroke-linejoin="round"/>
  <path d="M 742.1,704.9 L 734.6,764.9" fill="none" stroke="#868686" stroke-width="0.71" stroke-linecap="round" stroke-linejoin="round"/>
  <path d="M 747.6,704.9 L 739.9,764.9" fill="none" stroke="#868686" stroke-width="0.71" stroke-linecap="round" stroke-linejoin="round"/>
  <path d="M 753.1,704.9 L 745.2,764.9" fill="none" stroke="#868686" stroke-width="0.71" stroke-linecap="round" stroke-linejoin="round"/>
  <path d="M 758.6,704.9 L 750.4,764.9" fill="none" stroke="#868686" stroke-width="0.71" stroke-linecap="round" stroke-linejoin="round"/>
  <path d="M 764.1,704.9 L 755.7,764.9" fill="none" stroke="#868686" stroke-width="0.71" stroke-linecap="round" stroke-linejoin="round"/>
  <path d="M 769.6,704.9 L 761,764.9" fill="none" stroke="#868686" stroke-width="0.71" stroke-linecap="round" stroke-linejoin="round"/>
  <path d="M 775.1,704.9 L 766.3,764.9" fill="none" stroke="#868686" stroke-width="0.71" stroke-linecap="round" stroke-linejoin="round"/>
  <path d="M 780.6,704.9 L 771.5,764.9" fill="none" stroke="#868686" stroke-width="0.71" stroke-linecap="round" stroke-linejoin="round"/>
  <path d="M 786.1,704.9 L 776.8,764.9" fill="none" stroke="#868686" stroke-width="0.71" stroke-linecap="round" stroke-linejoin="round"/>
  <path d="M 791.5,704.9 L 782.1,764.9" fill="none" stroke="#868686" stroke-width="0.71" stroke-linecap="round" stroke-linejoin="round"/>
  <path d="M 797,704.9 L 787.4,764.9" fill="none" stroke="#868686" stroke-width="0.71" stroke-linecap="round" stroke-linejoin="round"/>
  <path d="M 831.5,523 C 834,460.7 836.5,398.4 839,336.1 C 838.6,336 838.1,335.8 837.7,335.8 C 830.6,334.5 823.4,332.2 817.4,328.2 C 812.2,324.6 807.8,319.8 804.5,314.5 C 801,308.6 798.7,302 796.8,295.5 C 794.4,287.2 792.8,278.8 791.8,270.3 C 790.8,260.4 790.7,250.7 790.7,240.9 C 790.7,230.1 790.7,219.4 791,208.6 C 791.3,195.9 792.1,183.2 793,170.4 C 794,157.3 795.2,144.1 796.5,131 C 797.9,117.5 799.4,104 800.8,90.5 C 800.4,90.2 799.9,90.1 799.4,89.9 C 796.8,89 794.1,88 791.4,87.1 C 788.3,86 785.1,85 782,83.9 C 778.8,82.8 775.7,81.8 772.5,80.7 C 769.4,79.7 766.2,78.7 763,77.7 C 759.9,76.7 756.7,75.7 753.5,74.7 C 750.4,73.8 747.2,72.7 744,71.9 C 740.8,70.9 737.6,69.9 734.4,69.1 C 731.2,68.2 728,67.3 724.8,66.4 C 721.6,65.4 718.4,64.6 715.2,63.7 C 712,62.9 708.8,62.1 705.6,61.3 C 702.4,60.4 699.2,59.6 695.9,58.8 C 692.7,58.1 689.5,57.2 686.3,56.4 C 683,55.7 679.8,54.9 676.5,54.3 C 673.3,53.5 670.1,52.7 666.8,52.1 C 663.6,51.4 660.3,50.6 657,50.1 C 654.3,49.5 651.5,48.9 648.7,48.4 C 648.2,48.3 647.8,48.2 647.3,48 C 641.3,55.7 635.4,63.3 627.7,68.6 C 620.3,73.6 611.3,76.4 602.2,78.3 C 593.6,80.1 584.9,80.7 576.2,81.1 C 568.8,81.3 561.4,81.1 554,81.1 L 552.5,81.1 L 551,81.1 C 543.6,81.1 536.2,81.3 528.8,81.1 C 520.1,80.7 511.4,80.1 502.8,78.3 C 493.7,76.4 484.7,73.6 477.3,68.6 C 469.6,63.3 463.7,55.7 457.7,48 C 457.2,48.2 456.8,48.3 456.3,48.4 C 453.5,48.9 450.7,49.5 448,50.1 C 444.7,50.6 441.4,51.4 438.2,52.1 C 434.9,52.7 431.7,53.5 428.5,54.3 C 425.2,54.9 422,55.7 418.7,56.4 C 415.5,57.2 412.3,58.1 409.1,58.8 C 405.8,59.6 402.6,60.4 399.4,61.3 C 396.2,62.1 393,62.9 389.8,63.7 C 386.6,64.6 383.4,65.4 380.2,66.4 C 377,67.3 373.8,68.2 370.6,69.1 C 367.4,69.9 364.2,70.9 361,71.9 C 357.8,72.7 354.6,73.8 351.5,74.7 C 348.3,75.7 345.1,76.7 342,77.7 C 338.8,78.7 335.6,79.7 332.5,80.7 C 329.3,81.8 326.2,82.8 323,83.9 C 319.9,85 316.7,86 313.6,87.1 C 310.9,88 308.2,89 305.6,89.9 C 305.1,90.1 304.6,90.2 304.2,90.5 C 305.6,104 307.1,117.5 308.5,131 C 309.8,144.1 311,157.3 312,170.4 C 312.9,183.2 313.7,195.9 314,208.6 C 314.3,219.4 314.3,230.1 314.3,240.9 C 314.3,250.7 314.2,260.4 313.2,270.3 C 312.2,278.8 310.6,287.2 308.2,295.5 C 306.4,302 304,308.6 300.5,314.5 C 297.2,319.8 292.8,324.6 287.6,328.2 C 281.6,332.2 274.4,334.5 267.3,335.8 C 266.9,335.8 266.4,336 266,336.1 C 268.5,398.4 271,460.7 273.5,523 C 275.6,572.8 277.6,622.9 279.6,672.8 C 279.8,676.2 279.9,679.5 280.1,682.9 C 280.6,696.8 292,707.7 305.9,707.7 L 552.5,707.7 L 801,707.7 C 813.9,707.7 824.4,697.6 824.9,684.7 C 825.1,680.7 825.3,676.7 825.4,672.8 C 827.4,622.9 829.4,572.8 831.5,523" stroke="#000000" stroke-width="1.06" stroke-linecap="round" stroke-linejoin="round"/>
  <path d="M 552.5,0 C 467.6,0 376.2,20.1 376.2,20.1 C 376.2,20.1 372.2,53.7 382.6,127.1 C 393.1,200.4 528.5,280 552.5,280 C 576.6,280 712,200.4 722.5,127.1 C 732.9,53.7 728.8,20.1 728.8,20.1 C 728.8,20.1 637.5,0 552.5,0" stroke="#000000" stroke-width="1" stroke-linecap="round" stroke-linejoin="round"/>
  <path d="M 552.5,0 L 552.5,280" fill="none" stroke="#000000" stroke-width="1" stroke-linecap="round" stroke-linejoin="round"/>
  <path d="M 729.2,43.6 C 729.2,43.6 637.7,23.5 552.5,23.5 C 467.4,23.5 375.9,43.6 375.9,43.6" fill="none" stroke="#000000" stroke-width="0.75" stroke-dasharray="1.88 1.88" stroke-linecap="round" stroke-linejoin="round"/>
  <path d="M 729.2,47.4 C 729.2,47.4 637.7,27.3 552.5,27.3 C 467.4,27.3 375.9,47.4 375.9,47.4" fill="none" stroke="#000000" stroke-width="0.75" stroke-dasharray="1.88 1.88" stroke-linecap="round" stroke-linejoin="round"/>
</g>
</svg>
