<svg xmlns="http://www.w3.org/2000/svg" viewBox="0 0 613 758" width="613" height="758">
  <path id="garment" d="M 580.5,73.5 L 579.1,72.8 L 574.0,70.2 L 566.5,66.4 L 557.7,62.0 L 548.8,57.7 L 539.8,53.5 L 530.9,49.4 L 521.9,45.3 L 512.8,41.4 L 503.8,37.5 L 494.7,33.7 L 490.1,31.8 L 485.5,30.0 L 476.4,26.3 L 467.2,22.8 L 457.9,19.3 L 448.7,15.9 L 439.4,12.6 L 430.0,9.4 L 420.7,6.3 L 411.2,3.2 L 402.4,0.4 L 401.0,0.0 L 400.3,1.3 L 398.1,5.7 L 397.4,7.0 L 385.1,20.8 L 383.9,21.6 L 382.8,22.4 L 360.8,32.1 L 336.9,35.4 L 335.4,35.4 L 333.9,35.4 L 308.0,35.4 L 306.5,35.4 L 305.0,35.4 L 279.1,35.4 L 277.6,35.4 L 276.1,35.4 L 252.2,32.1 L 230.2,22.4 L 215.6,7.0 L 214.9,5.7 L 212.7,1.3 L 212.0,0.0 L 210.6,0.4 L 201.8,3.2 L 192.3,6.3 L 183.0,9.4 L 173.6,12.6 L 164.3,15.9 L 155.1,19.3 L 145.8,22.8 L 136.6,26.3 L 127.5,30.0 L 122.9,31.8 L 118.3,33.7 L 109.2,37.5 L 100.2,41.4 L 91.1,45.3 L 82.1,49.4 L 73.2,53.5 L 64.2,57.7 L 55.3,62.0 L 46.5,66.4 L 39.0,70.2 L 33.9,72.8 L 32.5,73.5 L 32.9,74.9 L 34.1,79.0 L 34.5,80.5 L 44.1,117.2 L 50.2,155.8 L 52.4,188.5 L 51.7,223.7 L 49.7,252.2 L 45.4,273.1 L 37.7,291.7 L 28.0,302.5 L 12.1,306.7 L 10.8,306.5 L 1.5,305.5 L 0.0,305.3 L 0.0,758.4 L 306.5,758.4 L 613.0,758.4 L 613.0,305.3 L 611.5,305.5 L 602.2,306.5 L 600.9,306.7 L 585.0,302.5 L 575.3,291.7 L 567.6,273.1 L 563.3,252.2 L 561.3,223.7 L 560.6,188.5 L 562.8,155.8 L 568.9,117.2 L 578.5,80.5 L 578.9,79.0 L 580.1,74.9 L 580.5,73.5 Z" fill="#1b1f24" stroke="#5b6470" stroke-width="3" stroke-linejoin="round"></path>
  <line id="center-axis" x1="306.5" y1="0" x2="306.5" y2="758" stroke="#3b4350" stroke-width="1.5" stroke-dasharray="6 8"></line>
  <circle id="neckline-point" cx="306.5" cy="35.4" r="6" fill="#ff5a5f"></circle>
</svg>