<svg xmlns="http://www.w3.org/2000/svg" viewBox="0 0 462 287" width="462" height="287">
  <path id="garment" d="M 462.3,124.0 L 460.8,123.6 L 453.3,121.2 L 422.8,110.5 L 397.0,96.8 L 369.2,77.7 L 348.1,59.8 L 327.6,42.8 L 307.0,26.5 L 283.3,13.0 L 259.0,3.7 L 232.8,0.0 L 231.3,0.0 L 229.9,0.0 L 198.6,4.2 L 179.1,12.5 L 159.5,23.9 L 136.0,41.4 L 114.6,60.2 L 93.8,76.5 L 65.0,96.6 L 63.2,97.8 L 61.9,98.7 L 60.7,99.5 L 31.7,115.4 L 9.8,121.1 L 1.5,122.8 L 0.0,123.1 L 27.8,256.2 L 20.5,275.7 L 22.0,275.8 L 36.7,276.9 L 64.3,279.1 L 91.9,281.1 L 119.7,283.0 L 147.5,284.6 L 175.3,285.9 L 203.2,286.7 L 229.7,287.0 L 231.2,287.0 L 232.7,287.0 L 259.2,286.7 L 287.1,285.9 L 315.0,284.6 L 342.8,283.0 L 370.5,281.1 L 398.2,279.1 L 425.8,276.9 L 440.5,275.8 L 442.0,275.7 L 434.6,256.2 L 462.3,124.0 Z" fill="#1b1f24" stroke="#5b6470" stroke-width="3" stroke-linejoin="round"></path>
  <line id="center-axis" x1="231.2" y1="0" x2="231.2" y2="287" stroke="#3b4350" stroke-width="1.5" stroke-dasharray="6 8"></line>
  <line id="sleeve-bottom" x1="0" y1="287" x2="462" y2="287" stroke="#ff5a5f" stroke-width="3"></line>
</svg>